<svg width="24" height="24" viewBox="0 0 24 24" fill="none" xmlns="http://www.w3.org/2000/svg">
<path d="M21.7255 16.4975V7.4909C22.1438 7.36529 22.4515 6.97916 22.4515 6.51774C22.4515 5.95529 21.9969 5.49774 21.4377 5.49774C21.178 5.49774 20.9434 5.59935 20.7638 5.76155L20.7686 5.75361L12.9841 1.26058L12.9798 1.26813C12.9998 1.18819 13.0137 1.10613 13.0137 1.02C13.0137 0.457548 12.5589 0 11.9999 0C11.4409 0 10.9861 0.457548 10.9861 1.02C10.9861 1.10477 10.9995 1.18587 11.0188 1.26465L11.0157 1.26077L3.29506 5.77161L3.29739 5.77626C3.20352 5.67488 3.08977 5.59394 2.96322 5.53849C2.83668 5.48304 2.70006 5.45428 2.5619 5.454C2.00293 5.454 1.5481 5.91155 1.5481 6.474C1.5481 6.93523 1.85584 7.32135 2.2741 7.44716V16.4977C1.85603 16.6231 1.54829 17.0092 1.54829 17.4705C1.54829 18.0329 2.00293 18.4904 2.5621 18.4904C2.69988 18.4901 2.83613 18.4615 2.96238 18.4063C3.08864 18.3512 3.2022 18.2706 3.29603 18.1697L3.29526 18.1726L11.0176 22.7394C10.8655 23.3683 11.3478 24 11.9999 24C12.6425 24 13.126 23.3826 12.9882 22.759L20.7595 18.2232C20.9395 18.3877 21.176 18.4906 21.4377 18.4906C21.9967 18.4906 22.4515 18.0331 22.4515 17.4706C22.4515 17.0092 22.1438 16.6231 21.7255 16.4975ZM20.4553 6.27193C20.4477 6.4469 20.4344 6.58761 20.4555 6.76413L16.5551 9.01916L12.2875 6.53671V1.99316C12.4451 1.94697 12.589 1.86314 12.7069 1.7489L12.7052 1.752L20.4553 6.27193ZM11.3393 1.78723C11.4475 1.88163 11.5747 1.95178 11.7123 1.99297V6.53652L7.479 8.99923L3.55268 6.68671C3.58222 6.54806 3.58274 6.4048 3.55422 6.26594L11.3393 1.78723ZM12.7011 22.2465C12.5844 22.1347 12.4426 22.0526 12.2875 22.007V17.4633L16.8384 14.8161V9.52258L12.2875 12.1659V17.3876H11.7121V12.1647L7.16139 9.48252V14.8161L11.7123 17.4633V22.0068C11.5666 22.0501 11.4327 22.1258 11.3205 22.2283L3.54087 17.7213C3.56287 17.6395 3.57451 17.5552 3.57552 17.4705C3.57552 17.0092 3.26777 16.6231 2.84971 16.4975V7.44677C3.00947 7.40009 3.15526 7.31473 3.27416 7.19826V7.19884L7.33152 9.58064L7.62242 9.08574L12.0011 11.6665L16.4136 9.10355L16.7012 9.6L20.7688 7.28206L20.7638 7.27374C20.8748 7.37399 21.0069 7.44812 21.1503 7.49071V16.4973C20.5996 16.6628 20.3711 17.1987 20.4545 17.7137L12.7011 22.2465Z" fill="white"/>
</svg>
