<svg width="24" height="24" viewBox="0 0 24 24" fill="none" xmlns="http://www.w3.org/2000/svg">
<path d="M15.9375 21.5625H5.25C4.8026 21.562 4.37367 21.3841 4.05731 21.0677C3.74095 20.7513 3.563 20.3224 3.5625 19.875V12.375C3.5625 12.2258 3.62176 12.0827 3.72725 11.9773C3.83274 11.8718 3.97582 11.8125 4.125 11.8125C4.27418 11.8125 4.41726 11.8718 4.52275 11.9773C4.62824 12.0827 4.6875 12.2258 4.6875 12.375V19.875C4.6875 20.1851 4.93988 20.4375 5.25 20.4375H15.9375C16.0867 20.4375 16.2298 20.4968 16.3352 20.6023C16.4407 20.7077 16.5 20.8508 16.5 21C16.5 21.1492 16.4407 21.2923 16.3352 21.3977C16.2298 21.5032 16.0867 21.5625 15.9375 21.5625ZM18 9.9375C17.8508 9.9375 17.7077 9.87824 17.6023 9.77275C17.4968 9.66726 17.4375 9.52418 17.4375 9.375V4.125C17.4375 3.81488 17.1851 3.5625 16.875 3.5625H8.055C7.90582 3.5625 7.76274 3.50324 7.65725 3.39775C7.55176 3.29226 7.4925 3.14918 7.4925 3C7.4925 2.85082 7.55176 2.70774 7.65725 2.60225C7.76274 2.49676 7.90582 2.4375 8.055 2.4375H16.875C17.8054 2.4375 18.5625 3.19463 18.5625 4.125V9.375C18.5625 9.52418 18.5032 9.66726 18.3977 9.77275C18.2923 9.87824 18.1492 9.9375 18 9.9375Z" fill="white"/>
<path d="M9 12.9375H3C2.5526 12.937 2.12367 12.7591 1.80731 12.4427C1.49095 12.1263 1.313 11.6974 1.3125 11.25V6.75C1.3125 5.81963 2.06963 5.0625 3 5.0625H9C9.93038 5.0625 10.6875 5.81963 10.6875 6.75V11.25C10.6875 12.1804 9.93038 12.9375 9 12.9375ZM3 6.1875C2.68988 6.1875 2.4375 6.43988 2.4375 6.75V11.25C2.4375 11.5601 2.68988 11.8125 3 11.8125H9C9.31012 11.8125 9.5625 11.5601 9.5625 11.25V6.75C9.5625 6.43988 9.31012 6.1875 9 6.1875H3Z" fill="white"/>
<path d="M6.00001 9.53175C6.66461 9.53175 7.20338 8.99298 7.20338 8.32837C7.20338 7.66377 6.66461 7.125 6.00001 7.125C5.3354 7.125 4.79663 7.66377 4.79663 8.32837C4.79663 8.99298 5.3354 9.53175 6.00001 9.53175Z" fill="white"/>
<path d="M6 11.0625C5.85082 11.0625 5.70775 11.0032 5.60226 10.8978C5.49677 10.7923 5.4375 10.6492 5.4375 10.5V9.21825C5.4375 9.06907 5.49677 8.926 5.60226 8.82051C5.70775 8.71502 5.85082 8.65575 6 8.65575C6.14919 8.65575 6.29226 8.71502 6.39775 8.82051C6.50324 8.926 6.5625 9.06907 6.5625 9.21825V10.5C6.5625 10.6492 6.50324 10.7923 6.39775 10.8978C6.29226 11.0032 6.14919 11.0625 6 11.0625ZM8.4375 6.1875C8.28832 6.1875 8.14525 6.12824 8.03976 6.02275C7.93427 5.91726 7.875 5.77419 7.875 5.625V4.3125C7.87437 3.94162 7.76389 3.57923 7.5575 3.27107C7.35111 2.96291 7.05807 2.7228 6.71535 2.58102C6.37263 2.43925 5.99559 2.40217 5.63182 2.47447C5.26805 2.54677 4.93384 2.7252 4.67138 2.98725C4.49774 3.16145 4.36012 3.36815 4.26637 3.59553C4.17263 3.82292 4.12459 4.06655 4.125 4.3125V5.625C4.125 5.77419 4.06574 5.91726 3.96025 6.02275C3.85476 6.12824 3.71169 6.1875 3.5625 6.1875C3.41332 6.1875 3.27025 6.12824 3.16476 6.02275C3.05927 5.91726 3 5.77419 3 5.625V4.3125C2.99936 3.91836 3.07652 3.52796 3.22706 3.16369C3.37759 2.79943 3.59855 2.46846 3.87725 2.18975C4.15596 1.91105 4.48693 1.69009 4.85119 1.53956C5.21546 1.38902 5.60586 1.31186 6 1.3125C7.65413 1.3125 9 2.65838 9 4.3125V5.625C9 5.77419 8.94074 5.91726 8.83525 6.02275C8.72976 6.12824 8.58669 6.1875 8.4375 6.1875ZM15.75 8.4375H12.375C12.2258 8.4375 12.0827 8.37824 11.9773 8.27275C11.8718 8.16726 11.8125 8.02419 11.8125 7.875C11.8125 7.72582 11.8718 7.58275 11.9773 7.47726C12.0827 7.37177 12.2258 7.3125 12.375 7.3125H15.75C15.8992 7.3125 16.0423 7.37177 16.1478 7.47726C16.2532 7.58275 16.3125 7.72582 16.3125 7.875C16.3125 8.02419 16.2532 8.16726 16.1478 8.27275C16.0423 8.37824 15.8992 8.4375 15.75 8.4375ZM15.75 10.6875H12.375C12.2258 10.6875 12.0827 10.6282 11.9773 10.5228C11.8718 10.4173 11.8125 10.2742 11.8125 10.125C11.8125 9.97582 11.8718 9.83275 11.9773 9.72726C12.0827 9.62177 12.2258 9.5625 12.375 9.5625H15.75C15.8992 9.5625 16.0423 9.62177 16.1478 9.72726C16.2532 9.83275 16.3125 9.97582 16.3125 10.125C16.3125 10.2742 16.2532 10.4173 16.1478 10.5228C16.0423 10.6282 15.8992 10.6875 15.75 10.6875ZM11.625 15.1875H6.375C6.22582 15.1875 6.08275 15.1282 5.97726 15.0228C5.87177 14.9173 5.8125 14.7742 5.8125 14.625C5.8125 14.4758 5.87177 14.3327 5.97726 14.2273C6.08275 14.1218 6.22582 14.0625 6.375 14.0625H11.625C11.7742 14.0625 11.9173 14.1218 12.0228 14.2273C12.1282 14.3327 12.1875 14.4758 12.1875 14.625C12.1875 14.7742 12.1282 14.9173 12.0228 15.0228C11.9173 15.1282 11.7742 15.1875 11.625 15.1875ZM11.625 17.4375H6.375C6.22582 17.4375 6.08275 17.3782 5.97726 17.2728C5.87177 17.1673 5.8125 17.0242 5.8125 16.875C5.8125 16.7258 5.87177 16.5827 5.97726 16.4773C6.08275 16.3718 6.22582 16.3125 6.375 16.3125H11.625C11.7742 16.3125 11.9173 16.3718 12.0228 16.4773C12.1282 16.5827 12.1875 16.7258 12.1875 16.875C12.1875 17.0242 12.1282 17.1673 12.0228 17.2728C11.9173 17.3782 11.7742 17.4375 11.625 17.4375ZM18 22.6875C17.9074 22.6875 17.8148 22.6643 17.7308 22.6185L14.7784 21.0083C14.3347 20.7665 13.9644 20.4095 13.7064 19.975C13.4484 19.5405 13.3124 19.0446 13.3125 18.5393V12.855C13.3125 12.7339 13.3516 12.6161 13.424 12.519C13.4963 12.4219 13.5981 12.3508 13.7141 12.3161L17.8391 11.0861C17.9396 11.0561 18.0469 11.0546 18.1481 11.0824L22.2731 12.207C22.3921 12.2395 22.4972 12.3102 22.5721 12.4083C22.6469 12.5063 22.6875 12.6263 22.6875 12.7496V18.5396C22.6876 19.0448 22.5515 19.5407 22.2936 19.9751C22.0357 20.4095 21.6655 20.7664 21.222 21.0083L18.2693 22.6185C18.1853 22.6643 18.093 22.6875 18 22.6875ZM14.4375 13.2743V18.5393C14.4374 18.8425 14.5191 19.1402 14.6739 19.401C14.8287 19.6618 15.051 19.8761 15.3173 20.0213L18 21.4838L20.6831 20.0209C20.9493 19.8757 21.1715 19.6614 21.3263 19.4006C21.481 19.1398 21.5626 18.8421 21.5625 18.5389V13.1794L18.0071 12.21L14.4375 13.2743Z" fill="white"/>
<path d="M17.6251 18.1879C17.5069 18.1879 17.3881 18.1508 17.2876 18.0754L15.7876 16.9504C15.6742 16.8588 15.6009 16.7267 15.5829 16.5821C15.5649 16.4375 15.6038 16.2916 15.6912 16.175C15.7786 16.0584 15.9079 15.9803 16.0517 15.957C16.1956 15.9338 16.3429 15.9673 16.4626 16.0504L17.5726 16.8829L19.4776 14.9771C19.5295 14.9234 19.5916 14.8806 19.6602 14.8512C19.7288 14.8217 19.8027 14.8062 19.8773 14.8056C19.952 14.805 20.0261 14.8193 20.0952 14.8476C20.1643 14.8759 20.2271 14.9177 20.2799 14.9705C20.3327 15.0234 20.3744 15.0862 20.4027 15.1553C20.4309 15.2245 20.4451 15.2986 20.4444 15.3733C20.4438 15.4479 20.4282 15.5217 20.3987 15.5904C20.3692 15.659 20.3263 15.721 20.2726 15.7729L18.0226 18.0229C17.9138 18.1324 17.7698 18.1879 17.6251 18.1879Z" fill="white"/>
</svg>
