<svg width="24" height="24" viewBox="0 0 24 24" fill="none" xmlns="http://www.w3.org/2000/svg">
<path d="M22.2494 5.22905L22.305 5.20762C22.3757 5.1804 22.4365 5.13239 22.4794 5.06991C22.5223 5.00744 22.5453 4.93344 22.5453 4.85766V3.84816C22.5453 3.77238 22.5223 3.69837 22.4794 3.6359C22.4365 3.57342 22.3757 3.52541 22.305 3.49819L21.865 3.32883C21.7954 3.09555 21.7019 2.87007 21.586 2.65594L21.7775 2.22478C21.8083 2.15553 21.8173 2.07857 21.8035 2.00406C21.7897 1.92956 21.7536 1.86099 21.7 1.80741L20.9862 1.09359C20.9326 1.04 20.864 1.00391 20.7895 0.990058C20.715 0.976209 20.6381 0.985259 20.5688 1.01602L20.1374 1.20759C19.9233 1.09181 19.6979 0.998346 19.4647 0.928688L19.2953 0.488578C19.2681 0.417856 19.2201 0.357041 19.1576 0.314148C19.0952 0.271255 19.0212 0.248296 18.9454 0.248297H17.9359C17.8601 0.248303 17.7861 0.271264 17.7236 0.314157C17.6611 0.357049 17.6131 0.41786 17.5859 0.488578L17.4165 0.928734C17.1833 0.998401 16.9579 1.09186 16.7438 1.20764L16.3125 1.01602C16.2432 0.985279 16.1663 0.976239 16.0918 0.990087C16.0173 1.00393 15.9487 1.04002 15.8951 1.09359L15.1813 1.80745C15.1277 1.86104 15.0916 1.9296 15.0778 2.00411C15.0639 2.07861 15.073 2.15557 15.1037 2.22483L15.2953 2.65613C15.1795 2.87021 15.086 3.09565 15.0164 3.32888L14.5763 3.49828C14.5056 3.52549 14.4447 3.5735 14.4018 3.63598C14.359 3.69846 14.336 3.77247 14.336 3.84825V4.85775C14.336 4.91634 14.3497 4.97264 14.3745 5.02303H12.547C12.3723 4.2735 11.8356 3.645 11.1075 3.36056C10.8268 1.84078 9.50194 0.723094 7.93087 0.723094C7.63392 0.723094 7.34161 0.763078 7.05895 0.842203C6.41953 0.297469 5.61431 0 4.76761 0C2.83369 0 1.25719 1.55939 1.22958 3.48689C0.474937 3.89738 0 4.68295 0 5.55389C0 6.85209 1.05619 7.90828 2.35439 7.90828H3.28444V17.0378C3.28444 18.0591 4.11534 18.89 5.13666 18.89H9.87267V20.487H7.99912C7.09772 20.487 6.36436 21.1067 6.36436 21.8685V22.875C6.36436 22.9745 6.40387 23.0698 6.47419 23.1402C6.54452 23.2105 6.6399 23.25 6.73936 23.25H19.7951C19.8946 23.25 19.99 23.2105 20.0603 23.1402C20.1306 23.0698 20.1701 22.9745 20.1701 22.875V21.8685C20.1701 21.1067 19.4368 20.4869 18.5354 20.4869H16.6618V18.89H21.3978C22.4191 18.89 23.25 18.059 23.25 17.0377V6.87516C23.25 6.15923 22.8463 5.53725 22.2494 5.22905ZM5.26969 7.90828H10.2538C11.0033 7.90828 11.6717 7.55573 12.1032 7.00823H15.2911L15.8951 7.61222C15.9487 7.66581 16.0173 7.70191 16.0918 7.71575C16.1663 7.7296 16.2432 7.72055 16.3125 7.6898L16.7439 7.49822C16.958 7.61399 17.1834 7.70745 17.4165 7.77713L17.586 8.21728C17.6132 8.28801 17.6612 8.34883 17.7237 8.39173C17.7861 8.43462 17.8601 8.45758 17.9359 8.45756H18.9454C19.0212 8.45756 19.0952 8.4346 19.1577 8.39171C19.2202 8.34882 19.2682 8.288 19.2954 8.21728L19.4647 7.77731C19.698 7.70765 19.9235 7.61417 20.1377 7.49836L20.5688 7.68984C20.6381 7.72062 20.715 7.72968 20.7895 7.71584C20.864 7.702 20.9326 7.66591 20.9862 7.61231L21.2647 7.33378V15.6517H5.26969V7.90828ZM15.1618 5.77294C15.2022 5.86714 15.2468 5.95954 15.2953 6.04987L15.2027 6.25823H12.5004C12.5499 6.10036 12.5824 5.93769 12.5976 5.77294H15.1618ZM15.086 4.10564L15.4637 3.96023C15.5206 3.93836 15.5712 3.90297 15.6113 3.85712C15.6514 3.81127 15.6798 3.75633 15.6938 3.69708C15.763 3.40658 15.878 3.12899 16.0347 2.8748C16.0667 2.82293 16.0855 2.76406 16.0896 2.70327C16.0937 2.64249 16.0829 2.58163 16.0582 2.52595L15.8937 2.15569L16.2434 1.806L16.6137 1.97048C16.6694 1.9952 16.7303 2.00599 16.791 2.0019C16.8518 1.99782 16.9107 1.97899 16.9626 1.94705C17.2167 1.79035 17.4943 1.67527 17.7848 1.60617C17.844 1.59206 17.899 1.56374 17.9448 1.52365C17.9907 1.48356 18.0261 1.4329 18.048 1.37606L18.1934 0.998297H18.6879L18.8333 1.37606C18.8552 1.43291 18.8906 1.48357 18.9365 1.52367C18.9823 1.56376 19.0372 1.59208 19.0965 1.60617C19.387 1.6753 19.6646 1.79038 19.9188 1.94705C19.9706 1.979 20.0295 1.99784 20.0903 2.00192C20.1511 2.006 20.2119 1.99521 20.2676 1.97048L20.6379 1.806L20.9876 2.15569L20.8232 2.52581C20.7985 2.5815 20.7877 2.64237 20.7918 2.70316C20.7959 2.76395 20.8147 2.82283 20.8467 2.8747C21.0034 3.12892 21.1185 3.40657 21.1876 3.69712C21.2017 3.75638 21.2301 3.81131 21.2702 3.85716C21.3102 3.90301 21.3609 3.9384 21.4177 3.96028L21.7953 4.10564V4.60022L21.4176 4.74563C21.3607 4.7675 21.3101 4.8029 21.27 4.84875C21.2299 4.8946 21.2016 4.94953 21.1875 5.00878C21.1183 5.29927 21.0032 5.57686 20.8466 5.83106C20.8146 5.88294 20.7958 5.94181 20.7917 6.00259C20.7877 6.06337 20.7985 6.12423 20.8232 6.17991L20.9877 6.55022L20.638 6.89991L20.2679 6.73552C20.2122 6.71077 20.1513 6.69996 20.0905 6.70404C20.0298 6.70811 19.9709 6.72695 19.919 6.75891C19.6648 6.91566 19.3871 7.03075 19.0965 7.09983C19.0373 7.11392 18.9823 7.14224 18.9365 7.18233C18.8906 7.22242 18.8552 7.27309 18.8333 7.32994L18.688 7.70756H18.1935L18.048 7.3298C18.0262 7.27295 17.9908 7.22229 17.9449 7.18219C17.8991 7.1421 17.8441 7.11378 17.7849 7.09969C17.4944 7.03054 17.2168 6.91547 16.9626 6.75881C16.9107 6.72689 16.8519 6.70807 16.7911 6.704C16.7303 6.69992 16.6695 6.71071 16.6138 6.73542L16.2435 6.89991L15.8938 6.55022L16.0582 6.18005C16.0829 6.12437 16.0937 6.06351 16.0896 6.00273C16.0855 5.94194 16.0667 5.88307 16.0347 5.8312C15.878 5.57696 15.7629 5.2993 15.6938 5.00873C15.6797 4.94949 15.6514 4.89457 15.6113 4.84872C15.5712 4.80288 15.5205 4.76749 15.4637 4.74563L15.0861 4.60027V4.10564H15.086ZM0.75 5.55389C0.75 4.90041 1.14319 4.31719 1.75172 4.068C1.82397 4.03841 1.88519 3.987 1.92682 3.92096C1.96846 3.85491 1.98844 3.77751 1.98398 3.69956C1.98088 3.6459 1.9793 3.59216 1.97925 3.53841C1.97925 2.00086 3.23011 0.75 4.76761 0.75C5.49492 0.75 6.18337 1.02853 6.70612 1.53431C6.75646 1.58298 6.8194 1.61659 6.88785 1.63135C6.95629 1.6461 7.02749 1.64141 7.09341 1.6178C7.3621 1.52159 7.64542 1.4726 7.93083 1.473C9.20048 1.473 10.2608 2.42339 10.3972 3.68377C10.4053 3.75873 10.4358 3.82951 10.4848 3.88686C10.5337 3.94421 10.5988 3.98546 10.6716 4.00523C11.3702 4.19527 11.8581 4.83211 11.8581 5.55389C11.8581 6.43856 11.1383 7.15828 10.2537 7.15828H2.35439C1.46972 7.15828 0.75 6.43856 0.75 5.55389ZM19.4201 21.8685V22.5H7.11431V21.8685C7.11431 21.5261 7.5195 21.2369 7.99908 21.2369H18.5353C19.0149 21.237 19.4201 21.5262 19.4201 21.8685ZM15.9118 20.487H10.6226V18.89H15.9118V20.487ZM22.5 17.0378C22.5 17.6455 22.0056 18.14 21.3978 18.14H5.13661C4.52887 18.14 4.03439 17.6455 4.03439 17.0378V7.90828H4.51969V16.0266C4.51969 16.1261 4.5592 16.2214 4.62952 16.2918C4.69985 16.3621 4.79523 16.4016 4.89469 16.4016H21.6397C21.7392 16.4016 21.8345 16.3621 21.9049 16.2918C21.9752 16.2214 22.0147 16.1261 22.0147 16.0266V6.83813C22.0147 6.61767 21.891 6.42558 21.7094 6.32756L21.5859 6.04969C21.6268 5.9733 21.6649 5.89545 21.7001 5.8163C22.1588 5.95045 22.5 6.38119 22.5 6.8752V17.0378ZM16.4548 9.27305L13.4547 7.54092C13.3977 7.50801 13.333 7.49068 13.2672 7.49068C13.2014 7.49068 13.1367 7.50801 13.0797 7.54092L10.0796 9.27305C10.0226 9.30596 9.97528 9.3533 9.94237 9.4103C9.90946 9.46731 9.89213 9.53197 9.89213 9.5978V13.062C9.89213 13.1279 9.90946 13.1925 9.94237 13.2495C9.97528 13.3065 10.0226 13.3539 10.0796 13.3868L13.0797 15.1189C13.1367 15.1519 13.2014 15.1692 13.2672 15.1692C13.3331 15.1692 13.3977 15.1519 13.4547 15.1189L16.4548 13.3868C16.5118 13.3539 16.5592 13.3066 16.5921 13.2495C16.625 13.1925 16.6423 13.1279 16.6423 13.062V9.5978C16.6423 9.53197 16.625 9.46731 16.5921 9.41031C16.5592 9.3533 16.5118 9.30596 16.4548 9.27305ZM13.2672 8.2987L15.5174 9.59784L13.2672 10.8969L11.0171 9.59784L13.2672 8.2987ZM10.6421 10.2473L12.8922 11.5464V14.1447L10.6421 12.8455V10.2473ZM13.6422 14.1447V11.5464L15.8923 10.2473V12.8455L13.6422 14.1447ZM5.14261 1.57036C5.14261 1.66982 5.1031 1.7652 5.03277 1.83552C4.96245 1.90585 4.86707 1.94536 4.76761 1.94536C3.88922 1.94536 3.17456 2.65997 3.17456 3.53836C3.17456 3.63782 3.13505 3.7332 3.06473 3.80352C2.9944 3.87385 2.89902 3.91336 2.79956 3.91336C2.70011 3.91336 2.60472 3.87385 2.5344 3.80352C2.46407 3.7332 2.42456 3.63782 2.42456 3.53836C2.42456 2.24639 3.47564 1.19536 4.76761 1.19536C4.86707 1.19536 4.96245 1.23487 5.03277 1.30519C5.1031 1.37552 5.14261 1.4709 5.14261 1.57036ZM18.4406 6.48844C19.6182 6.48844 20.5762 5.53045 20.5762 4.35291C20.5762 3.17536 19.6181 2.21733 18.4406 2.21733C17.2631 2.21733 16.3051 3.17536 16.3051 4.35291C16.3051 5.53045 17.2631 6.48844 18.4406 6.48844ZM18.4406 2.96738C19.2046 2.96738 19.8262 3.58894 19.8262 4.35295C19.8262 5.11692 19.2046 5.73848 18.4406 5.73848C17.6767 5.73848 17.0551 5.11697 17.0551 4.35295C17.0551 3.58889 17.6767 2.96738 18.4406 2.96738Z" fill="white"/>
</svg>
