<svg width="24" height="24" viewBox="0 0 24 24" fill="none" xmlns="http://www.w3.org/2000/svg">
<g clip-path="url(#clip0_700_575)">
<path d="M4.32704 0.28125H2.1151C1.10401 0.28125 0.281494 1.10377 0.281494 2.11486V4.25363C0.281494 5.26495 1.1042 6.08766 2.11553 6.08766H4.32662C5.33795 6.08766 6.16065 5.26495 6.16065 4.25363V2.11486C6.16065 1.10377 5.33818 0.28125 4.32704 0.28125ZM4.32662 0.740812C5.08449 0.740812 5.70113 1.35745 5.70113 2.11533V2.77359C5.3649 2.39316 4.87346 2.15283 4.32709 2.15283H2.11515C1.56878 2.15283 1.07734 2.39316 0.741104 2.77359V2.11528C0.741104 1.35741 1.35774 0.740766 2.11562 0.740766H4.32662V0.740812ZM5.70113 4.25363C5.70113 5.0115 5.08449 5.62814 4.32662 5.62814H2.11557C1.3577 5.62814 0.741057 5.0115 0.741057 4.25363V3.98639C0.741057 3.22875 1.35746 2.61234 2.1151 2.61234H4.32704C5.08468 2.61234 5.70109 3.22875 5.70109 3.98639L5.70113 4.25363Z" fill="white"/>
<path d="M2.61777 3.73364C2.61777 3.6727 2.59356 3.61425 2.55046 3.57116C2.50737 3.52807 2.44893 3.50386 2.38798 3.50386C2.32704 3.50386 2.2686 3.52807 2.2255 3.57116C2.18241 3.61425 2.1582 3.6727 2.1582 3.73364V3.86006C2.1582 3.921 2.18241 3.97945 2.2255 4.02254C2.2686 4.06563 2.32704 4.08984 2.38798 4.08984C2.44893 4.08984 2.50737 4.06563 2.55046 4.02254C2.59356 3.97945 2.61777 3.921 2.61777 3.86006V3.73364ZM4.0542 3.50386C3.99326 3.50386 3.93482 3.52807 3.89172 3.57116C3.84863 3.61425 3.82442 3.6727 3.82442 3.73364V3.86006C3.82442 3.921 3.84863 3.97945 3.89172 4.02254C3.93482 4.06563 3.99326 4.08984 4.0542 4.08984C4.11514 4.08984 4.17359 4.06563 4.21668 4.02254C4.25978 3.97945 4.28398 3.921 4.28398 3.86006V3.73364C4.28397 3.6727 4.25976 3.61426 4.21667 3.57117C4.17358 3.52808 4.11514 3.50387 4.0542 3.50386ZM3.61719 4.48233H2.82486C2.76392 4.48233 2.70547 4.50654 2.66238 4.54963C2.61929 4.59272 2.59508 4.65117 2.59508 4.71211C2.59508 4.77305 2.61929 4.8315 2.66238 4.87459C2.70547 4.91768 2.76392 4.94189 2.82486 4.94189H3.61719C3.67813 4.94189 3.73658 4.91768 3.77967 4.87459C3.82276 4.8315 3.84697 4.77305 3.84697 4.71211C3.84697 4.65117 3.82276 4.59272 3.77967 4.54963C3.73658 4.50654 3.67813 4.48233 3.61719 4.48233ZM23.7185 2.11533V2.11486C23.7185 1.10377 22.896 0.28125 21.8849 0.28125H19.673C18.6619 0.28125 17.8394 1.10377 17.8394 2.11486V4.25363C17.8394 5.26495 18.6621 6.08766 19.6734 6.08766H21.8844C22.8958 6.08766 23.7185 5.26495 23.7185 4.25363C23.7185 4.2097 23.7185 2.05181 23.7185 2.11533ZM21.8845 0.740859C22.6423 0.740859 23.259 1.3575 23.259 2.11537V2.77364C22.9228 2.3932 22.4313 2.15287 21.8849 2.15287H19.673C19.1266 2.15287 18.6352 2.3932 18.299 2.77364V2.11533C18.299 1.35745 18.9156 0.740812 19.6735 0.740812H21.8845V0.740859ZM23.259 4.25367C23.259 5.01155 22.6423 5.62819 21.8845 5.62819H19.6735C18.9156 5.62819 18.299 5.01155 18.299 4.25367V3.98644C18.299 3.2288 18.9154 2.61239 19.673 2.61239H21.8849C22.6426 2.61239 23.259 3.2288 23.259 3.98644V4.25367Z" fill="white"/>
<path d="M20.1756 3.73369C20.1756 3.67275 20.1514 3.6143 20.1083 3.57121C20.0652 3.52812 20.0068 3.50391 19.9458 3.50391C19.8849 3.50391 19.8265 3.52812 19.7834 3.57121C19.7403 3.6143 19.7161 3.67275 19.7161 3.73369V3.86011C19.7161 3.92105 19.7403 3.9795 19.7834 4.02259C19.8265 4.06568 19.8849 4.08989 19.9458 4.08989C20.0068 4.08989 20.0652 4.06568 20.1083 4.02259C20.1514 3.9795 20.1756 3.92105 20.1756 3.86011V3.73369ZM21.6121 3.50391C21.5511 3.50391 21.4927 3.52812 21.4496 3.57121C21.4065 3.6143 21.3823 3.67275 21.3823 3.73369V3.86011C21.3823 3.92105 21.4065 3.9795 21.4496 4.02259C21.4927 4.06568 21.5511 4.08989 21.6121 4.08989C21.673 4.08989 21.7314 4.06568 21.7745 4.02259C21.8176 3.9795 21.8418 3.92105 21.8418 3.86011V3.73369C21.8418 3.67275 21.8176 3.6143 21.7745 3.57121C21.7314 3.52812 21.673 3.50391 21.6121 3.50391ZM21.1752 4.48238H20.3829C20.3219 4.48238 20.2635 4.50658 20.2204 4.54968C20.1773 4.59277 20.1531 4.65121 20.1531 4.71216C20.1531 4.7731 20.1773 4.83154 20.2204 4.87464C20.2635 4.91773 20.3219 4.94194 20.3829 4.94194H21.1752C21.2361 4.94194 21.2946 4.91773 21.3377 4.87464C21.3808 4.83154 21.405 4.7731 21.405 4.71216C21.405 4.65121 21.3808 4.59277 21.3377 4.54968C21.2946 4.50658 21.2361 4.48238 21.1752 4.48238ZM0.281494 19.746V21.8844C0.281494 22.8958 1.1042 23.7184 2.11553 23.7184H4.32657C5.3379 23.7184 6.1606 22.8958 6.1606 21.8844V19.7455C6.1606 18.7274 5.32459 17.9118 4.32657 17.9118H2.11553C1.11845 17.9118 0.281494 18.7262 0.281494 19.7455V19.746ZM2.1151 18.3716H4.32704C5.07263 18.3716 5.70109 18.9806 5.70109 19.746V20.4041C5.36485 20.0238 4.87342 19.7835 4.32704 19.7835H2.1151C1.56873 19.7835 1.07729 20.0238 0.741057 20.4041V19.746C0.741057 18.9794 1.37073 18.3716 2.1151 18.3716ZM5.70109 21.8844C5.70109 22.6422 5.08445 23.2588 4.32657 23.2588H2.11553C1.35765 23.2588 0.74101 22.6422 0.74101 21.8844V21.617C0.74101 20.8594 1.35742 20.243 2.11506 20.243H4.32699C5.08463 20.243 5.70104 20.8594 5.70104 21.617L5.70109 21.8844Z" fill="white"/>
<path d="M2.61777 21.3641C2.61777 21.2371 2.51488 21.1343 2.38798 21.1343C2.26109 21.1343 2.1582 21.2371 2.1582 21.3641V21.4904C2.1582 21.6174 2.26109 21.7202 2.38798 21.7202C2.51488 21.7202 2.61777 21.6175 2.61777 21.4904V21.3641ZM4.0542 21.1343C4.02402 21.1343 3.99414 21.1402 3.96626 21.1518C3.93837 21.1633 3.91304 21.1803 3.8917 21.2016C3.87036 21.2229 3.85343 21.2483 3.84189 21.2762C3.83034 21.304 3.82441 21.3339 3.82442 21.3641V21.4904C3.82442 21.6174 3.92731 21.7202 4.0542 21.7202C4.18109 21.7202 4.28398 21.6175 4.28398 21.4904V21.3641C4.28399 21.3339 4.27805 21.304 4.26651 21.2762C4.25496 21.2483 4.23803 21.2229 4.2167 21.2016C4.19536 21.1803 4.17002 21.1633 4.14214 21.1518C4.11426 21.1403 4.08438 21.1343 4.0542 21.1343ZM3.61719 22.1127H2.82486C2.79468 22.1126 2.7648 22.1186 2.73691 22.1301C2.70903 22.1417 2.68369 22.1586 2.66235 22.1799C2.64101 22.2013 2.62409 22.2266 2.61254 22.2545C2.601 22.2824 2.59507 22.3123 2.59508 22.3424C2.59507 22.3726 2.60101 22.4025 2.61256 22.4304C2.6241 22.4583 2.64103 22.4836 2.66237 22.5049C2.6837 22.5263 2.70904 22.5432 2.73692 22.5547C2.7648 22.5663 2.79468 22.5722 2.82486 22.5722H3.61719C3.74408 22.5722 3.84697 22.4695 3.84697 22.3424C3.84697 22.2154 3.74408 22.1127 3.61719 22.1127ZM23.7185 21.8842V19.7453C23.7185 18.7272 22.8825 17.9116 21.8845 17.9116H19.6735C18.6764 17.9116 17.8394 18.726 17.8394 19.7453V21.8842C17.8394 22.8956 18.6621 23.7182 19.6735 23.7182H21.8845C22.8958 23.7182 23.7185 22.8956 23.7185 21.8842ZM19.673 18.3714H21.885C22.6306 18.3714 23.259 18.9804 23.259 19.7458V20.4039C22.9228 20.0236 22.4314 19.7832 21.885 19.7832H19.673C19.1267 19.7832 18.6352 20.0236 18.299 20.4039V19.7458C18.299 18.9792 18.9287 18.3714 19.673 18.3714ZM18.299 21.8842V21.6168C18.299 20.8592 18.9154 20.2428 19.673 20.2428H21.8849C22.6426 20.2428 23.259 20.8592 23.259 21.6168V21.8842C23.259 22.642 22.6423 23.2586 21.8845 23.2586H19.6735C18.9156 23.2586 18.299 22.642 18.299 21.8842Z" fill="white"/>
<path d="M20.1758 21.364C20.1758 21.237 20.0729 21.1342 19.946 21.1342C19.8191 21.1342 19.7162 21.237 19.7162 21.364V21.4904C19.7162 21.6173 19.8191 21.7201 19.946 21.7201C20.0729 21.7201 20.1758 21.6174 20.1758 21.4904V21.364ZM21.6122 21.1342C21.582 21.1342 21.5521 21.1402 21.5243 21.1517C21.4964 21.1633 21.471 21.1802 21.4497 21.2015C21.4284 21.2229 21.4114 21.2482 21.3999 21.2761C21.3884 21.304 21.3824 21.3338 21.3824 21.364V21.4904C21.3824 21.6173 21.4853 21.7201 21.6122 21.7201C21.7391 21.7201 21.842 21.6174 21.842 21.4904V21.364C21.842 21.3338 21.8361 21.304 21.8245 21.2761C21.813 21.2482 21.7961 21.2229 21.7747 21.2015C21.7534 21.1802 21.728 21.1633 21.7002 21.1517C21.6723 21.1402 21.6424 21.1342 21.6122 21.1342ZM21.1753 22.1126H20.383C20.3528 22.1126 20.3229 22.1185 20.2951 22.13C20.2672 22.1416 20.2418 22.1585 20.2205 22.1798C20.1992 22.2012 20.1822 22.2265 20.1707 22.2544C20.1591 22.2823 20.1532 22.3122 20.1532 22.3424C20.1532 22.3725 20.1592 22.4024 20.1707 22.4303C20.1822 22.4582 20.1992 22.4835 20.2205 22.5048C20.2418 22.5262 20.2672 22.5431 20.2951 22.5547C20.3229 22.5662 20.3528 22.5721 20.383 22.5721H21.1753C21.3022 22.5721 21.4051 22.4694 21.4051 22.3424C21.4051 22.2153 21.3022 22.1126 21.1753 22.1126ZM3.15532 7.21748C3.09438 7.21748 3.03593 7.24169 2.99284 7.28478C2.94975 7.32787 2.92554 7.38632 2.92554 7.44726V16.552C2.92554 16.679 3.02843 16.7818 3.15532 16.7818C3.28221 16.7818 3.3851 16.679 3.3851 16.552V12.2294H5.08497C5.14592 12.2294 5.20436 12.2051 5.24745 12.1621C5.29055 12.119 5.31476 12.0605 5.31476 11.9996C5.31476 11.9386 5.29055 11.8802 5.24745 11.8371C5.20436 11.794 5.14592 11.7698 5.08497 11.7698H3.38505V7.44726C3.38505 7.38633 3.36085 7.32789 3.31777 7.2848C3.27469 7.24171 3.21625 7.21749 3.15532 7.21748ZM20.845 16.7818C20.8752 16.7818 20.9051 16.7758 20.933 16.7643C20.9608 16.7528 20.9862 16.7358 21.0075 16.7145C21.0289 16.6931 21.0458 16.6678 21.0573 16.6399C21.0689 16.612 21.0748 16.5822 21.0748 16.552V7.44726C21.0748 7.38632 21.0506 7.32787 21.0075 7.28478C20.9644 7.24169 20.9059 7.21748 20.845 7.21748C20.7841 7.21748 20.7256 7.24169 20.6825 7.28478C20.6394 7.32787 20.6152 7.38632 20.6152 7.44726V11.7698H18.9153C18.8544 11.7698 18.796 11.794 18.7529 11.8371C18.7098 11.8802 18.6856 11.9386 18.6856 11.9996C18.6856 12.0605 18.7098 12.119 18.7529 12.1621C18.796 12.2051 18.8544 12.2294 18.9153 12.2294H20.6152V16.552C20.6152 16.5822 20.6212 16.612 20.6327 16.6399C20.6442 16.6678 20.6612 16.6931 20.6825 16.7145C20.7039 16.7358 20.7292 16.7527 20.7571 16.7643C20.7849 16.7758 20.8148 16.7818 20.845 16.7818ZM11.9936 18.0413C11.9959 18.0413 11.9979 18.0426 12.0002 18.0426C12.0024 18.0426 12.0042 18.0414 12.0063 18.0413C15.335 18.0386 18.0421 15.3289 18.0421 11.9984C18.0421 8.66601 15.3262 5.96057 12.0063 5.95781C12.0041 5.95776 12.0024 5.95654 12.0002 5.95654C11.9979 5.95654 11.9959 5.95781 11.9936 5.95786C8.63524 5.96207 5.95826 8.70056 5.95826 11.9984C5.95826 15.3281 8.66496 18.0371 11.9936 18.0413ZM7.14916 9.24229H8.84135C8.61021 10.0054 8.47183 10.8621 8.45182 11.7698H6.42358C6.45907 10.8813 6.70794 10.0143 7.14916 9.24229ZM17.5767 11.7698H15.5485C15.5284 10.8621 15.3902 10.0054 15.1591 9.24229H16.8514C17.2925 10.0144 17.5413 10.8813 17.5767 11.7698ZM16.8508 14.7569H15.1587C15.3899 13.9937 15.5283 13.1371 15.5485 12.2294H17.5766C17.5409 13.1179 17.292 13.9847 16.8508 14.7569ZM11.7704 15.2164V17.5648C10.8236 17.4382 9.99452 16.5396 9.47562 15.2164H11.7704ZM9.31343 14.7569C9.07582 14.0054 8.93201 13.1458 8.91124 12.2294H11.7704V14.7569H9.31343ZM12.2299 17.565V15.2164H14.5249C14.006 16.5402 13.1768 17.439 12.2299 17.565ZM12.2299 14.7569V12.2294H15.0891C15.0684 13.1458 14.9246 14.0054 14.6871 14.7569H12.2299ZM15.0891 11.7698H12.2299V9.24229H14.6875C14.9249 9.99379 15.0686 10.8534 15.0891 11.7698ZM12.2299 8.78273V6.43415C13.177 6.56015 14.0064 7.45903 14.5253 8.78273H12.2299ZM11.7704 6.43434V8.78273H9.47529C9.99415 7.45959 10.8234 6.56095 11.7704 6.43434ZM11.7704 9.24229V11.7698H8.91119C8.93177 10.8534 9.07549 9.99375 9.31305 9.24229H11.7704ZM8.45186 12.2294C8.47207 13.1371 8.61054 13.9938 8.84172 14.7569H7.14977C6.70851 13.9848 6.45947 13.1179 6.42368 12.2294H8.45186ZM7.44265 15.2164H8.99618C9.32393 16.0988 9.78161 16.828 10.3239 17.3241C9.14819 16.9529 8.14038 16.202 7.44265 15.2164ZM13.6766 17.3246C14.2188 16.8284 14.6766 16.0991 15.0043 15.2164H16.5581C15.8603 16.2024 14.8524 16.9536 13.6766 17.3246ZM16.5588 8.78273H15.0048C14.6771 7.90007 14.2193 7.1707 13.6769 6.67457C14.853 7.04554 15.861 7.79681 16.5588 8.78273ZM10.3235 6.67509C9.78119 7.17121 9.32346 7.9004 8.99576 8.78273H7.44194C8.13972 7.79723 9.14763 7.0462 10.3235 6.67509Z" fill="white"/>
</g>
<defs>
<clipPath id="clip0_700_575">
<rect width="24" height="24" fill="white"/>
</clipPath>
</defs>
</svg>
