<svg width="24" height="24" viewBox="0 0 24 24" fill="none" xmlns="http://www.w3.org/2000/svg">
<g clip-path="url(#clip0_695_508)">
<path d="M7.9745 18.2581C6.15632 18.2581 4.44723 18.0726 3.15995 17.7381C3.0698 17.715 2.97419 17.7284 2.89385 17.7754C2.81352 17.8224 2.75495 17.8991 2.73086 17.989C2.67996 18.1781 2.79632 18.3708 2.98177 18.4181C4.32359 18.7672 6.09814 18.9599 7.9745 18.9599C8.06757 18.9599 8.15682 18.9229 8.22263 18.8571C8.28844 18.7913 8.32541 18.7021 8.32541 18.609C8.32541 18.5159 8.28844 18.4267 8.22263 18.3609C8.15682 18.2951 8.06757 18.2581 7.9745 18.2581Z" fill="white"/>
<path d="M19.9927 16.2981C19.4727 16.2981 19.1527 15.9636 19.0218 15.6472C18.8909 15.3345 18.8836 14.869 19.2509 14.5018C19.3159 14.4344 19.3523 14.3445 19.3523 14.2509C19.3523 14.1572 19.3159 14.0673 19.2509 13.9999L18.0545 12.8036C18.0218 12.7708 17.983 12.7447 17.9403 12.7269C17.8975 12.7091 17.8517 12.7 17.8054 12.7C17.7591 12.7 17.7133 12.7091 17.6705 12.7269C17.6278 12.7447 17.589 12.7708 17.5563 12.8036C17.189 13.1709 16.7236 13.1599 16.4109 13.0327C16.0981 12.9018 15.7599 12.5781 15.7599 12.0618C15.7599 11.9672 15.7236 11.8799 15.6581 11.8109C15.5912 11.7451 15.501 11.7085 15.4072 11.709H13.7163C13.5199 11.709 13.3636 11.8654 13.3636 12.0618C13.3636 12.5818 13.029 12.9018 12.7127 13.0327C12.3999 13.1636 11.9345 13.1709 11.5672 12.8036C11.4999 12.7385 11.4099 12.7022 11.3163 12.7022C11.2227 12.7022 11.1327 12.7385 11.0654 12.8036L9.86903 13.9999C9.73085 14.1381 9.73085 14.3599 9.86903 14.4981C9.93449 14.5636 9.9854 14.6327 10.0254 14.7018C9.39994 14.7527 8.71994 14.7854 7.97085 14.7854C3.69085 14.7854 1.35631 13.8072 1.34904 13.2981V10.8436C2.02904 11.2727 3.09813 11.5454 4.05085 11.7127C4.24358 11.7454 4.4254 11.6181 4.45813 11.4254C4.49085 11.2327 4.36358 11.0509 4.17085 11.0181C2.12358 10.6581 1.35267 10.1054 1.3454 9.83631V7.36722C2.58904 8.15631 5.29085 8.56358 7.96722 8.56358C10.6472 8.56358 13.3527 8.15631 14.5963 7.36722V9.83631C14.5963 10.3418 12.2581 11.3236 7.96722 11.3236C7.21449 11.3236 6.47631 11.2909 5.77449 11.229C5.5854 11.2109 5.41085 11.3563 5.39267 11.549C5.37449 11.7418 5.51994 11.9127 5.71267 11.9309C6.43631 11.9963 7.19631 12.029 7.96722 12.029C11.6109 12.029 15.3018 11.2763 15.3018 9.83631V2.90904C15.2981 1.46904 11.6109 0.716309 7.96722 0.716309C4.33449 0.716309 0.647217 1.46904 0.647217 2.90904V16.7672C0.647217 17.1381 0.876308 17.4727 1.33085 17.7636C1.38904 17.8036 1.45449 17.8181 1.51994 17.8181C1.63631 17.8181 1.74904 17.7599 1.81813 17.6545C1.86871 17.5759 1.88601 17.4804 1.86624 17.389C1.84646 17.2977 1.79123 17.2179 1.71267 17.1672C1.48722 17.0218 1.35267 16.8727 1.35267 16.7636V14.2945C2.59631 15.0836 5.29813 15.4909 7.97449 15.4909C8.71631 15.4909 9.45449 15.4509 10.1672 15.389C10.1527 15.4799 10.1309 15.5672 10.0981 15.6436C9.96722 15.9563 9.64358 16.2945 9.12722 16.2945C8.93085 16.2945 8.77449 16.4509 8.77449 16.6472V18.3381C8.77449 18.5345 8.93085 18.6909 9.12722 18.6909C9.64722 18.6909 9.96722 19.0254 10.0981 19.3418C10.229 19.6545 10.2363 20.1199 9.86903 20.4872C9.80398 20.5545 9.76762 20.6445 9.76762 20.7381C9.76762 20.8317 9.80398 20.9217 9.86903 20.989L11.0654 22.1854C11.2036 22.3236 11.4254 22.3236 11.5636 22.1854C11.9309 21.8181 12.3963 21.829 12.709 21.9563C13.0218 22.0872 13.3599 22.4109 13.3599 22.9272C13.3599 23.1236 13.5163 23.2799 13.7127 23.2799H15.4036C15.5999 23.2799 15.7563 23.1236 15.7563 22.9272C15.7563 22.4072 16.0909 22.0872 16.4072 21.9563C16.7199 21.8254 17.1854 21.8181 17.5527 22.1854C17.6909 22.3236 17.9127 22.3236 18.0509 22.1854L19.2472 20.989C19.3123 20.9217 19.3486 20.8317 19.3486 20.7381C19.3486 20.6445 19.3123 20.5545 19.2472 20.4872C18.8799 20.1199 18.8909 19.6545 19.0181 19.3418C19.149 19.029 19.4727 18.6909 19.989 18.6909C20.1854 18.6909 20.3418 18.5345 20.3418 18.3381V16.6472C20.3421 16.6013 20.3332 16.5558 20.3158 16.5133C20.2983 16.4708 20.2726 16.4322 20.2402 16.3997C20.2077 16.3673 20.1691 16.3416 20.1266 16.3241C20.0841 16.3067 20.0386 16.2978 19.9927 16.2981ZM7.97449 7.86176C3.69449 7.86176 1.35994 6.88358 1.35267 6.37449V3.9054C1.35631 3.90904 1.36358 3.91267 1.36722 3.91631C2.61813 4.69813 5.3054 5.10176 7.97449 5.10176C10.6545 5.10176 13.3599 4.69449 14.5999 3.9054V6.37449C14.6036 6.87995 12.2654 7.86176 7.97449 7.86176ZM7.97449 1.42176C12.2618 1.42176 14.6036 2.40358 14.6036 2.90904C14.6036 3.41449 12.2654 4.39631 7.97449 4.39631C4.06904 4.39995 1.7854 3.58176 1.41449 3.05449C1.39994 3.03631 1.3854 3.01813 1.37813 2.99994C1.37116 2.98775 1.36741 2.97399 1.36722 2.95994C1.35994 2.94176 1.35267 2.92722 1.35267 2.90904C1.35631 2.40358 3.69449 1.42176 7.97449 1.42176ZM19.6399 18.0254C19.069 18.1381 18.5999 18.5199 18.3709 19.0763C18.1381 19.6327 18.2036 20.2363 18.5272 20.7163L17.7818 21.4618C17.3018 21.1381 16.6981 21.0763 16.1418 21.3054C15.5854 21.5381 15.2036 22.0072 15.0909 22.5745H14.0363C13.9236 22.0036 13.5418 21.5345 12.9854 21.3054C12.429 21.0727 11.8254 21.1381 11.3454 21.4618L10.5999 20.7163C10.9236 20.2363 10.9854 19.6327 10.7563 19.0763C10.5236 18.5199 10.0545 18.1381 9.48722 18.0254V16.9709C10.0581 16.8581 10.5272 16.4763 10.7563 15.9199C10.9854 15.3636 10.9236 14.7599 10.5999 14.2799L11.3454 13.5345C11.8254 13.8581 12.429 13.9199 12.9854 13.6909C13.5418 13.4581 13.9236 12.989 14.0363 12.4181H15.0909C15.2036 12.989 15.5854 13.4581 16.1418 13.6872C16.6981 13.9163 17.3018 13.8545 17.7818 13.5309L18.5272 14.2763C18.2036 14.7563 18.1418 15.3599 18.3709 15.9163C18.5999 16.4727 19.0727 16.8545 19.6399 16.9672V18.0254Z" fill="white"/>
<path d="M14.5599 14.7928C13.069 14.7928 11.8545 16.0074 11.8545 17.4983C11.8545 18.9892 13.069 20.2037 14.5599 20.2037C16.0509 20.2037 17.2654 18.9892 17.2654 17.4983C17.2654 16.0074 16.0509 14.7928 14.5599 14.7928ZM14.5599 19.4983C13.4581 19.4983 12.5599 18.6001 12.5599 17.4983C12.5599 16.3965 13.4581 15.4983 14.5599 15.4983C15.6618 15.4983 16.5599 16.3965 16.5599 17.4983C16.5599 18.6001 15.6618 19.4983 14.5599 19.4983ZM22.9999 7.58192C22.7672 7.58192 22.5709 7.45101 22.4836 7.23646C22.3927 7.01828 22.4399 6.79282 22.6036 6.62555C22.7418 6.48737 22.7418 6.26555 22.6036 6.12737L21.8254 5.34919C21.6945 5.21828 21.4581 5.21828 21.3272 5.34919C21.1599 5.51646 20.9345 5.5601 20.7163 5.46919C20.4981 5.37828 20.3709 5.18555 20.3709 4.95283C20.3709 4.75646 20.2145 4.6001 20.0181 4.6001H18.9199C18.7236 4.6001 18.5672 4.75646 18.5672 4.95283C18.5672 5.18555 18.4363 5.38192 18.2218 5.46919C18.1199 5.51389 18.0067 5.52636 17.8975 5.50491C17.7883 5.48346 17.6883 5.42912 17.6109 5.34919C17.5782 5.31636 17.5394 5.29031 17.4967 5.27253C17.4539 5.25475 17.4081 5.2456 17.3618 5.2456C17.3155 5.2456 17.2696 5.25475 17.2269 5.27253C17.1841 5.29031 17.1453 5.31636 17.1127 5.34919L16.3345 6.12737C16.1963 6.26555 16.1963 6.48737 16.3345 6.62555C16.5018 6.79282 16.5454 7.02192 16.4545 7.23646C16.3636 7.45101 16.1709 7.58192 15.9381 7.58192C15.7418 7.58192 15.5854 7.73828 15.5854 7.93464V9.03283C15.5854 9.22919 15.7418 9.38555 15.9381 9.38555C16.1709 9.38555 16.3672 9.51646 16.4545 9.73101C16.5418 9.94555 16.4981 10.1746 16.3345 10.3419C16.2694 10.4092 16.2331 10.4992 16.2331 10.5928C16.2331 10.6864 16.2694 10.7764 16.3345 10.8437L17.1127 11.6219C17.2509 11.7601 17.4727 11.7601 17.6109 11.6219C17.688 11.5415 17.788 11.4869 17.8974 11.4654C18.0067 11.4439 18.12 11.4567 18.2218 11.5019C18.4399 11.5928 18.5672 11.7856 18.5672 12.0219C18.5672 12.1165 18.6036 12.2037 18.669 12.2728C18.7345 12.3383 18.8254 12.3746 18.9199 12.3746H20.0181C20.2145 12.3746 20.3709 12.2183 20.3709 12.0219C20.3709 11.7892 20.5018 11.5928 20.7163 11.5056C20.9345 11.4146 21.1599 11.4619 21.3272 11.6256C21.4581 11.7565 21.6945 11.7565 21.8254 11.6256L22.6036 10.8474C22.7418 10.7092 22.7418 10.4874 22.6036 10.3492C22.4363 10.1819 22.3927 9.95646 22.4836 9.73828C22.5745 9.5201 22.7672 9.39283 22.9999 9.39283C23.1963 9.39283 23.3527 9.23646 23.3527 9.0401V7.94192C23.3536 7.89499 23.3452 7.84834 23.3279 7.8047C23.3107 7.76106 23.2848 7.72131 23.252 7.68779C23.2191 7.65426 23.1799 7.62762 23.1366 7.60944C23.0934 7.59127 23.0469 7.58191 22.9999 7.58192ZM22.6472 8.72737C22.2799 8.82919 21.9818 9.09101 21.829 9.46192C21.6763 9.83283 21.7018 10.2292 21.8872 10.5601L21.5418 10.9056C21.2109 10.7201 20.8145 10.6946 20.4472 10.8474C20.0763 11.0001 19.8145 11.2983 19.7127 11.6656H19.2218C19.1199 11.3019 18.8581 11.0001 18.4872 10.8474C18.1163 10.6946 17.7199 10.7201 17.389 10.9056L17.0436 10.5601C17.229 10.2292 17.2545 9.83283 17.1018 9.46555C17.0332 9.28739 16.9238 9.12779 16.7823 8.99959C16.6408 8.87138 16.4713 8.77815 16.2872 8.72737V8.23646C16.6545 8.13464 16.9527 7.87282 17.1054 7.50192C17.2581 7.13101 17.2327 6.73464 17.0472 6.40373L17.3927 6.05828C17.7236 6.24373 18.1199 6.26919 18.4909 6.11646C18.6674 6.04479 18.8252 5.93386 18.9525 5.7921C19.0798 5.65034 19.1731 5.48147 19.2254 5.29828H19.7163C19.8181 5.66555 20.0799 5.96373 20.4509 6.11646C20.8218 6.26919 21.2181 6.24373 21.549 6.05828L21.8945 6.40373C21.709 6.73464 21.6836 7.13101 21.8363 7.50192C21.908 7.67843 22.0189 7.8363 22.1607 7.96357C22.3024 8.09084 22.4713 8.18416 22.6545 8.23646V8.72737H22.6472Z" fill="white"/>
<path d="M19.4691 6.6001C18.9759 6.60979 18.5062 6.8125 18.1609 7.1647C17.8155 7.51689 17.6221 7.99048 17.6221 8.48373C17.6221 8.97699 17.8155 9.45058 18.1609 9.80277C18.5062 10.155 18.9759 10.3577 19.4691 10.3674C20.5091 10.3674 21.3527 9.52373 21.3527 8.48373C21.3527 7.44373 20.5054 6.6001 19.4691 6.6001ZM19.4691 9.66192C19.1566 9.66192 18.8569 9.53779 18.636 9.31683C18.415 9.09588 18.2909 8.79621 18.2909 8.48373C18.2909 8.17126 18.415 7.87159 18.636 7.65063C18.8569 7.42968 19.1566 7.30555 19.4691 7.30555C19.7815 7.30555 20.0812 7.42968 20.3022 7.65063C20.5231 7.87159 20.6472 8.17126 20.6472 8.48373C20.6472 8.79621 20.5231 9.09588 20.3022 9.31683C20.0812 9.53779 19.7815 9.66192 19.4691 9.66192Z" fill="white"/>
</g>
<defs>
<clipPath id="clip0_695_508">
<rect width="24" height="24" fill="white"/>
</clipPath>
</defs>
</svg>
