<svg width="24" height="24" viewBox="0 0 24 24" fill="none" xmlns="http://www.w3.org/2000/svg">
<g clip-path="url(#clip0_695_427)">
<path d="M21.8182 18.8366H2.18183C1.16365 18.8366 0.363647 18.0366 0.363647 17.0184V5.78205C0.363647 4.76387 1.16365 3.96387 2.18183 3.96387H2.32728C2.54547 3.96387 2.69092 4.10932 2.69092 4.3275C2.69092 4.54569 2.54547 4.69114 2.32728 4.69114H2.18183C1.56365 4.69114 1.09092 5.16387 1.09092 5.78205V17.0184C1.09092 17.6366 1.56365 18.1093 2.18183 18.1093H21.8182C22.4364 18.1093 22.9091 17.6366 22.9091 17.0184V5.78205C22.9091 5.16387 22.4364 4.69114 21.8182 4.69114H10.6182C10.4 4.69114 10.2546 4.54569 10.2546 4.3275C10.2546 4.10932 10.4 3.96387 10.6182 3.96387H21.8182C22.8364 3.96387 23.6364 4.76387 23.6364 5.78205V17.0184C23.6364 18.0366 22.8364 18.8366 21.8182 18.8366Z" fill="white"/>
<path d="M23.2727 16.6184H0.727284C0.509102 16.6184 0.363647 16.4729 0.363647 16.2547C0.363647 16.0366 0.509102 15.8911 0.727284 15.8911H23.2727C23.4909 15.8911 23.6364 16.0366 23.6364 16.2547C23.6364 16.4729 23.4909 16.6184 23.2727 16.6184ZM14.5091 21.2002H9.49092C9.27274 21.2002 9.12728 21.0547 9.12728 20.8366V18.4729C9.12728 18.2547 9.27274 18.1093 9.49092 18.1093H14.5091C14.7273 18.1093 14.8727 18.2547 14.8727 18.4729V20.8366C14.8727 21.0547 14.7273 21.2002 14.5091 21.2002ZM9.85456 20.4729H14.1455V18.8366H9.85456V20.4729Z" fill="white"/>
<path d="M16.0728 23.6H7.92729C7.4182 23.6 7.0182 23.2 7.0182 22.6909V21.3818C7.0182 20.8728 7.4182 20.4728 7.92729 20.4728H16.0728C16.5818 20.4728 16.9818 20.8728 16.9818 21.3818V22.6909C16.9818 23.2 16.5818 23.6 16.0728 23.6ZM7.92729 21.2C7.85457 21.2 7.74548 21.3091 7.74548 21.3818V22.6909C7.74548 22.7637 7.78184 22.8728 7.92729 22.8728H16.0728C16.1455 22.8728 16.2546 22.8364 16.2546 22.6909V21.3818C16.2546 21.3091 16.2182 21.2 16.0728 21.2H7.92729ZM12.5455 17.7455H11.4546C11.2364 17.7455 11.0909 17.6 11.0909 17.3818C11.0909 17.1637 11.2364 17.0182 11.4546 17.0182H12.5455C12.7637 17.0182 12.9091 17.1637 12.9091 17.3818C12.9091 17.6 12.7637 17.7455 12.5455 17.7455ZM6.47275 9.27275C6.10911 9.27275 5.78184 9.23639 5.45457 9.16366C5.27275 9.1273 5.16366 8.94548 5.20002 8.76366C5.27275 8.36366 5.16366 8.14548 5.05457 8.07275C4.98184 8.03639 4.76366 8.14548 4.54548 8.43639C4.43639 8.58185 4.2182 8.61821 4.07275 8.54548C3.52729 8.18185 3.09093 7.70912 2.76366 7.16366C2.65457 7.01821 2.72729 6.80003 2.87275 6.69094C3.20002 6.43639 3.27275 6.21821 3.27275 6.14548C3.23639 6.07275 3.0182 5.96366 2.6182 5.96366C2.43639 5.96366 2.25457 5.85457 2.2182 5.67275C2.10911 5.01821 2.10911 4.36366 2.25457 3.78185C2.29093 3.60003 2.47275 3.49094 2.65457 3.5273C2.98184 3.5273 3.23639 3.41821 3.27275 3.34548C3.30911 3.27275 3.20002 3.01821 2.90911 2.80003C2.76366 2.69094 2.72729 2.47275 2.83639 2.3273C3.20002 1.78185 3.67275 1.34548 4.2182 1.01821C4.36366 0.909118 4.58184 0.981845 4.69093 1.1273C4.90911 1.45457 5.16366 1.5273 5.23639 1.5273C5.30911 1.45457 5.45457 1.20003 5.4182 0.800027C5.4182 0.618209 5.52729 0.436391 5.70911 0.400027C6.36366 0.290936 7.0182 0.290936 7.60002 0.436391C7.78184 0.472754 7.89093 0.654572 7.85457 0.836391C7.78184 1.23639 7.89093 1.45457 8.00002 1.5273C8.07275 1.56366 8.29093 1.45457 8.50911 1.16366C8.6182 1.01821 8.83639 0.981845 8.98184 1.05457C9.52729 1.41821 9.96366 1.89094 10.2909 2.43639C10.4 2.58185 10.3273 2.80003 10.1818 2.90912C9.85457 3.16366 9.78184 3.38185 9.78184 3.45457C9.8182 3.5273 10.0364 3.63639 10.4 3.60003C10.5818 3.56366 10.7637 3.70912 10.8 3.89094C10.9091 4.54548 10.9091 5.20003 10.7637 5.78185C10.7273 5.96366 10.5455 6.07275 10.3637 6.03639C9.96366 5.96366 9.74548 6.07275 9.67275 6.18185C9.60002 6.36366 9.8182 6.61821 10.0364 6.76366C10.1818 6.87275 10.2182 7.09094 10.1455 7.23639C9.78184 7.78185 9.30911 8.21821 8.76366 8.54548C8.6182 8.65457 8.40002 8.58185 8.29093 8.43639C8.10911 8.14548 7.85457 8.00003 7.70911 8.07275C7.63639 8.10912 7.52729 8.3273 7.56366 8.7273C7.56366 8.90912 7.45457 9.09094 7.27275 9.1273C7.05457 9.23639 6.76366 9.27275 6.47275 9.27275ZM5.92729 8.50912C6.25457 8.54548 6.58184 8.58185 6.90911 8.50912C6.94548 8.00003 7.20002 7.60003 7.52729 7.45457C7.92729 7.30912 8.36366 7.45457 8.72729 7.81821C9.0182 7.63639 9.23639 7.41821 9.45457 7.16366C9.09093 6.80003 8.98184 6.3273 9.12729 5.9273C9.30911 5.56366 9.70911 5.34548 10.2182 5.34548C10.2546 5.01821 10.2909 4.69094 10.2546 4.36366C9.74548 4.36366 9.34548 4.10912 9.20002 3.74548C9.05457 3.38185 9.20002 2.94548 9.56366 2.58185C9.38184 2.29094 9.16366 2.07275 8.90911 1.85457C8.54548 2.21821 8.07275 2.36366 7.70911 2.18185C7.34548 2.00003 7.16366 1.60003 7.16366 1.09094C6.83639 1.05457 6.50911 1.01821 6.18184 1.09094C6.14548 1.63639 5.92729 2.03639 5.52729 2.18185C5.16366 2.3273 4.72729 2.18185 4.36366 1.81821C4.07275 2.00003 3.85457 2.21821 3.63639 2.47275C4.00002 2.83639 4.14548 3.30912 3.96366 3.67275C3.78184 4.03639 3.38184 4.21821 2.87275 4.21821C2.83639 4.54548 2.80002 4.87275 2.87275 5.20003C3.38184 5.23639 3.78184 5.45457 3.92729 5.81821C4.07275 6.18185 3.92729 6.61821 3.56366 6.98185C3.74548 7.27275 3.96366 7.49094 4.2182 7.70912C4.58184 7.34548 5.05457 7.20003 5.4182 7.38184C5.70911 7.60003 5.92729 8.00003 5.92729 8.50912Z" fill="white"/>
<path d="M6.50912 7.27263C5.86295 7.27263 5.24326 7.01594 4.78635 6.55903C4.32944 6.10213 4.07275 5.48243 4.07275 4.83627C4.07275 4.1901 4.32944 3.5704 4.78635 3.1135C5.24326 2.65659 5.86295 2.3999 6.50912 2.3999C7.15528 2.3999 7.77498 2.65659 8.23189 3.1135C8.68879 3.5704 8.94548 4.1901 8.94548 4.83627C8.94548 5.48243 8.68879 6.10213 8.23189 6.55903C7.77498 7.01594 7.15528 7.27263 6.50912 7.27263ZM6.50912 3.12718C5.56366 3.12718 4.80003 3.89081 4.80003 4.83627C4.80003 5.78172 5.56366 6.54536 6.50912 6.54536C7.45457 6.54536 8.21821 5.78172 8.21821 4.83627C8.21821 3.89081 7.45457 3.12718 6.50912 3.12718ZM20.8 14.9817H13.1273C12.4 14.9817 11.8546 14.4363 11.8546 13.709V7.12718C11.8546 6.3999 12.4 5.85445 13.1273 5.85445H20.8364C21.5637 5.85445 22.1091 6.3999 22.1091 7.12718V13.7454C22.0728 14.4363 21.4909 14.9817 20.8 14.9817ZM13.1273 6.58172C12.8364 6.58172 12.5818 6.83627 12.5818 7.12718V13.709C12.5818 13.9999 12.8364 14.2544 13.1273 14.2544H20.8C21.0909 14.2544 21.3455 14.0363 21.3818 13.709V7.12718C21.3818 6.83627 21.1273 6.58172 20.8364 6.58172H13.1273Z" fill="white"/>
<path d="M21.7091 9.01809H12.2182C12 9.01809 11.8546 8.87264 11.8546 8.65446C11.8546 8.43627 12 8.29082 12.2182 8.29082H21.7091C21.9273 8.29082 22.0727 8.43627 22.0727 8.65446C22.0727 8.87264 21.9273 9.01809 21.7091 9.01809ZM17.3818 7.81809H13.4546C13.2364 7.81809 13.0909 7.67264 13.0909 7.45446C13.0909 7.23627 13.2364 7.09082 13.4546 7.09082H17.3818C17.6 7.09082 17.7455 7.23627 17.7455 7.45446C17.7455 7.67264 17.6 7.81809 17.3818 7.81809ZM18.9091 7.81809H18.5091C18.2909 7.81809 18.1455 7.67264 18.1455 7.45446C18.1455 7.23627 18.2909 7.09082 18.5091 7.09082H18.9091C19.1273 7.09082 19.2727 7.23627 19.2727 7.45446C19.2727 7.67264 19.1273 7.81809 18.9091 7.81809ZM20.4727 7.81809H20.0727C19.8546 7.81809 19.7091 7.67264 19.7091 7.45446C19.7091 7.23627 19.8546 7.09082 20.0727 7.09082H20.4727C20.6909 7.09082 20.8364 7.23627 20.8364 7.45446C20.8364 7.67264 20.6909 7.81809 20.4727 7.81809ZM15.6364 12.9817C15.5273 12.9817 15.4546 12.9454 15.3818 12.8726L14.3273 11.8181C14.2546 11.7454 14.2182 11.6726 14.2182 11.5635C14.2182 11.4545 14.2546 11.3817 14.3273 11.309L15.4182 10.2545C15.5636 10.109 15.7818 10.109 15.9273 10.2545C16.0727 10.3999 16.0727 10.6181 15.9273 10.7635L15.0909 11.5635L15.8909 12.3635C16.0364 12.509 16.0364 12.7272 15.8909 12.8726C15.8182 12.9454 15.7455 12.9817 15.6364 12.9817ZM18.2909 12.9817C18.1818 12.9817 18.1091 12.9454 18.0364 12.8726C17.8909 12.7272 17.8909 12.509 18.0364 12.3635L19.0909 11.309C19.2364 11.1635 19.4546 11.1635 19.6 11.309C19.7455 11.4545 19.7455 11.6726 19.6 11.8181L18.5455 12.8726C18.4727 12.9454 18.4 12.9817 18.2909 12.9817Z" fill="white"/>
<path d="M19.3455 11.9271C19.2727 11.9271 19.1637 11.8907 19.0909 11.818L18 10.7635C17.8546 10.618 17.8546 10.3998 18 10.2544C18.1455 10.1089 18.3637 10.1089 18.5091 10.2544L19.6 11.3089C19.7455 11.4544 19.7455 11.6725 19.6 11.818C19.5273 11.8907 19.4546 11.9271 19.3455 11.9271ZM16.5818 13.3453H16.4727C16.2909 13.3089 16.1818 13.0907 16.2182 12.9089L16.9818 10.0725C17.0182 9.89073 17.2364 9.78164 17.4182 9.818C17.6 9.85437 17.7091 10.0725 17.6727 10.2544L16.9455 13.0907C16.8727 13.2362 16.7273 13.3453 16.5818 13.3453ZM9.4182 14.9816H3.60001C2.72729 14.9816 2.03638 14.2907 2.03638 13.418C2.03638 12.5453 2.72729 11.8544 3.60001 11.8544H9.4182C10.2909 11.8544 10.9818 12.5453 10.9818 13.418C10.9818 14.2907 10.2909 14.9816 9.4182 14.9816ZM3.60001 12.5816C3.16365 12.5816 2.76365 12.9816 2.76365 13.418C2.76365 13.8544 3.16365 14.2544 3.60001 14.2544H9.4182C9.85456 14.2544 10.2546 13.8544 10.2546 13.418C10.2546 12.9816 9.85456 12.5816 9.4182 12.5816H3.60001Z" fill="white"/>
<path d="M7.34548 13.782H4.10912C3.89094 13.782 3.74548 13.6365 3.74548 13.4183C3.74548 13.2001 3.89094 13.0547 4.10912 13.0547H7.34548C7.56367 13.0547 7.70912 13.2001 7.70912 13.4183C7.70912 13.6365 7.56367 13.782 7.34548 13.782Z" fill="white"/>
</g>
<defs>
<clipPath id="clip0_695_427">
<rect width="24" height="24" fill="white"/>
</clipPath>
</defs>
</svg>
