<svg width="110" height="463" viewBox="0 0 110 463" fill="none" xmlns="http://www.w3.org/2000/svg">
<path d="M100.057 462.719C100.609 462.719 101.058 462.272 101.059 461.72L101.074 452.72C101.074 452.168 100.627 451.719 100.075 451.719C99.5229 451.718 99.0745 452.165 99.0736 452.717L99.0604 460.717L91.0604 460.704C90.5081 460.703 90.0596 461.15 90.0587 461.702C90.0578 462.254 90.5048 462.703 91.0571 462.704L100.057 462.719ZM100.059 461.719L100.767 461.013C99.793 460.035 98.8274 459.058 97.8701 458.08L97.1555 458.779L96.4408 459.479C97.4023 460.461 98.3722 461.443 99.3504 462.424L100.059 461.719ZM91.4988 452.893L92.2261 452.207C90.3779 450.248 88.5626 448.287 86.7798 446.325L86.0397 446.998L85.2996 447.67C87.0909 449.641 88.9146 451.611 90.7714 453.579L91.4988 452.893ZM80.6398 440.939L81.3928 440.281C79.5958 438.224 77.834 436.166 76.1069 434.107L75.3407 434.75L74.5746 435.393C76.3104 437.462 78.081 439.53 79.8868 441.597L80.6398 440.939ZM70.2503 428.555L71.0295 427.928C69.3154 425.798 67.638 423.666 65.9967 421.535L65.2044 422.145L64.412 422.755C66.062 424.898 67.7483 427.04 69.4712 429.182L70.2503 428.555ZM60.3252 415.661L61.1308 415.069C59.5408 412.907 57.9874 410.744 56.4702 408.582L55.6515 409.156L54.8329 409.73C56.3588 411.905 57.9208 414.08 59.5196 416.254L60.3252 415.661ZM51.0237 402.393L51.8556 401.838C50.356 399.59 48.8948 397.341 47.4713 395.094L46.6264 395.629L45.7816 396.164C47.2136 398.425 48.6835 400.686 50.1918 402.948L51.0237 402.393ZM42.3777 388.734L43.2354 388.22C41.8352 385.884 40.4751 383.549 39.1545 381.214L38.2841 381.706L37.4136 382.198C38.7426 384.548 40.1111 386.898 41.52 389.248L42.3777 388.734ZM34.4265 374.679L35.3091 374.209C34.0216 371.791 32.7758 369.375 31.571 366.959L30.6762 367.405L29.7813 367.852C30.9941 370.283 32.248 372.716 33.5438 375.149L34.4265 374.679ZM27.1723 360.139L28.0788 359.717C26.9321 357.255 25.8274 354.795 24.7637 352.337L23.8459 352.734L22.9282 353.132C23.9991 355.606 25.1114 358.083 26.2658 360.562L27.1723 360.139ZM20.7302 345.25L21.6586 344.879C20.6562 342.372 19.6959 339.868 18.7768 337.367L17.8382 337.712L16.8996 338.057C17.8252 340.576 18.7923 343.097 19.8017 345.621L20.7302 345.25ZM15.1423 330.036L16.0905 329.719C15.2362 327.169 14.424 324.622 13.6532 322.079L12.6962 322.369L11.7392 322.659C12.5156 325.221 13.3336 327.786 14.1941 330.354L15.1423 330.036ZM10.4466 314.532L11.4118 314.271C10.7074 311.672 10.0455 309.078 9.42505 306.488L8.45257 306.721L7.4801 306.954C8.10513 309.563 8.77194 312.176 9.48147 314.794L10.4466 314.532ZM6.67541 298.781L7.65443 298.577C7.10501 295.937 6.59802 293.302 6.13242 290.673L5.14774 290.847L4.16306 291.021C4.63213 293.67 5.14289 296.324 5.69638 298.984L6.67541 298.781ZM3.8522 282.831L4.84168 282.686C4.45119 280.016 4.10272 277.352 3.7952 274.694L2.80183 274.809L1.80846 274.924C2.11827 277.601 2.46933 280.285 2.86272 282.976L3.8522 282.831ZM1.99035 266.74L2.98671 266.655C2.75683 263.964 2.56821 261.282 2.41972 258.607L1.42126 258.663L0.422796 258.718C0.57238 261.412 0.762388 264.115 0.993977 266.825L1.99035 266.74ZM1.09197 250.564L2.09164 250.538C2.02187 247.839 1.99229 245.149 2.0017 242.468L1.00171 242.464L0.00171304 242.461C-0.00776756 245.161 0.022025 247.871 0.0923056 250.59L1.09197 250.564ZM1.14816 234.362L2.14763 234.394C2.23558 231.696 2.36235 229.008 2.5267 226.331L1.52857 226.269L0.530453 226.208C0.364944 228.904 0.237269 231.612 0.148695 234.329L1.14816 234.362ZM2.13998 218.188L3.13596 218.278C3.37763 215.59 3.65651 212.913 3.97132 210.248L2.97822 210.131L1.98513 210.014C1.66816 212.697 1.38735 215.392 1.14399 218.099L2.13998 218.188ZM4.04009 202.095L5.02958 202.24C5.41974 199.57 5.84531 196.913 6.30494 194.269L5.31972 194.097L4.3345 193.926C3.87181 196.588 3.44339 199.263 3.05059 201.951L4.04009 202.095ZM6.81477 186.129L7.79509 186.326C8.32764 183.681 8.89362 181.051 9.49163 178.435L8.51679 178.212L7.54194 177.99C6.9401 180.622 6.37047 183.269 5.83444 185.931L6.81477 186.129ZM10.426 170.329L11.3948 170.577C12.0631 167.964 12.7627 165.367 13.4921 162.786L12.5298 162.514L11.5675 162.242C10.8336 164.839 10.1296 167.452 9.45718 170.082L10.426 170.329ZM14.8334 154.733L15.7887 155.028C16.5857 152.453 17.4118 149.894 18.2655 147.354L17.3176 147.036L16.3697 146.717C15.5109 149.272 14.6799 151.846 13.8781 154.437L14.8334 154.733ZM19.9959 139.369L20.936 139.71C21.8547 137.177 22.8002 134.662 23.7708 132.168L22.8389 131.805L21.907 131.443C20.9308 133.951 19.9799 136.48 19.0558 139.028L19.9959 139.369ZM25.8734 124.264L26.7967 124.648C27.8325 122.156 28.8927 119.686 29.9755 117.237L29.061 116.832L28.1464 116.428C27.0575 118.89 25.9915 121.375 24.95 123.88L25.8734 124.264ZM32.4272 109.442L33.3326 109.866C34.4802 107.419 35.6497 104.994 36.8394 102.593L35.9434 102.149L35.0474 101.705C33.8514 104.119 32.6756 106.556 31.5218 109.017L32.4272 109.442ZM39.6215 94.9233L40.5078 95.3864C41.763 92.9842 43.0374 90.6078 44.3293 88.2578L43.453 87.7761L42.5767 87.2943C41.2781 89.6565 39.997 92.0454 38.7352 94.4602L39.6215 94.9233ZM47.4232 80.7298L48.2892 81.2298C49.6488 78.8746 51.0247 76.5481 52.4152 74.2512L51.5597 73.7334L50.7043 73.2155C49.3067 75.5242 47.9237 77.8626 46.5571 80.2299L47.4232 80.7298ZM55.8101 66.8722L56.6548 67.4075C58.1141 65.105 59.5866 62.8347 61.0703 60.5975L60.2369 60.0448L59.4035 59.4922C57.9123 61.7408 56.4322 64.0226 54.9655 66.3369L55.8101 66.8722ZM64.7818 53.3423L65.6037 53.912C67.1504 51.6808 68.7067 49.4856 70.27 47.3273L69.4601 46.7407L68.6503 46.1541C67.0789 48.3235 65.5147 50.5299 63.96 52.7725L64.7818 53.3423ZM74.3002 40.2042L75.0976 40.8077C76.736 38.6431 78.3796 36.5195 80.0256 34.4381L79.2412 33.8178L78.4569 33.1975C76.8021 35.29 75.1499 37.4247 73.5029 39.6006L74.3002 40.2042ZM84.3458 27.5052L85.1165 28.1425C86.8626 26.031 88.6084 23.968 90.3509 21.955L89.5948 21.3006L88.8387 20.6461C87.0864 22.6705 85.3308 24.7449 83.5752 26.8679L84.3458 27.5052ZM94.9495 15.2574L95.6901 15.9293C97.5316 13.8995 99.3656 11.9278 101.188 10.0155L100.465 9.32554L99.7408 8.63556C97.9065 10.5598 96.0612 12.5437 94.2088 14.5854L94.9495 15.2574ZM106.16 3.50524L106.865 4.21418C107.813 3.27135 108.757 2.34558 109.695 1.4371L109 0.718506L108.305 -8.66652e-05C107.359 0.914854 106.409 1.84706 105.455 2.7963L106.16 3.50524Z" fill="white"/>
</svg>
