<svg width="21" height="21" viewBox="0 0 21 21" fill="none" xmlns="http://www.w3.org/2000/svg">
<path fill-rule="evenodd" clip-rule="evenodd" d="M19.6514 6.54187C19.5179 7.75762 19.5018 9.16954 19.1493 10.3326C18.6225 12.0708 17.6671 13.6664 17.5394 15.424C17.4426 16.7555 17.2015 17.758 17.2443 19.1493C17.2497 19.3226 17.1143 19.4609 16.9415 19.4609H16.3022C16.5245 18.8353 16.0672 18.1929 15.4196 18.1929H13.8253V16.9785C13.8252 16.9381 13.8173 16.8981 13.8018 16.8608C13.7863 16.8235 13.7636 16.7896 13.735 16.7611C13.7063 16.7326 13.6724 16.71 13.635 16.6946C13.5977 16.6793 13.5576 16.6714 13.5172 16.6716C13.349 16.6716 13.2092 16.809 13.2092 16.9785V18.4999C13.2092 18.6694 13.349 18.8071 13.5172 18.8071H15.4196C15.5982 18.8071 15.7457 18.9536 15.7457 19.1338C15.7457 19.3141 15.5982 19.4609 15.4196 19.4609H12.6036C12.438 19.4609 12.3034 19.3253 12.3034 19.1592V15.4171C12.3034 14.6916 12.7977 14.0808 13.5095 13.9309L15.3187 13.5502C15.9865 13.4096 16.6568 12.7481 16.9726 12.1675L18.3444 9.65563C18.3625 9.62122 18.3728 9.58368 18.378 9.54514L18.7481 6.44698C18.7818 6.17031 19.0484 6.04373 19.2813 6.04373C19.5236 6.04363 19.6726 6.32304 19.6514 6.54187ZM14.7984 10.6147C14.1514 10.6147 13.6234 11.143 13.6234 11.7919C13.6234 12.4413 14.1514 12.969 14.7984 12.969C15.4481 12.969 15.9761 12.4413 15.9761 11.7919C15.9761 11.143 15.4481 10.6147 14.7984 10.6147ZM19.9853 5.75242C19.799 5.54405 19.5479 5.42943 19.2813 5.42943C18.6834 5.42943 18.202 5.82696 18.1373 6.3744L17.7749 9.41352L16.5818 11.604C16.486 10.704 15.725 10.0008 14.7985 10.0008C13.8123 10.0008 13.0074 10.8039 13.0074 11.7919C13.0074 12.3929 13.305 12.9252 13.7606 13.2504L13.3827 13.3301C12.3862 13.5397 11.69 14.3983 11.69 15.417V19.1591C11.69 19.6638 12.0989 20.0748 12.6036 20.0748H16.9415C17.4604 20.0748 17.8737 19.6477 17.8577 19.1301C17.8169 17.8069 18.0608 16.7617 18.1528 15.4672C18.2253 14.4283 18.6239 13.4403 19.0457 12.3941C19.8674 10.3496 19.9987 9.85454 20.1768 7.56418C20.2027 7.22511 20.2286 6.90547 20.2597 6.60835C20.2933 6.30168 20.1898 5.98176 19.9853 5.75242ZM7.96542 19.1591C7.96542 19.3253 7.82823 19.4609 7.66258 19.4609H4.84916C4.66796 19.4609 4.52046 19.3141 4.52046 19.1337C4.52046 18.9536 4.66801 18.8071 4.84916 18.8071H6.74895C6.78937 18.8072 6.8294 18.7993 6.86677 18.7839C6.90413 18.7685 6.9381 18.7459 6.96671 18.7174C6.99532 18.6888 7.01802 18.6549 7.03351 18.6176C7.049 18.5803 7.05697 18.5402 7.05697 18.4998V16.9785C7.05696 16.9381 7.04898 16.8981 7.03349 16.8608C7.01799 16.8235 6.99529 16.7896 6.96668 16.7611C6.93806 16.7325 6.9041 16.7099 6.86674 16.6946C6.82938 16.6792 6.78935 16.6714 6.74895 16.6715C6.58071 16.6715 6.44353 16.8089 6.44353 16.9785V18.1929H4.84916C4.18383 18.1929 3.73849 18.8617 3.96658 19.4608H3.32468C3.15226 19.4608 3.01916 19.3203 3.02444 19.1492C3.06663 17.7792 2.82371 16.7496 2.72939 15.4239C2.60521 13.6788 1.63921 12.0528 1.11692 10.3326C0.759177 9.1499 0.752793 7.75771 0.617385 6.54183C0.591993 6.31719 0.747129 6.04358 0.987513 6.04358C1.22046 6.04358 1.48705 6.17016 1.5207 6.44683L1.88823 9.54499C1.89342 9.58354 1.90633 9.62107 1.92447 9.65549L3.29367 12.1674C3.61201 12.7479 4.28238 13.4095 4.95015 13.55L6.75932 13.9308C7.46847 14.0806 7.96546 14.6915 7.96546 15.4169L7.96542 19.1591ZM5.46774 10.6147C4.8181 10.6147 4.29006 11.143 4.29006 11.7919C4.29006 12.4413 4.81806 12.969 5.46774 12.969C6.11737 12.969 6.64542 12.4413 6.64542 11.7919C6.64542 11.143 6.11742 10.6147 5.46774 10.6147ZM6.88354 13.3301L6.50564 13.2504C6.96116 12.9252 7.25881 12.3929 7.25881 11.7919C7.25881 10.8039 6.45644 10.0008 5.46774 10.0008C4.54374 10.0008 3.7802 10.704 3.68703 11.604L2.49126 9.41352L2.12891 6.3744C2.0642 5.82696 1.58276 5.42943 0.987465 5.42943C0.373833 5.42943 -0.0588869 6.02184 0.00653714 6.60835C0.147993 7.87733 0.146409 9.24432 0.529353 10.5109C0.728649 11.1712 0.979689 11.7931 1.223 12.3941C1.64487 13.4403 2.04087 14.4282 2.11594 15.4672C2.20954 16.7618 2.45142 17.8204 2.411 19.1301C2.39497 19.6489 2.80474 20.0748 3.32463 20.0748H7.66254C8.16726 20.0748 8.57876 19.6638 8.57876 19.1591V15.417C8.57886 14.3982 7.88262 13.5397 6.88354 13.3301ZM5.75506 2.24818C5.63602 2.12832 5.63602 1.93368 5.75506 1.81387C5.8741 1.69402 6.06826 1.69431 6.1899 1.81387L7.16823 2.79326C7.3597 2.98546 7.2243 3.31738 6.95084 3.31738C6.86935 3.31738 6.79118 3.28508 6.73345 3.22757L5.75506 2.24818ZM3.94067 6.19267C3.94065 6.23309 3.94861 6.27312 3.96409 6.31045C3.97957 6.34779 4.00227 6.3817 4.03088 6.41024C4.0595 6.43879 4.09347 6.4614 4.13084 6.47679C4.16822 6.49218 4.20826 6.50004 4.24868 6.49992H5.63338C5.80162 6.49992 5.9414 6.3625 5.9414 6.19267C5.9414 6.02314 5.80162 5.88547 5.63338 5.88547H4.24868C4.20827 5.88537 4.16824 5.89324 4.13088 5.90864C4.09351 5.92403 4.05956 5.94664 4.03094 5.97518C4.00233 6.00371 3.97963 6.03761 3.96414 6.07493C3.94865 6.11225 3.94067 6.15226 3.94067 6.19267ZM14.6354 5.88547C14.5947 5.88496 14.5543 5.89254 14.5166 5.90775C14.4789 5.92296 14.4446 5.94551 14.4156 5.97409C14.3867 6.00267 14.3637 6.03671 14.348 6.07423C14.3323 6.11176 14.3243 6.15203 14.3243 6.1927C14.3243 6.23337 14.3323 6.27364 14.348 6.31116C14.3637 6.34869 14.3867 6.38273 14.4156 6.41131C14.4446 6.43989 14.4789 6.46244 14.5166 6.47765C14.5543 6.49286 14.5947 6.50043 14.6354 6.49992H16.0201C16.1883 6.49992 16.3255 6.3625 16.3255 6.19267C16.3255 6.02314 16.1883 5.88547 16.0201 5.88547H14.6354ZM9.82638 1.69224V0.307249C9.82638 0.266836 9.83435 0.22682 9.84984 0.189493C9.86533 0.152165 9.88803 0.11826 9.91664 0.0897197C9.94525 0.061179 9.97921 0.0385634 10.0166 0.023168C10.0539 0.00777259 10.094 -0.000100057 10.1344 9.59939e-07C10.3026 9.59939e-07 10.4398 0.137713 10.4398 0.307249V1.69224C10.4398 1.86178 10.3026 1.99949 10.1344 1.99949C10.094 1.99959 10.0539 1.99172 10.0166 1.97632C9.97921 1.96093 9.94525 1.93831 9.91664 1.90977C9.88803 1.88123 9.86533 1.84732 9.84984 1.81C9.83435 1.77267 9.82638 1.73265 9.82638 1.69224ZM13.0979 3.22762C12.9789 3.10776 12.9789 2.91312 13.0979 2.79331L14.0789 1.81392C14.1072 1.78543 14.1409 1.76283 14.178 1.7474C14.2151 1.73197 14.2548 1.72403 14.295 1.72403C14.3352 1.72403 14.375 1.73197 14.412 1.7474C14.4491 1.76283 14.4828 1.78543 14.5111 1.81392C14.54 1.84223 14.563 1.87602 14.5786 1.91331C14.5943 1.95059 14.6023 1.99063 14.6023 2.03107C14.6023 2.07152 14.5943 2.11155 14.5786 2.14884C14.563 2.18613 14.54 2.21991 14.5111 2.24822L13.5328 3.22762C13.4135 3.34723 13.2226 3.34762 13.0979 3.22762ZM10.52 11.9122C10.52 12.1252 10.3466 12.2984 10.1343 12.2984C10.0836 12.2985 10.0334 12.2885 9.98654 12.2692C9.93967 12.2498 9.8971 12.2213 9.86126 12.1854C9.82543 12.1496 9.79704 12.1069 9.77772 12.0601C9.75841 12.0132 9.74855 11.9629 9.74871 11.9122V11.651H10.52V11.9122ZM7.75835 6.17458C7.75835 7.32883 8.73851 8.01576 9.16119 9.72773H11.105C11.5328 8.01619 12.5078 7.3213 12.5078 6.17458C12.5078 4.8649 11.444 3.79935 10.1343 3.79935C8.82471 3.79935 7.75835 4.8649 7.75835 6.17458ZM9.2259 11.0369V10.3417H11.0428V11.0369H9.2259ZM12.469 8.09765C12.8054 7.50235 13.1238 6.94071 13.1238 6.17458C13.1238 4.5264 11.783 3.18514 10.1343 3.18514C8.48564 3.18514 7.1449 4.5264 7.1449 6.17458C7.1449 6.94071 7.46324 7.50235 7.79972 8.09765C8.09478 8.62253 8.43126 9.21706 8.60986 10.0686V11.1557C8.60986 11.4288 8.83244 11.6511 9.10681 11.6511H9.13268V11.9123C9.13268 12.4638 9.58302 12.9126 10.1343 12.9126C10.6857 12.9126 11.1334 12.4638 11.1334 11.9123V11.6511H11.1619C11.4337 11.6511 11.6562 11.4288 11.6562 11.1557V10.0686C11.8374 9.21706 12.1713 8.62253 12.469 8.09765Z" fill="white"/>
</svg>
