<svg width="24" height="23" viewBox="0 0 24 23" fill="none" xmlns="http://www.w3.org/2000/svg">
<path d="M1.42942 15.4624C1.44711 15.5085 1.45552 15.5576 1.45415 15.607C1.45278 15.6564 1.44168 15.705 1.42146 15.7501C1.40125 15.7952 1.37233 15.8358 1.33637 15.8697C1.30041 15.9035 1.25811 15.93 1.21191 15.9474C1.1657 15.9649 1.1165 15.9731 1.06713 15.9715C1.01776 15.9699 0.969189 15.9585 0.924214 15.9381C0.879239 15.9177 0.838743 15.8885 0.805052 15.8524C0.771361 15.8163 0.74514 15.7739 0.727893 15.7276C-0.101138 13.5349 -0.224607 11.1714 0.370846 8.8926C0.978627 6.56647 2.28897 4.53308 4.16032 3.01222C5.33988 2.05358 6.70314 1.34361 8.15242 0.92661L7.59386 0.728423C7.50014 0.695153 7.42347 0.626015 7.38072 0.536218C7.33797 0.446421 7.33264 0.34332 7.36591 0.249595C7.38238 0.203183 7.40783 0.16047 7.4408 0.123894C7.47378 0.087318 7.51364 0.0575955 7.5581 0.0364236C7.60256 0.0152518 7.65076 0.00304519 7.69994 0.000500845C7.74913 -0.0020435 7.79833 0.00512422 7.84474 0.0215948L9.6266 0.653892C9.68196 0.673529 9.73193 0.705899 9.77249 0.748392C9.81305 0.790885 9.84305 0.842313 9.86009 0.898529C9.87712 0.954746 9.88071 1.01418 9.87057 1.07204C9.86042 1.1299 9.83682 1.18456 9.80167 1.23163L8.65188 2.77184C8.61697 2.81868 8.57158 2.8567 8.51935 2.88287C8.46712 2.90904 8.4095 2.92263 8.35108 2.92255C8.28153 2.9225 8.21336 2.90311 8.1542 2.86655C8.09503 2.82999 8.0472 2.77769 8.01605 2.7155C7.9849 2.65332 7.97166 2.5837 7.9778 2.51442C7.98395 2.44514 8.00924 2.37894 8.05085 2.3232L8.60486 1.58103C7.16106 1.95847 5.80085 2.64538 4.63338 3.59417C1.11438 6.45416 -0.173185 11.2236 1.42942 15.4624ZM19.9199 18.3507C19.8818 18.3194 19.838 18.296 19.7909 18.2817C19.7437 18.2674 19.6943 18.2626 19.6452 18.2674C19.5962 18.2723 19.5487 18.2867 19.5052 18.3099C19.4618 18.3332 19.4234 18.3647 19.3922 18.4028C18.9416 18.9513 18.4371 19.4532 17.8862 19.9008C13.6596 23.3357 7.65128 22.9879 3.8621 19.2095L4.63071 19.3515C4.67914 19.3604 4.72885 19.3597 4.77702 19.3495C4.82518 19.3392 4.87085 19.3195 4.91141 19.2916C4.95198 19.2637 4.98665 19.228 5.01344 19.1867C5.04023 19.1454 5.05862 19.0992 5.06756 19.0508C5.0765 19.0023 5.07581 18.9526 5.06553 18.9044C5.05526 18.8563 5.03559 18.8106 5.00767 18.7701C4.97974 18.7295 4.9441 18.6948 4.90278 18.668C4.86146 18.6412 4.81526 18.6228 4.76683 18.6139L2.90758 18.2706C2.84982 18.2599 2.79037 18.263 2.73401 18.2795C2.67765 18.2961 2.62596 18.3256 2.58311 18.3658C2.54025 18.4059 2.50742 18.4556 2.48727 18.5107C2.46712 18.5659 2.46021 18.625 2.4671 18.6834L2.69271 20.5922C2.69816 20.6413 2.7133 20.6889 2.73723 20.7322C2.76117 20.7755 2.79343 20.8137 2.83217 20.8444C2.8709 20.8752 2.91534 20.898 2.96293 20.9115C3.01051 20.925 3.06031 20.929 3.10943 20.9232C3.15856 20.9174 3.20605 20.9019 3.24917 20.8777C3.2923 20.8534 3.3302 20.8209 3.36069 20.782C3.39119 20.743 3.41367 20.6984 3.42685 20.6507C3.44004 20.603 3.44366 20.5532 3.4375 20.5041L3.34905 19.7557C5.20567 21.5953 7.62841 22.7244 10.2608 22.9593C10.5984 22.9894 10.9372 23.0045 11.2761 23.0046C13.8532 23.0046 16.3366 22.1266 18.3591 20.4828C18.9492 20.0034 19.4895 19.4659 19.972 18.8784C20.0032 18.8404 20.0266 18.7965 20.0409 18.7494C20.0552 18.7023 20.0601 18.6528 20.0553 18.6038C20.0504 18.5547 20.036 18.5072 20.0128 18.4637C19.9896 18.4203 19.958 18.3819 19.9199 18.3507ZM23.1637 14.124C23.0292 13.9664 22.7925 13.9476 22.635 14.082L22.1821 14.4683C22.552 12.9767 22.6162 11.4151 22.3647 9.8967C22.0472 7.97966 21.2277 6.16466 19.9952 4.64802C18.2556 2.50766 15.7993 1.08416 13.0787 0.639595C13.0299 0.631247 12.9799 0.632635 12.9317 0.643677C12.8835 0.65472 12.8379 0.6752 12.7976 0.703935C12.7573 0.732671 12.7231 0.769095 12.697 0.811108C12.6709 0.853121 12.6533 0.899892 12.6453 0.948726C12.6373 0.99756 12.6391 1.04749 12.6505 1.09564C12.6619 1.14379 12.6827 1.18921 12.7118 1.22927C12.7408 1.26934 12.7775 1.30326 12.8197 1.32909C12.8619 1.35492 12.9088 1.37213 12.9577 1.37975C15.4969 1.79464 17.7895 3.12331 19.4131 5.12099C21.5771 7.78372 22.2949 11.2547 21.3913 14.5318L21.0254 13.6803C21.0059 13.635 20.9778 13.594 20.9425 13.5597C20.9072 13.5253 20.8655 13.4982 20.8198 13.48C20.774 13.4617 20.7251 13.4527 20.6759 13.4534C20.6266 13.454 20.578 13.4644 20.5328 13.4839C20.4875 13.5033 20.4466 13.5315 20.4122 13.5668C20.3778 13.602 20.3508 13.6437 20.3325 13.6895C20.3143 13.7352 20.3052 13.7841 20.3059 13.8334C20.3066 13.8826 20.3169 13.9312 20.3364 13.9765L21.0953 15.7423C21.1185 15.7963 21.1541 15.844 21.1991 15.8817C21.2441 15.9194 21.2974 15.946 21.3546 15.9594C21.4118 15.9727 21.4713 15.9725 21.5284 15.9586C21.5854 15.9447 21.6384 15.9177 21.6831 15.8795L23.1216 14.6526C23.1591 14.6207 23.1899 14.5817 23.2123 14.5378C23.2347 14.4939 23.2483 14.4461 23.2522 14.397C23.2561 14.3479 23.2503 14.2986 23.2351 14.2517C23.2199 14.2049 23.1956 14.1615 23.1637 14.124ZM9.86711 3.90842C9.89433 3.83769 9.94233 3.77687 10.0048 3.73398C10.0673 3.69108 10.1413 3.66813 10.2171 3.66814H12.3024C12.3781 3.66814 12.4521 3.6911 12.5146 3.73399C12.5771 3.77689 12.6251 3.8377 12.6523 3.90842L13.0739 5.00375C13.6587 5.1607 14.2204 5.39355 14.7447 5.69638L15.818 5.2197C15.8873 5.18895 15.9642 5.1799 16.0388 5.19375C16.1133 5.20759 16.1818 5.24369 16.2354 5.29728L17.7099 6.77188C17.7635 6.82546 17.7996 6.89403 17.8134 6.96854C17.8273 7.04304 17.8182 7.12 17.7874 7.18925L17.3105 8.26288C17.6133 8.78702 17.8461 9.34856 18.0031 9.93317L19.0987 10.3549C19.1694 10.3821 19.2302 10.4302 19.2731 10.4926C19.316 10.5551 19.3389 10.6291 19.339 10.7049V12.7902C19.339 12.8659 19.316 12.9399 19.2731 13.0024C19.2302 13.0649 19.1694 13.1129 19.0987 13.1401L18.0034 13.5617C17.8464 14.1465 17.6135 14.7082 17.3107 15.2326L17.7874 16.3058C17.8182 16.3751 17.8272 16.452 17.8134 16.5266C17.7995 16.6011 17.7635 16.6696 17.7099 16.7232L16.2353 18.1977C16.1817 18.2513 16.1132 18.2873 16.0387 18.3012C15.9642 18.315 15.8872 18.306 15.818 18.2753L14.7443 17.7984C14.2202 18.1012 13.6586 18.334 13.074 18.4909L12.6523 19.5865C12.6251 19.6572 12.577 19.7181 12.5146 19.7609C12.4521 19.8038 12.3781 19.8268 12.3023 19.8268H10.217C10.1413 19.8268 10.0672 19.8038 10.0048 19.7609C9.9423 19.7181 9.89429 19.6572 9.86706 19.5865L9.44552 18.4912C8.86072 18.3343 8.29899 18.1014 7.77466 17.7986L6.70141 18.2753C6.63215 18.306 6.55519 18.3151 6.48069 18.3012C6.40618 18.2874 6.33762 18.2513 6.28403 18.1977L4.80949 16.7231C4.7559 16.6695 4.71982 16.601 4.70598 16.5265C4.69214 16.4519 4.70119 16.375 4.73196 16.3057L5.20886 15.2321C4.90609 14.708 4.67327 14.1464 4.51633 13.5618L3.42077 13.1401C3.35005 13.1128 3.28924 13.0648 3.24635 13.0024C3.20345 12.9399 3.18049 12.8659 3.18049 12.7901V10.7049C3.18049 10.6291 3.20345 10.5551 3.24634 10.4926C3.28923 10.4301 3.35005 10.3821 3.42077 10.3549L4.51633 9.93317C4.67331 9.34858 4.90613 8.78704 5.20886 8.26288L4.73196 7.18925C4.70119 7.11999 4.69214 7.04304 4.70599 6.96853C4.71984 6.89402 4.75594 6.82546 4.80953 6.77188L6.28413 5.29733C6.3377 5.24373 6.40625 5.20763 6.48075 5.19378C6.55525 5.17993 6.6322 5.18898 6.70146 5.21975L7.77499 5.69652C8.29919 5.39372 8.86079 5.1609 9.44547 5.00399L9.86711 3.90842ZM9.8125 5.68456C9.17107 5.83714 8.55814 6.09123 7.99689 6.43724C7.94502 6.46918 7.88615 6.488 7.82537 6.49209C7.76459 6.49617 7.70373 6.48539 7.64805 6.46067L6.63236 6.00959L5.52194 7.12002L5.97311 8.13575C5.99782 8.19143 6.00861 8.25229 6.00453 8.31306C6.00046 8.37384 5.98165 8.43272 5.94972 8.4846C5.60374 9.04583 5.34962 9.65872 5.19696 10.3001C5.18287 10.3594 5.15457 10.4143 5.11448 10.4601C5.07439 10.506 5.02374 10.5414 4.96689 10.5633L3.93049 10.9622V12.5325L4.96689 12.9315C5.02373 12.9534 5.07438 12.9888 5.11447 13.0346C5.15456 13.0805 5.18287 13.1354 5.19696 13.1946C5.34957 13.836 5.6037 14.4489 5.94972 15.0102C5.98165 15.062 6.00046 15.1209 6.00453 15.1817C6.00861 15.2425 5.99782 15.3033 5.97311 15.359L5.52194 16.3747L6.63231 17.4852L7.64772 17.0342C7.7034 17.0095 7.76426 16.9987 7.82504 17.0028C7.88582 17.0068 7.94469 17.0257 7.99656 17.0576C8.55793 17.4037 9.17099 17.6578 9.81255 17.8104C9.8718 17.8245 9.92673 17.8528 9.97258 17.8929C10.0184 17.933 10.0538 17.9837 10.0757 18.0405L10.4745 19.0767H12.0448L12.4438 18.0402C12.4657 17.9834 12.5011 17.9327 12.5469 17.8926C12.5928 17.8525 12.6477 17.8242 12.7069 17.8101C13.3483 17.6575 13.9612 17.4034 14.5225 17.0574C14.5743 17.0255 14.6332 17.0066 14.694 17.0026C14.7547 16.9985 14.8156 17.0092 14.8713 17.0339L15.8871 17.4851L16.9975 16.3747L16.5465 15.3593C16.5218 15.3037 16.511 15.2428 16.5151 15.182C16.5191 15.1212 16.538 15.0624 16.5699 15.0105C16.916 14.4491 17.1701 13.8361 17.3228 13.1945C17.3368 13.1352 17.3652 13.0803 17.4052 13.0345C17.4453 12.9886 17.496 12.9532 17.5528 12.9313L18.589 12.5325V10.9622L17.5525 10.5633C17.4957 10.5414 17.4451 10.506 17.405 10.4602C17.3649 10.4143 17.3366 10.3594 17.3225 10.3002C17.1698 9.65876 16.9157 9.04587 16.5697 8.48464C16.5378 8.43276 16.5189 8.37389 16.5149 8.31311C16.5108 8.25233 16.5216 8.19147 16.5463 8.1358L16.9975 7.12002L15.8871 6.00959L14.8716 6.46058C14.8159 6.48528 14.7551 6.49606 14.6943 6.49197C14.6335 6.48789 14.5747 6.46907 14.5228 6.43714C13.9614 6.09109 13.3484 5.83695 12.7068 5.68433C12.6475 5.67023 12.5926 5.64191 12.5468 5.60181C12.5009 5.56172 12.4655 5.51106 12.4436 5.45422L12.0448 4.41809H10.4745L10.0756 5.45441C10.0538 5.51126 10.0184 5.56194 9.97254 5.60204C9.92669 5.64215 9.87176 5.67047 9.8125 5.68456ZM11.2597 6.83614C13.9678 6.83614 16.171 9.03931 16.171 11.7474C16.171 14.4555 13.9678 16.6587 11.2597 16.6587C8.55166 16.6587 6.34844 14.4555 6.34844 11.7474C6.34839 9.03931 8.55161 6.83614 11.2597 6.83614ZM7.09839 11.7474C7.09839 14.042 8.96514 15.9087 11.2597 15.9087C13.5542 15.9087 15.4209 14.042 15.4209 11.7474C15.4209 9.45289 13.5542 7.58614 11.2597 7.58614C8.96514 7.58614 7.09839 9.45289 7.09839 11.7474ZM10.6946 13.8565C10.7271 13.8652 10.7598 13.8694 10.7919 13.8694C10.8744 13.8693 10.9546 13.842 11.02 13.7917C11.0855 13.7415 11.1325 13.671 11.1539 13.5913L12.09 10.0976C12.1158 10.0015 12.1023 9.89918 12.0526 9.81305C12.0028 9.72692 11.9209 9.66407 11.8248 9.63833C11.7288 9.61259 11.6264 9.62607 11.5403 9.67579C11.4542 9.72552 11.3913 9.80743 11.3656 9.9035L10.4294 13.3971C10.4167 13.4447 10.4134 13.4943 10.4198 13.5432C10.4262 13.592 10.4422 13.6391 10.4668 13.6818C10.4915 13.7244 10.5243 13.7618 10.5633 13.7918C10.6024 13.8218 10.647 13.8438 10.6946 13.8565ZM8.10831 12.0342L9.63367 13.3196C9.70118 13.3766 9.78674 13.4079 9.87513 13.4078C9.92979 13.4079 9.98381 13.396 10.0334 13.3729C10.083 13.3499 10.1269 13.3163 10.162 13.2744C10.1938 13.2368 10.2178 13.1932 10.2327 13.1463C10.2476 13.0994 10.2531 13.0499 10.2489 13.0009C10.2448 12.9518 10.2309 12.904 10.2083 12.8603C10.1857 12.8166 10.1546 12.7777 10.117 12.746L8.93191 11.7474L10.117 10.7488C10.2753 10.6153 10.2955 10.3788 10.162 10.2204C10.0285 10.062 9.79197 10.0418 9.63367 10.1753L8.10831 11.4606C8.06653 11.4958 8.03295 11.5397 8.00991 11.5893C7.98687 11.6388 7.97494 11.6928 7.97494 11.7474C7.97494 11.8021 7.98687 11.856 8.00991 11.9056C8.03295 11.9551 8.06653 11.999 8.10831 12.0342ZM12.3574 13.2745C12.3926 13.3163 12.4365 13.3499 12.4861 13.373C12.5356 13.396 12.5897 13.4079 12.6443 13.4078C12.7296 13.4078 12.8154 13.3789 12.8858 13.3196L14.4111 12.0343C14.4529 11.9991 14.4864 11.9551 14.5095 11.9056C14.5325 11.8561 14.5445 11.8021 14.5445 11.7475C14.5445 11.6928 14.5325 11.6389 14.5095 11.5893C14.4864 11.5398 14.4529 11.4959 14.4111 11.4607L12.8858 10.1753C12.8097 10.1112 12.7113 10.08 12.6122 10.0885C12.5132 10.0969 12.4215 10.1444 12.3574 10.2204C12.3257 10.2581 12.3016 10.3016 12.2867 10.3486C12.2718 10.3955 12.2663 10.4449 12.2705 10.494C12.2747 10.543 12.2885 10.5908 12.3111 10.6345C12.3338 10.6783 12.3648 10.7171 12.4025 10.7488L13.5875 11.7474L12.4025 12.746C12.3648 12.7778 12.3338 12.8166 12.3111 12.8604C12.2885 12.9041 12.2747 12.9518 12.2705 13.0009C12.2663 13.05 12.2718 13.0994 12.2867 13.1463C12.3016 13.1933 12.3257 13.2368 12.3574 13.2745Z" fill="white"/>
</svg>
