<svg width="24" height="24" viewBox="0 0 24 24" fill="none" xmlns="http://www.w3.org/2000/svg">
<g clip-path="url(#clip0_695_413)">
<path d="M12 5.55669C8.44716 5.55669 5.55675 8.4471 5.55675 11.9999C5.55675 15.5528 8.44716 18.4432 12 18.4432C15.5528 18.4432 18.4433 15.5528 18.4433 11.9999C18.4433 8.4471 15.5528 5.55669 12 5.55669ZM12 17.7869C8.80903 17.7869 6.213 15.1909 6.213 11.9999C6.213 8.80898 8.80903 6.21295 12 6.21295C15.191 6.21295 17.787 8.80898 17.787 11.9999C17.787 15.1909 15.191 17.7869 12 17.7869ZM15.1659 12.3103C14.2535 12.1151 13.4488 12.2729 12.8382 12.7667C12.6463 12.9218 12.4758 13.1094 12.3281 13.3242V12.4722C13.7076 12.3093 14.7813 11.1335 14.7813 9.71099C14.7813 8.17738 13.5336 6.92971 12 6.92971C10.4664 6.92971 9.21877 8.17738 9.21877 9.71099C9.21877 11.1335 10.2924 12.3093 11.6719 12.4722V13.3242C11.5243 13.1095 11.3538 12.9219 11.1619 12.7667C10.5513 12.273 9.74639 12.1151 8.83411 12.3103C8.76067 12.326 8.69484 12.3664 8.64761 12.4248C8.60039 12.4832 8.57464 12.5561 8.57466 12.6312C8.57466 13.6095 8.93784 14.4947 9.59728 15.1236C10.1524 15.6529 10.8796 15.9727 11.6719 16.042V16.7421C11.6719 16.7852 11.6804 16.8279 11.6969 16.8677C11.7133 16.9075 11.7375 16.9437 11.768 16.9741C11.7984 17.0046 11.8346 17.0288 11.8744 17.0452C11.9142 17.0617 11.9569 17.0702 12 17.0702C12.0431 17.0702 12.0858 17.0617 12.1256 17.0452C12.1654 17.0288 12.2015 17.0046 12.232 16.9741C12.2625 16.9437 12.2867 16.9075 12.3031 16.8677C12.3196 16.8279 12.3281 16.7852 12.3281 16.7421V16.042C13.1204 15.9727 13.8477 15.6529 14.4027 15.1236C15.0622 14.4947 15.4254 13.6095 15.4254 12.6312C15.4254 12.5561 15.3996 12.4832 15.3524 12.4248C15.3052 12.3665 15.2394 12.326 15.1659 12.3103V12.3103ZM9.87502 9.71099C9.87502 8.53926 10.8283 7.58596 12 7.58596C13.1717 7.58596 14.125 8.53926 14.125 9.71099C14.125 10.8827 13.1717 11.836 12 11.836C10.8283 11.836 9.87502 10.8827 9.87502 9.71099ZM9.24183 12.9057C9.84394 12.8298 10.35 12.9541 10.7492 13.277C11.2716 13.6994 11.5956 14.4547 11.66 15.3809C10.4743 15.2456 9.36314 14.4022 9.24183 12.9057ZM12.34 15.3809C12.4045 14.4547 12.7284 13.6994 13.2508 13.277C13.5743 13.0154 13.9679 12.8841 14.4258 12.8841C14.5331 12.8841 14.6439 12.8912 14.7582 12.9057C14.6369 14.4022 13.5257 15.2456 12.34 15.3809ZM12 11.5146C11.913 11.5146 11.8295 11.48 11.768 11.4184C11.7064 11.3569 11.6719 11.2735 11.6719 11.1864V11.0395C11.3782 10.9697 11.1146 10.814 10.9819 10.5716C10.9414 10.4954 10.9325 10.4062 10.9572 10.3235C10.9819 10.2408 11.0383 10.1711 11.114 10.1296C11.1897 10.0882 11.2788 10.0782 11.3618 10.102C11.4448 10.1257 11.5151 10.1812 11.5575 10.2565C11.6384 10.4041 12.0775 10.4922 12.3203 10.3715C12.3844 10.3395 12.3981 10.2885 12.4011 10.2681C12.4055 10.2368 12.3967 10.2108 12.3748 10.1907C12.3441 10.1624 12.2658 10.1073 12.0868 10.0564C12.0357 10.0418 11.9777 10.0281 11.9163 10.0136C11.7012 9.96271 11.4573 9.90501 11.2682 9.75829C11.0845 9.61579 10.9748 9.42074 10.9593 9.2091C10.9441 9.0014 11.0197 8.7996 11.1721 8.64074C11.308 8.49918 11.4869 8.41588 11.6718 8.37365V8.23555C11.6718 8.14853 11.7064 8.06507 11.7679 8.00354C11.8294 7.942 11.9129 7.90743 11.9999 7.90743C12.0869 7.90743 12.1704 7.942 12.2319 8.00354C12.2935 8.06507 12.328 8.14853 12.328 8.23555V8.37637C12.6239 8.44607 12.8554 8.60591 12.9742 8.82651C12.9947 8.86444 13.0075 8.90602 13.0118 8.94889C13.0162 8.99176 13.0121 9.03507 12.9997 9.07634C12.9873 9.11762 12.967 9.15605 12.9397 9.18945C12.9125 9.22284 12.879 9.25055 12.841 9.27098C12.8031 9.29142 12.7615 9.30418 12.7186 9.30855C12.6758 9.31292 12.6325 9.3088 12.5912 9.29643C12.5499 9.28406 12.5115 9.26368 12.4781 9.23645C12.4447 9.20923 12.417 9.17569 12.3966 9.13776C12.3696 9.0877 12.2671 9.0238 12.1059 9.00187C11.9008 8.97379 11.7106 9.02741 11.6456 9.09519C11.624 9.11769 11.6124 9.14174 11.6138 9.16115C11.6155 9.18445 11.6362 9.21309 11.6705 9.23976C11.7471 9.2992 11.9173 9.33946 12.0674 9.37499C12.1331 9.39051 12.2011 9.40659 12.2663 9.4251C12.5025 9.49232 12.6887 9.58752 12.8196 9.70809C12.999 9.87341 13.0854 10.1174 13.0507 10.3606C13.0142 10.617 12.8505 10.8407 12.6126 10.959C12.5265 11.0019 12.43 11.0332 12.3281 11.0538V11.1864C12.3281 11.2734 12.2935 11.3569 12.232 11.4184C12.1704 11.4799 12.087 11.5145 12 11.5145L12 11.5146ZM10.1753 22.7753C10.1577 22.8464 10.1168 22.9095 10.0591 22.9547C10.0014 22.9999 9.93031 23.0244 9.85706 23.0245C9.83037 23.0245 9.80378 23.0212 9.77789 23.0148L8.81906 22.777C8.77724 22.7667 8.73787 22.7481 8.70319 22.7226C8.66852 22.697 8.63923 22.6648 8.61699 22.6279C8.59475 22.591 8.58 22.5501 8.57358 22.5075C8.56716 22.4648 8.5692 22.4214 8.57958 22.3796C8.62322 22.2036 8.80158 22.0964 8.97703 22.1401L9.93586 22.3778C10.0203 22.3988 10.093 22.4524 10.1379 22.527C10.1828 22.6015 10.1963 22.6908 10.1753 22.7753H10.1753ZM7.44867 21.9359C7.42784 21.9736 7.39978 22.0069 7.3661 22.0338C7.33241 22.0606 7.29375 22.0806 7.25234 22.0926C7.21093 22.1045 7.16757 22.1081 7.12474 22.1033C7.08191 22.0985 7.04046 22.0852 7.00275 22.0644L6.13809 21.5866C6.10038 21.5657 6.06714 21.5377 6.04027 21.504C6.0134 21.4703 5.99343 21.4316 5.9815 21.3902C5.96957 21.3488 5.96591 21.3055 5.97073 21.2627C5.97556 21.2198 5.98877 21.1784 6.00961 21.1407C6.03045 21.1029 6.05852 21.0697 6.09221 21.0428C6.1259 21.016 6.16455 20.996 6.20596 20.9841C6.24737 20.9721 6.29072 20.9685 6.33354 20.9733C6.37636 20.9781 6.41782 20.9913 6.45553 21.0122L7.32019 21.49C7.35791 21.5108 7.39115 21.5389 7.41802 21.5726C7.44489 21.6063 7.46486 21.6449 7.47679 21.6863C7.48872 21.7277 7.49238 21.7711 7.48755 21.8139C7.48273 21.8567 7.46952 21.8982 7.44867 21.9359ZM15.8075 22.244C15.8194 22.2854 15.8231 22.3287 15.8182 22.3715C15.8134 22.4144 15.8002 22.4558 15.7794 22.4935C15.7585 22.5312 15.7305 22.5645 15.6968 22.5914C15.6631 22.6182 15.6244 22.6382 15.583 22.6501L14.6338 22.9237C14.5501 22.9477 14.4604 22.9376 14.3842 22.8955C14.3081 22.8534 14.2517 22.7829 14.2276 22.6993C14.2157 22.6579 14.212 22.6145 14.2168 22.5717C14.2216 22.5289 14.2348 22.4874 14.2557 22.4497C14.2765 22.412 14.3046 22.3787 14.3383 22.3519C14.372 22.325 14.4106 22.305 14.452 22.2931L15.4013 22.0195C15.4427 22.0076 15.4861 22.0039 15.5289 22.0087C15.5717 22.0136 15.6132 22.0268 15.6509 22.0476C15.6886 22.0685 15.7218 22.0965 15.7487 22.1302C15.7756 22.1639 15.7955 22.2026 15.8075 22.244ZM13.0264 22.8803C13.0272 22.9234 13.0195 22.9662 13.0038 23.0064C12.988 23.0465 12.9646 23.0831 12.9347 23.1141C12.9048 23.1452 12.8691 23.17 12.8296 23.1873C12.7901 23.2045 12.7476 23.2138 12.7045 23.2146L11.7167 23.2332H11.7105C11.6239 23.2333 11.5407 23.1992 11.4792 23.1383C11.4176 23.0774 11.3827 22.9946 11.3819 22.908C11.3811 22.8215 11.4145 22.7381 11.475 22.6761C11.5354 22.614 11.6179 22.5784 11.7045 22.577L12.6921 22.5584C12.8745 22.5544 13.023 22.6992 13.0264 22.8803ZM22.2931 9.54791L22.0196 8.59865C21.9955 8.51502 22.0056 8.42525 22.0477 8.34908C22.0898 8.27291 22.1604 8.21658 22.244 8.19248C22.3276 8.16838 22.4174 8.17848 22.4936 8.22057C22.5698 8.26266 22.6261 8.33329 22.6502 8.41691L22.9237 9.36618C22.9478 9.4498 22.9377 9.53958 22.8957 9.61575C22.8536 9.69192 22.7829 9.74825 22.6993 9.77235C22.6157 9.79645 22.5259 9.78634 22.4497 9.74425C22.3736 9.70216 22.3172 9.63154 22.2931 9.54791ZM23.2147 11.2955L23.2332 12.2832C23.234 12.3262 23.2263 12.3691 23.2106 12.4092C23.1949 12.4493 23.1714 12.4859 23.1415 12.517C23.1116 12.548 23.0759 12.5728 23.0364 12.5901C22.9969 12.6073 22.9544 12.6166 22.9113 12.6174H22.905C22.8191 12.6173 22.7366 12.5836 22.6752 12.5234C22.6139 12.4632 22.5787 12.3813 22.5771 12.2954L22.5585 11.3077C22.5577 11.2647 22.5654 11.2218 22.5812 11.1817C22.5969 11.1416 22.6204 11.105 22.6503 11.074C22.6802 11.0429 22.7159 11.0181 22.7554 11.0008C22.7949 10.9836 22.8374 10.9743 22.8805 10.9735H22.8868C22.9727 10.9736 23.0552 11.0073 23.1165 11.0675C23.1778 11.1277 23.2131 11.2096 23.2147 11.2955ZM22.1402 15.023L22.3779 14.0641C22.3993 13.9802 22.4531 13.9081 22.5274 13.8637C22.6018 13.8192 22.6907 13.806 22.7748 13.8268C22.8589 13.8477 22.9313 13.901 22.9763 13.975C23.0212 14.049 23.0351 14.1379 23.0148 14.2221L22.7771 15.181C22.7595 15.2521 22.7186 15.3152 22.661 15.3604C22.6033 15.4056 22.5322 15.4301 22.4589 15.4302C22.4091 15.4302 22.3599 15.4189 22.3151 15.3971C22.2703 15.3753 22.231 15.3436 22.2003 15.3043C22.1696 15.2651 22.1482 15.2193 22.1378 15.1706C22.1274 15.1219 22.1282 15.0714 22.1402 15.023H22.1402ZM1.85986 8.97693L1.62216 9.93576C1.60454 10.0069 1.56364 10.07 1.50598 10.1152C1.44832 10.1603 1.37721 10.1849 1.30397 10.185C1.25413 10.185 1.20493 10.1737 1.16012 10.1519C1.1153 10.1301 1.07605 10.0984 1.04533 10.0591C1.01461 10.0199 0.993233 9.97412 0.982826 9.92538C0.97242 9.87663 0.973254 9.82616 0.985266 9.77779L1.22297 8.81896C1.26656 8.64309 1.4445 8.5356 1.62042 8.57948C1.70488 8.60043 1.77756 8.65407 1.82248 8.72861C1.86739 8.80314 1.88085 8.89247 1.85991 8.97693H1.85986ZM1.70691 14.452L1.98047 15.4012C2.00457 15.4849 1.99446 15.5746 1.95237 15.6508C1.91028 15.727 1.83966 15.7833 1.75603 15.8074C1.67241 15.8315 1.58263 15.8214 1.50646 15.7793C1.43029 15.7372 1.37396 15.6666 1.34986 15.583L1.0763 14.6338C1.0522 14.5501 1.0623 14.4604 1.10439 14.3842C1.14648 14.308 1.21711 14.2517 1.30073 14.2276C1.38436 14.2035 1.47413 14.2136 1.5503 14.2557C1.62647 14.2978 1.68281 14.3684 1.70691 14.452ZM0.785344 12.7044L0.766828 11.7167C0.76602 11.6736 0.773707 11.6308 0.789449 11.5907C0.805191 11.5506 0.82868 11.514 0.858575 11.4829C0.88847 11.4519 0.924185 11.4271 0.963681 11.4098C1.00318 11.3926 1.04568 11.3833 1.08877 11.3825H1.09505C1.18099 11.3825 1.26348 11.4163 1.3248 11.4765C1.38612 11.5367 1.42138 11.6186 1.42298 11.7045L1.4415 12.6922C1.44231 12.7353 1.43462 12.7781 1.41888 12.8182C1.40314 12.8583 1.37965 12.8949 1.34975 12.926C1.31986 12.957 1.28414 12.9819 1.24465 12.9991C1.20515 13.0163 1.16265 13.0256 1.11956 13.0264H1.11328C1.02734 13.0264 0.944848 12.9926 0.883527 12.9324C0.822205 12.8722 0.786952 12.7904 0.785344 12.7044ZM8.19253 1.75593C8.1806 1.71452 8.17694 1.67117 8.18176 1.62835C8.18658 1.58553 8.19978 1.54408 8.22062 1.50636C8.24147 1.46864 8.26953 1.4354 8.30322 1.40853C8.33691 1.38166 8.37556 1.36169 8.41697 1.34976L9.36623 1.07624C9.44986 1.05214 9.53963 1.06225 9.6158 1.10434C9.69197 1.14643 9.74831 1.21706 9.77241 1.30068C9.79651 1.3843 9.7864 1.47408 9.74431 1.55025C9.70222 1.62642 9.63159 1.68275 9.54797 1.70685L8.5987 1.98037C8.51508 2.00442 8.42533 1.99429 8.34917 1.95221C8.27301 1.91012 8.21667 1.83953 8.19253 1.75593ZM10.9736 1.11955C10.9728 1.07647 10.9805 1.03365 10.9962 0.993532C11.012 0.953416 11.0354 0.916793 11.0653 0.885753C11.0952 0.854713 11.1309 0.829865 11.1704 0.812627C11.2099 0.79539 11.2524 0.7861 11.2955 0.785289L12.2833 0.766727H12.2895C12.3761 0.766601 12.4593 0.800706 12.5208 0.861607C12.5824 0.922508 12.6173 1.00527 12.6181 1.09185C12.6189 1.17843 12.5855 1.26182 12.525 1.32384C12.4646 1.38585 12.3821 1.42147 12.2955 1.42293L11.3079 1.44149H11.3016C11.2156 1.44146 11.1331 1.40772 11.0718 1.34752C11.0105 1.28732 10.9752 1.20547 10.9736 1.11955ZM16.5513 2.06404C16.5722 2.02632 16.6002 1.99308 16.6339 1.96621C16.6676 1.93934 16.7063 1.91937 16.7477 1.90744C16.7891 1.89551 16.8324 1.89185 16.8753 1.89667C16.9181 1.9015 16.9595 1.91471 16.9972 1.93555L17.8619 2.4133C17.8996 2.43415 17.9329 2.46222 17.9597 2.49591C17.9866 2.5296 18.0066 2.56825 18.0185 2.60966C18.0304 2.65106 18.0341 2.69442 18.0293 2.73724C18.0244 2.78006 18.0112 2.82151 17.9904 2.85923C17.9695 2.89694 17.9415 2.93018 17.9078 2.95705C17.8741 2.98392 17.8354 3.00389 17.794 3.01582C17.7526 3.02775 17.7093 3.03141 17.6665 3.02659C17.6236 3.02176 17.5822 3.00855 17.5445 2.98771L16.6798 2.50996C16.6421 2.48912 16.6089 2.46105 16.582 2.42736C16.5551 2.39367 16.5351 2.35502 16.5232 2.31361C16.5113 2.2722 16.5076 2.22885 16.5124 2.18603C16.5173 2.14321 16.5305 2.10175 16.5513 2.06404ZM13.8247 1.22465C13.8457 1.14019 13.8993 1.06752 13.9738 1.02261C14.0484 0.977701 14.1377 0.964231 14.2222 0.985164L15.181 1.22287C15.2587 1.24216 15.3268 1.28923 15.3722 1.3552C15.4177 1.42118 15.4374 1.5015 15.4277 1.58103C15.4181 1.66056 15.3796 1.7338 15.3197 1.78695C15.2597 1.84009 15.1824 1.86948 15.1023 1.86955C15.0756 1.86956 15.049 1.86628 15.0231 1.8598L14.0642 1.6221C13.9798 1.60115 13.9071 1.54751 13.8622 1.47297C13.8173 1.39844 13.8038 1.30911 13.8248 1.22465H13.8247ZM18.8336 4.22259H19.533V7.13741C19.533 7.51354 19.839 7.81959 20.2151 7.81959H21.215C21.5911 7.81959 21.8971 7.51359 21.8971 7.13741V4.22259H22.5965C22.8035 4.22259 22.9881 4.1069 23.078 3.92071C23.168 3.73448 23.144 3.51805 23.0153 3.35577L21.1338 0.984602C21.0839 0.921369 21.0203 0.870305 20.9477 0.835265C20.8752 0.800225 20.7956 0.782126 20.7151 0.782336H20.715C20.5509 0.782336 20.3983 0.856023 20.2962 0.984602L18.4148 3.35577C18.2861 3.51796 18.262 3.73443 18.352 3.92066C18.442 4.10695 18.6265 4.22259 18.8335 4.22259H18.8336ZM20.715 1.51265L22.3447 3.56634H21.569C21.482 3.56634 21.3985 3.60091 21.337 3.66244C21.2755 3.72398 21.2409 3.80744 21.2409 3.89446V7.13741C21.2407 7.14424 21.2379 7.15073 21.2331 7.15556C21.2283 7.16038 21.2218 7.16317 21.215 7.16334H20.2151C20.2083 7.16317 20.2018 7.16038 20.197 7.15556C20.1922 7.15073 20.1894 7.14424 20.1892 7.13741V3.89446C20.1892 3.80744 20.1546 3.72398 20.0931 3.66244C20.0316 3.60091 19.9481 3.56634 19.8611 3.56634H19.0855L20.715 1.51265ZM5.16638 19.7773H4.467V16.8625C4.467 16.4864 4.161 16.1804 3.78483 16.1804H2.78498C2.40886 16.1804 2.10281 16.4864 2.10281 16.8625V19.7773H1.40348C1.19644 19.7773 1.01194 19.893 0.921984 20.0792C0.831984 20.2655 0.856078 20.4819 0.98475 20.6441L2.86622 23.0153C2.96822 23.1439 3.12084 23.2176 3.28495 23.2176C3.44906 23.2176 3.60173 23.1439 3.70373 23.0153L5.5852 20.6442C5.71387 20.482 5.73797 20.2656 5.64802 20.0793C5.55802 19.893 5.37352 19.7773 5.16647 19.7773H5.16638ZM3.28491 22.4872L1.65534 20.4336H2.43094C2.51796 20.4336 2.60142 20.399 2.66296 20.3375C2.72449 20.2759 2.75906 20.1925 2.75906 20.1054V16.8625C2.75906 16.8487 2.7712 16.8366 2.78498 16.8366H3.78483C3.79866 16.8366 3.81075 16.8487 3.81075 16.8625V20.1054C3.81075 20.1925 3.84532 20.2759 3.90686 20.3375C3.96839 20.399 4.05185 20.4336 4.13888 20.4336H4.91452L3.28491 22.4872ZM23.5478 18.7821L23.0016 18.6744L22.8208 18.2383L23.131 17.7756C23.1733 17.7125 23.1924 17.6367 23.185 17.561C23.1777 17.4854 23.1443 17.4146 23.0905 17.3609L22.2491 16.5194C22.1954 16.4657 22.1246 16.4323 22.049 16.4249C21.9733 16.4175 21.8974 16.4366 21.8343 16.479L21.3717 16.7893L20.9356 16.6084L20.8279 16.0621C20.8132 15.9876 20.7731 15.9204 20.7144 15.8721C20.6556 15.8239 20.582 15.7975 20.506 15.7975H19.3161C19.2401 15.7975 19.1664 15.8239 19.1077 15.8721C19.049 15.9204 19.0089 15.9876 18.9942 16.0621L18.8865 16.6084L18.4504 16.7893L17.9878 16.479C17.9246 16.4366 17.8487 16.4175 17.7731 16.4249C17.6974 16.4323 17.6267 16.4657 17.5729 16.5195L16.7316 17.3609C16.6778 17.4146 16.6444 17.4854 16.637 17.561C16.6297 17.6367 16.6488 17.7125 16.6911 17.7756L17.0013 18.2383L16.8204 18.6744L16.2742 18.7821C16.1996 18.7968 16.1325 18.8369 16.0842 18.8956C16.0359 18.9543 16.0096 19.028 16.0095 19.104V20.2939C16.0095 20.3699 16.0359 20.4436 16.0842 20.5023C16.1325 20.561 16.1996 20.6011 16.2742 20.6159L16.8204 20.7235L17.0013 21.1596L16.6911 21.6223C16.6488 21.6854 16.6297 21.7612 16.637 21.8369C16.6444 21.9125 16.6778 21.9833 16.7316 22.037L17.5729 22.8784C17.6267 22.9322 17.6974 22.9656 17.7731 22.973C17.8487 22.9804 17.9246 22.9613 17.9877 22.9189L18.4504 22.6087L18.8865 22.7895L18.9942 23.3358C19.0089 23.4103 19.049 23.4775 19.1077 23.5258C19.1665 23.574 19.2401 23.6004 19.3161 23.6004H20.506C20.582 23.6004 20.6556 23.574 20.7144 23.5258C20.7731 23.4775 20.8132 23.4103 20.8279 23.3358L20.9356 22.7895L21.3717 22.6087L21.8343 22.9189C21.8975 22.9612 21.9733 22.9803 22.049 22.973C22.1246 22.9656 22.1954 22.9322 22.2491 22.8785L23.0905 22.0371C23.1443 21.9833 23.1777 21.9126 23.1851 21.8369C23.1924 21.7612 23.1733 21.6854 23.131 21.6223L22.8208 21.1596L23.0016 20.7235L23.5478 20.6159C23.6224 20.6011 23.6896 20.561 23.7378 20.5023C23.7861 20.4436 23.8125 20.3699 23.8125 20.2939V19.104C23.8125 19.028 23.7861 18.9543 23.7378 18.8956C23.6896 18.8369 23.6224 18.7968 23.5478 18.7821ZM23.1562 20.0241L22.7023 20.1136C22.6493 20.1241 22.5997 20.1475 22.5579 20.1817C22.5161 20.216 22.4834 20.26 22.4627 20.3099L22.1472 21.0706C22.1265 21.1206 22.1185 21.1749 22.1238 21.2287C22.1291 21.2825 22.1477 21.3342 22.1778 21.3791L22.4357 21.7637L21.9758 22.2237L21.5911 21.9657C21.5462 21.9356 21.4946 21.917 21.4408 21.9117C21.3869 21.9064 21.3327 21.9144 21.2827 21.9351L20.522 22.2507C20.4721 22.2714 20.428 22.3041 20.3938 22.3459C20.3596 22.3876 20.3362 22.4372 20.3257 22.4902L20.2362 22.9442H19.5858L19.4963 22.4902C19.4859 22.4372 19.4625 22.3876 19.4283 22.3458C19.394 22.304 19.35 22.2713 19.3001 22.2507L18.5393 21.9351C18.4894 21.9144 18.4351 21.9064 18.3813 21.9117C18.3275 21.9171 18.2758 21.9356 18.2309 21.9657L17.8463 22.2237L17.3863 21.7637L17.6443 21.3791C17.6744 21.3342 17.693 21.2825 17.6983 21.2287C17.7036 21.1748 17.6956 21.1205 17.6748 21.0706L17.3593 20.3099C17.3386 20.26 17.3059 20.2159 17.2641 20.1817C17.2223 20.1475 17.1727 20.1241 17.1197 20.1136L16.6658 20.0241V19.3738L17.1197 19.2843C17.1727 19.2738 17.2223 19.2504 17.2641 19.2162C17.3059 19.182 17.3386 19.138 17.3593 19.0881L17.6748 18.3273C17.6955 18.2774 17.7036 18.2231 17.6983 18.1692C17.6929 18.1154 17.6744 18.0638 17.6443 18.0188L17.3863 17.6342L17.8463 17.1742L18.2309 17.4322C18.2758 17.4623 18.3275 17.4809 18.3813 17.4862C18.4351 17.4915 18.4894 17.4835 18.5394 17.4628L19.3001 17.1472C19.35 17.1265 19.394 17.0938 19.4282 17.052C19.4625 17.0102 19.4858 16.9606 19.4963 16.9076L19.5858 16.4537H20.2362L20.3257 16.9076C20.3362 16.9606 20.3595 17.0102 20.3938 17.052C20.428 17.0938 20.472 17.1265 20.5219 17.1472L21.2827 17.4628C21.3326 17.4835 21.3869 17.4915 21.4408 17.4862C21.4946 17.4809 21.5463 17.4623 21.5912 17.4322L21.9758 17.1742L22.4357 17.6342L22.1778 18.0188C22.1477 18.0637 22.1291 18.1154 22.1238 18.1692C22.1184 18.223 22.1265 18.2773 22.1472 18.3273L22.4627 19.088C22.4834 19.1379 22.5161 19.1819 22.5579 19.2162C22.5997 19.2504 22.6493 19.2738 22.7023 19.2843L23.1562 19.3738V20.0241ZM19.911 17.6669C18.7906 17.6669 17.879 18.5785 17.879 19.699C17.879 20.8195 18.7905 21.7311 19.911 21.7311C21.0315 21.7311 21.9431 20.8195 21.9431 19.699C21.9431 18.5785 21.0315 17.6669 19.911 17.6669ZM19.911 21.0748C19.1524 21.0748 18.5352 20.4576 18.5352 19.6989C18.5352 18.9403 19.1524 18.3231 19.911 18.3231C20.6697 18.3231 21.2869 18.9403 21.2869 19.6989C21.2869 20.4576 20.6697 21.0748 19.911 21.0748ZM1.17923 5.76154L0.869016 6.2242C0.826687 6.28733 0.807581 6.36319 0.814959 6.43884C0.822336 6.51449 0.85574 6.58523 0.909469 6.63899L1.75087 7.4804C1.80465 7.53412 1.8754 7.56752 1.95105 7.5749C2.02671 7.58228 2.10258 7.56317 2.16572 7.52085L2.62833 7.21059L3.06441 7.39148L3.17208 7.93771C3.18679 8.01228 3.22693 8.07943 3.28564 8.1277C3.34436 8.17597 3.41801 8.20236 3.49402 8.20237H4.68394C4.75995 8.20237 4.8336 8.17598 4.89232 8.12771C4.95104 8.07944 4.99117 8.01229 5.00588 7.93771L5.11355 7.39148L5.54962 7.21059L6.01223 7.52085C6.07537 7.56319 6.15125 7.58229 6.22691 7.5749C6.30257 7.56752 6.37332 7.5341 6.42708 7.48035L7.26844 6.63895C7.32218 6.5852 7.35559 6.51446 7.36297 6.43882C7.37035 6.36317 7.35123 6.28731 7.30889 6.2242L6.99867 5.76154L7.17956 5.32546L7.7258 5.21779C7.80037 5.20308 7.86752 5.16294 7.91579 5.10422C7.96406 5.04551 7.99045 4.97186 7.99045 4.89585V3.70593C7.99046 3.62992 7.96407 3.55627 7.9158 3.49755C7.86753 3.43883 7.80037 3.39869 7.7258 3.38399L7.17956 3.27632L6.99867 2.84024L7.30889 2.37759C7.35122 2.31446 7.37033 2.23859 7.36295 2.16294C7.35557 2.08729 7.32217 2.01655 7.26844 1.96279L6.42708 1.12143C6.37334 1.06766 6.30259 1.03423 6.22693 1.02685C6.15127 1.01947 6.0754 1.0386 6.01228 1.08098L5.54962 1.3912L5.11355 1.2103L5.00588 0.66407C4.99116 0.589499 4.95102 0.522347 4.89231 0.474079C4.83359 0.425811 4.75995 0.399421 4.68394 0.399414H3.49402C3.41801 0.399412 3.34435 0.425799 3.28563 0.474068C3.22692 0.522338 3.18678 0.589495 3.17208 0.66407L3.06441 1.2103L2.62833 1.3912L2.16567 1.08098C2.10255 1.03864 2.02669 1.01953 1.95105 1.02691C1.87541 1.03429 1.80467 1.0677 1.75092 1.12143L0.909516 1.96279C0.855748 2.01653 0.822313 2.08727 0.814926 2.16293C0.807539 2.23859 0.826658 2.31446 0.869016 2.37759L1.17923 2.84024L0.998391 3.27632L0.452156 3.38399C0.377585 3.3987 0.310433 3.43884 0.262165 3.49756C0.213897 3.55627 0.187507 3.62992 0.1875 3.70593V4.89585C0.187498 4.97186 0.213885 5.04552 0.262154 5.10423C0.310424 5.16295 0.377581 5.20309 0.452156 5.21779L0.998391 5.32546L1.17923 5.76154ZM0.84375 3.9757L1.29769 3.88621C1.35069 3.87575 1.4003 3.85237 1.44209 3.81813C1.48389 3.78389 1.51658 3.73986 1.53727 3.68995L1.85278 2.92921C1.87349 2.87926 1.88154 2.82497 1.87621 2.77116C1.87088 2.71735 1.85233 2.66569 1.82222 2.62077L1.56427 2.23612L2.0242 1.77618L2.40886 2.03413C2.45378 2.06426 2.50544 2.08281 2.55926 2.08814C2.61308 2.09347 2.66739 2.08542 2.71734 2.0647L3.47808 1.74913C3.52797 1.72843 3.57199 1.69573 3.60621 1.65394C3.64044 1.61214 3.66383 1.56255 3.6743 1.50955L3.76378 1.05562H4.41417L4.50366 1.50955C4.51411 1.56256 4.53749 1.61215 4.57172 1.65395C4.60595 1.69574 4.64997 1.72844 4.69987 1.74913L5.46061 2.0647C5.51057 2.0854 5.56487 2.09344 5.61869 2.08811C5.6725 2.08278 5.72417 2.06424 5.76909 2.03413L6.15375 1.77618L6.61369 2.23612L6.35573 2.62077C6.3256 2.66569 6.30704 2.71735 6.30171 2.77118C6.29638 2.825 6.30444 2.8793 6.32517 2.92926L6.64073 3.68999C6.66144 3.73989 6.69414 3.7839 6.73593 3.81813C6.77772 3.85236 6.82732 3.87574 6.88031 3.88621L7.33425 3.9757V4.62609L6.88031 4.71557C6.82731 4.72603 6.77771 4.74941 6.73592 4.78364C6.69413 4.81787 6.66143 4.86189 6.64073 4.91179L6.32517 5.67252C6.30446 5.72248 6.29641 5.77678 6.30175 5.8306C6.30708 5.88442 6.32562 5.93608 6.35573 5.98101L6.61369 6.36566L6.15375 6.8256L5.76914 6.56765C5.72422 6.53752 5.67254 6.51897 5.61871 6.51363C5.56488 6.5083 5.51057 6.51636 5.46061 6.53709L4.69987 6.85265C4.64998 6.87335 4.60597 6.90605 4.57174 6.94784C4.53751 6.98964 4.51413 7.03923 4.50366 7.09223L4.41417 7.54616H3.76378L3.6743 7.09223C3.66384 7.03923 3.64046 6.98963 3.60623 6.94783C3.572 6.90604 3.52798 6.87334 3.47808 6.85265L2.71734 6.53709C2.66738 6.51638 2.61307 6.50834 2.55925 6.51367C2.50542 6.519 2.45375 6.53754 2.40881 6.56765L2.0242 6.8256L1.56427 6.36566L1.82222 5.98101C1.85235 5.9361 1.87091 5.88444 1.87624 5.83063C1.88157 5.77681 1.87351 5.72252 1.85278 5.67257L1.53727 4.91184C1.51657 4.86193 1.48387 4.81791 1.44208 4.78367C1.40028 4.74944 1.35069 4.72604 1.29769 4.71557L0.84375 4.62609V3.9757ZM4.08895 6.33295C5.20941 6.33295 6.12103 5.42137 6.12103 4.30087C6.12103 3.18037 5.20945 2.26879 4.08895 2.26879C2.96845 2.26879 2.05687 3.18037 2.05687 4.30087C2.05687 5.42137 2.96845 6.33295 4.08895 6.33295ZM4.08895 2.92509C4.84758 2.92509 5.46478 3.54229 5.46478 4.30091C5.46478 5.05954 4.84758 5.67674 4.08895 5.67674C3.33033 5.67674 2.71312 5.05954 2.71312 4.30091C2.71312 3.54229 3.33033 2.92509 4.08895 2.92509Z" fill="white"/>
</g>
<defs>
<clipPath id="clip0_695_413">
<rect width="24" height="24" fill="white"/>
</clipPath>
</defs>
</svg>
