<svg width="24" height="22" viewBox="0 0 24 22" fill="none" xmlns="http://www.w3.org/2000/svg">
<path fill-rule="evenodd" clip-rule="evenodd" d="M10.5856 16.1296H8.46711C8.25929 16.1296 8.09064 15.9609 8.09064 15.7532C8.09064 15.5454 8.25929 15.3767 8.46711 15.3767H10.5856V15.3258C10.5856 15.226 10.6252 15.1302 10.6958 15.0596C10.7664 14.989 10.8622 14.9494 10.962 14.9494H13.5863V9.05002C13.5863 8.95018 13.6259 8.85442 13.6965 8.78382C13.7671 8.71322 13.8629 8.67355 13.9627 8.67355H19.964C20.0639 8.67355 20.1597 8.71322 20.2303 8.78382C20.3009 8.85442 20.3405 8.95018 20.3405 9.05002V14.9494H22.9647C23.0646 14.9494 23.1603 14.989 23.2309 15.0596C23.3015 15.1302 23.3412 15.226 23.3412 15.3258V21.2251C23.3412 21.4248 23.2618 21.6163 23.1207 21.7576C22.9794 21.8987 22.7879 21.9781 22.5882 21.9781H17.3399C17.2077 21.9781 17.0778 21.9433 16.9634 21.8772C16.8489 21.9433 16.7191 21.9781 16.5869 21.9781H11.3385C11.1388 21.9781 10.9473 21.8987 10.8061 21.7575C10.6649 21.6163 10.5856 21.4248 10.5856 21.2251V17.4709H8.46711C8.25929 17.4709 8.09064 17.3022 8.09064 17.0944C8.09064 16.8866 8.25929 16.7179 8.46711 16.7179H10.5856V16.1296ZM14.6105 15.7023H13.3149V17.4217H14.6105V15.7023ZM12.562 15.7023H11.3385V21.195C11.3399 21.1954 11.3414 21.1958 11.3428 21.1962C11.3472 21.1889 11.3541 21.1944 11.3598 21.2039C11.3692 21.2096 11.3747 21.2165 11.3674 21.2208C11.3679 21.2223 11.3683 21.2237 11.3686 21.2251H16.5869V15.7023H15.3634V17.5475C15.3634 17.7139 15.2973 17.8733 15.1797 17.991C15.0621 18.1086 14.9026 18.1746 14.7363 18.1747H13.1891C13.0228 18.1746 12.8633 18.1086 12.7457 17.991C12.6281 17.8733 12.562 17.7139 12.562 17.5475V15.7023ZM19.5876 14.9494V9.4265H18.3641V11.2718C18.3641 11.4381 18.298 11.5976 18.1804 11.7152C18.0628 11.8328 17.9033 11.8989 17.7369 11.8989H16.1898C16.1074 11.8989 16.0259 11.8827 15.9498 11.8512C15.8737 11.8197 15.8046 11.7735 15.7463 11.7152C15.6881 11.657 15.6419 11.5879 15.6104 11.5118C15.5788 11.4357 15.5626 11.3541 15.5626 11.2718V9.4265H14.3392V14.9494H19.5876ZM17.6112 9.4265H16.3156V11.146H17.6112V9.4265ZM17.3399 21.2251C17.3399 21.1666 17.3641 21.2009 17.3699 21.2251H22.5581C22.564 21.2009 22.5882 21.1666 22.5882 21.2251V15.7023H21.3648V17.5475C21.3647 17.7138 21.2986 17.8733 21.181 17.9909C21.0634 18.1085 20.904 18.1746 20.7376 18.1747H19.1904C19.0241 18.1747 18.8646 18.1086 18.747 17.991C18.6294 17.8734 18.5633 17.7139 18.5633 17.5475V15.7023H17.3399V21.2251ZM20.6118 15.7023H19.3162V17.4217H20.6118V15.7023ZM12.8372 0.752941H0.752941V19.8555H9.92461C10.1324 19.8555 10.3011 20.0242 10.3011 20.232C10.3011 20.4397 10.1324 20.6084 9.92461 20.6084H0.376471C0.276624 20.6084 0.180868 20.5688 0.110266 20.4982C0.0396637 20.4276 0 20.3318 0 20.232V0.376471C0 0.276624 0.0396637 0.180868 0.110266 0.110266C0.180868 0.0396637 0.276624 2.49939e-10 0.376471 2.49939e-10H13.2136C13.2631 -1.8012e-06 13.312 0.00973443 13.3577 0.0286527C13.4034 0.0475709 13.4449 0.0753007 13.4799 0.110259L15.9626 2.59304C16.0332 2.66365 16.0729 2.7594 16.0729 2.85925V7.99501C16.0729 8.20278 15.9042 8.37148 15.6964 8.37148C15.4887 8.37148 15.32 8.20278 15.32 7.99501V3.23572H13.2136C13.1138 3.23572 13.018 3.19605 12.9474 3.12545C12.8768 3.05485 12.8372 2.95909 12.8372 2.85925V0.752941ZM14.7876 2.48278L13.5901 1.28536V2.48278H14.7876ZM3.74155 5.42235H5.79417C6.14875 5.42235 6.43845 5.71205 6.43845 6.06664V8.11925C6.43845 8.47379 6.14875 8.76353 5.79417 8.76353H3.74155C3.38701 8.76353 3.09727 8.47379 3.09727 8.11925V6.06664C3.09727 5.71205 3.38701 5.42235 3.74155 5.42235ZM3.85021 6.17529V8.01059H5.68551V6.17529H3.85021ZM3.74155 10.0872H5.79417C6.14875 10.0872 6.43845 10.3769 6.43845 10.7315V12.7841C6.43845 13.1387 6.14875 13.4284 5.79417 13.4284H3.74155C3.38701 13.4284 3.09727 13.1387 3.09727 12.7841V10.7315C3.09727 10.3769 3.38701 10.0872 3.74155 10.0872ZM3.85021 10.8401V12.6754H5.68551V10.8401H3.85021ZM3.74155 14.7522H5.79417C6.14838 14.7522 6.43845 15.0432 6.43845 15.3974V17.45C6.43845 17.8046 6.14875 18.0943 5.79417 18.0943H3.74155C3.38701 18.0943 3.09727 17.8046 3.09727 17.45V15.3974C3.09727 15.0432 3.38734 14.7522 3.74155 14.7522ZM3.85021 15.5051V17.3413H5.68551V15.5051H3.85021ZM8.46711 6.79878C8.25929 6.79878 8.09064 6.63007 8.09064 6.42231C8.09064 6.21454 8.25929 6.04584 8.46711 6.04584H12.7098C12.9176 6.04584 13.0863 6.21454 13.0863 6.42231C13.0863 6.63007 12.9176 6.79878 12.7098 6.79878H8.46711ZM8.46711 8.14C8.25929 8.14 8.09064 7.97134 8.09064 7.76353C8.09064 7.55577 8.25929 7.38706 8.46711 7.38706H11.229C11.4368 7.38706 11.6055 7.55577 11.6055 7.76353C11.6055 7.97134 11.4368 8.14 11.229 8.14H8.46711ZM8.46711 11.4636C8.25929 11.4636 8.09064 11.295 8.09064 11.0872C8.09064 10.8794 8.25929 10.7107 8.46711 10.7107H12.7098C12.9176 10.7107 13.0863 10.8794 13.0863 11.0872C13.0863 11.295 12.9176 11.4636 12.7098 11.4636H8.46711ZM8.46711 12.8049C8.25929 12.8049 8.09064 12.6362 8.09064 12.4284C8.09064 12.2207 8.25929 12.052 8.46711 12.052H11.229C11.4368 12.052 11.6055 12.2207 11.6055 12.4284C11.6055 12.6362 11.4368 12.8049 11.229 12.8049H8.46711ZM3.13388 3.23572C2.92607 3.23572 2.75741 3.06706 2.75741 2.85925C2.75741 2.65148 2.92607 2.48278 3.13388 2.48278H10.4688C10.6765 2.48278 10.8452 2.65148 10.8452 2.85925C10.8452 3.06706 10.6765 3.23572 10.4688 3.23572H3.13388Z" fill="white"/>
</svg>
