<svg width="24" height="24" viewBox="0 0 24 24" fill="none" xmlns="http://www.w3.org/2000/svg">
<path d="M21.3012 14.9279L21.3024 14.9269V9.05484L21.3014 9.05377C22.1178 8.76178 22.7087 7.97789 22.7087 7.06641C22.7087 5.90925 21.7565 4.95703 20.5993 4.95703C20.0805 4.95703 19.6032 5.14884 19.2341 5.46436C19.2337 5.46323 19.2333 5.46209 19.2329 5.46094L14.0748 2.49234L14.0734 2.49277C14.0967 2.36822 14.1095 2.24025 14.1095 2.10938C14.1095 0.952219 13.1573 0 12.0001 0C10.8429 0 9.89072 0.952219 9.89072 2.10938C9.89072 2.2402 9.90347 2.36817 9.92677 2.49267C9.92631 2.49258 9.92586 2.49248 9.92541 2.49234L4.76728 5.46094L4.76588 5.46422C4.39683 5.1488 3.91964 4.95703 3.40088 4.95703C2.24372 4.95703 1.2915 5.90925 1.2915 7.06641C1.2915 7.97789 1.88246 8.76183 2.69888 9.05377L2.69775 9.0548V14.9268C2.69809 14.9272 2.69843 14.9276 2.69879 14.9279C1.88241 15.2199 1.2915 16.0038 1.2915 16.9153C1.2915 18.0724 2.24372 19.0246 3.40088 19.0246C3.91814 19.0246 4.39411 18.834 4.76274 18.5202L4.76307 18.5245L9.92635 21.5048L9.92729 21.5044C9.90311 21.6317 9.89087 21.761 9.89072 21.8906C9.89072 23.0477 10.8429 24 12.0001 24C13.1573 24 14.1095 23.0477 14.1095 21.8906C14.1093 21.761 14.0971 21.6317 14.0729 21.5043C14.0732 21.5045 14.0735 21.5046 14.0738 21.5048L19.2371 18.5245L19.2378 18.5205C19.6064 18.8341 20.0822 19.0247 20.5993 19.0247C21.7565 19.0247 22.7087 18.0725 22.7087 16.9153C22.7087 16.0038 22.1176 15.2198 21.3012 14.9279ZM10.6281 3.71016L10.6283 3.70575C10.7499 3.81145 11.2467 4.21875 12.0001 4.21875C12.7532 4.21875 13.2498 3.81178 13.3714 3.70608L13.3721 3.71016L18.526 6.67641L18.5273 6.6758C18.5026 6.80454 18.4901 6.93532 18.4899 7.06641C18.4899 7.19559 18.5024 7.32202 18.5251 7.44502L18.5241 7.44469L13.3861 10.4114L13.3855 10.4156C13.2667 10.3103 12.765 9.89062 12.0001 9.89062C11.2356 9.89062 10.7341 10.3099 10.6151 10.4152L10.614 10.4114L5.47604 7.44469C5.47572 7.44478 5.47541 7.44487 5.4751 7.44497C5.49779 7.32197 5.51025 7.19555 5.51025 7.06641C5.51025 6.93319 5.49708 6.80283 5.47299 6.67622L5.47416 6.67641L10.6281 3.71016ZM5.47275 17.3105L5.47205 17.3107C5.4968 17.1825 5.51025 17.0504 5.51025 16.9153C5.51025 16.0038 4.9193 15.2199 4.10293 14.928L4.104 14.9269V9.05484C4.10364 9.05449 4.10327 9.05414 4.10288 9.05381C4.34964 8.96525 4.57784 8.83169 4.77591 8.65992L4.77619 8.66438L9.92213 11.6358C9.92254 11.6357 9.92295 11.6356 9.92335 11.6354C9.90183 11.7557 9.89091 11.8777 9.89072 12C9.89072 12.9115 10.4817 13.6954 11.2981 13.9874C11.2977 13.9877 11.2974 13.9881 11.297 13.9884V19.9021L11.2978 19.9033C11.0533 19.9911 10.8271 20.123 10.6303 20.2926L10.6304 20.2879L5.47275 17.3105ZM13.3698 20.288L13.3685 20.2914C13.172 20.1224 12.9462 19.9909 12.7023 19.9033L12.7033 19.9022V13.9884L12.7025 13.9873C13.5187 13.6952 14.1095 12.9113 14.1095 12C14.1095 11.8756 14.0978 11.7539 14.0768 11.6352L14.0781 11.6358L19.224 8.66438L19.2249 8.66044C19.4228 8.83195 19.6508 8.96532 19.8973 9.05377L19.8961 9.0548V14.9268L19.8976 14.9278C19.081 15.2196 18.4899 16.0036 18.4899 16.9153C18.4899 17.0503 18.5033 17.1825 18.5281 17.3107L18.5274 17.3104L13.3698 20.288Z" fill="white"/>
</svg>
