<svg width="24" height="24" viewBox="0 0 24 24" fill="none" xmlns="http://www.w3.org/2000/svg">
<g clip-path="url(#clip0_704_629)">
<path fill-rule="evenodd" clip-rule="evenodd" d="M5.33905 17.9334V19.3751C5.33905 19.4625 5.30435 19.5463 5.24257 19.608C5.18079 19.6698 5.09701 19.7045 5.00964 19.7045H0.705877C0.618511 19.7045 0.534724 19.6698 0.472947 19.608C0.411171 19.5463 0.376465 19.4625 0.376465 19.3751V15.8329C0.376465 15.7455 0.411171 15.6617 0.472947 15.6C0.534724 15.5382 0.618511 15.5035 0.705877 15.5035H5.00964C5.09701 15.5035 5.18079 15.5382 5.24257 15.6C5.30435 15.6617 5.33905 15.7455 5.33905 15.8329V17.2746H7.64847V14.7242C7.38818 14.773 7.10908 14.6968 6.90781 14.4956L5.8287 13.4174C5.50484 13.0935 5.50484 12.5666 5.8287 12.2427C6.68334 11.3881 6.07736 9.92385 4.86828 9.92385C4.40988 9.92385 4.03811 9.55204 4.03811 9.09369V7.56884C4.03811 7.11049 4.40988 6.73868 4.86828 6.73868C6.07736 6.73868 6.68334 5.27444 5.8287 4.41985C5.50465 4.09576 5.50465 3.57011 5.8287 3.24606L6.90771 2.1671C7.23176 1.84301 7.75741 1.84301 8.08145 2.1671C8.93609 3.02169 10.4003 2.41571 10.4003 1.20663C10.4003 0.74823 10.7721 0.376465 11.2305 0.376465H12.7553C13.2137 0.376465 13.5855 0.74823 13.5855 1.20663C13.5855 2.41571 15.0497 3.02169 15.9043 2.1671C16.2282 1.84319 16.7551 1.84319 17.079 2.1671L18.1571 3.24606C18.4812 3.57011 18.4812 4.09576 18.1571 4.41985C17.3025 5.27444 17.9092 6.73868 19.1175 6.73868C19.5774 6.73868 19.9477 7.11049 19.9477 7.56884V9.09369C19.9477 9.55204 19.5774 9.92385 19.1175 9.92385C17.9092 9.92385 17.3025 11.3881 18.1571 12.2427C18.481 12.5666 18.481 13.0935 18.1571 13.4174L17.079 14.4954C16.8814 14.6931 16.6081 14.7702 16.3515 14.7266V17.2746H18.6609V15.8329C18.6609 15.7455 18.6956 15.6617 18.7574 15.6C18.8192 15.5382 18.903 15.5035 18.9903 15.5035H23.2941C23.3815 15.5035 23.4653 15.5382 23.527 15.6C23.5888 15.6617 23.6235 15.7455 23.6235 15.8329V19.3751C23.6235 19.4625 23.5888 19.5463 23.527 19.608C23.4653 19.6698 23.3815 19.7045 23.2941 19.7045H18.9903C18.903 19.7045 18.8192 19.6698 18.7574 19.608C18.6956 19.5463 18.6609 19.4625 18.6609 19.3751V17.9334H16.0221C15.9347 17.9334 15.851 17.8987 15.7892 17.8369C15.7274 17.7751 15.6927 17.6914 15.6927 17.604V14.3207C14.8288 13.7399 13.5855 14.3424 13.5855 15.4559C13.5855 15.9158 13.2137 16.2861 12.7553 16.2861H12.3294V19.4225H14.1448C14.2322 19.4225 14.3159 19.4572 14.3777 19.519C14.4395 19.5807 14.4742 19.6645 14.4742 19.7519V23.2941C14.4742 23.3815 14.4395 23.4653 14.3777 23.527C14.3159 23.5888 14.2322 23.6235 14.1448 23.6235H9.84103C9.75366 23.6235 9.66988 23.5888 9.6081 23.527C9.54632 23.4653 9.51162 23.3815 9.51162 23.2941V19.7519C9.51162 19.6645 9.54632 19.5807 9.6081 19.519C9.66988 19.4572 9.75366 19.4225 9.84103 19.4225H11.6706V16.2861H11.2305C10.7721 16.2861 10.4003 15.9158 10.4003 15.4559C10.4003 14.3471 9.17105 13.7455 8.30729 14.3112V17.604C8.30729 17.6914 8.27258 17.7751 8.21081 17.8369C8.14903 17.8987 8.06524 17.9334 7.97788 17.9334H5.33905ZM4.68023 19.0457V16.1623H1.03529V19.0457H4.68023ZM11.2305 15.6272H12.7553C12.7778 15.6273 12.8001 15.6229 12.8209 15.6143C12.8417 15.6057 12.8606 15.593 12.8765 15.5771C12.8924 15.5612 12.9051 15.5423 12.9137 15.5215C12.9223 15.5007 12.9267 15.4784 12.9267 15.4559C12.9267 13.6615 15.1011 12.7605 16.3702 14.0296C16.4024 14.0618 16.4461 14.0799 16.4917 14.0799C16.5372 14.0799 16.5809 14.0618 16.6132 14.0296L17.6912 12.9515C17.7234 12.9193 17.7415 12.8756 17.7415 12.83C17.7415 12.7845 17.7234 12.7408 17.6912 12.7086C16.4221 11.4394 17.3231 9.26503 19.1175 9.26503C19.1401 9.26505 19.1623 9.26063 19.1831 9.25203C19.2039 9.24342 19.2228 9.2308 19.2387 9.21489C19.2547 9.19897 19.2673 9.18008 19.2759 9.15928C19.2845 9.13848 19.2889 9.11619 19.2889 9.09369V7.56884C19.2889 7.54634 19.2845 7.52405 19.2759 7.50325C19.2673 7.48245 19.2547 7.46356 19.2387 7.44764C19.2228 7.43173 19.2039 7.41911 19.1831 7.41051C19.1623 7.4019 19.1401 7.39748 19.1175 7.3975C17.3231 7.3975 16.4221 5.2231 17.6912 3.95397C17.7233 3.92187 17.7414 3.87833 17.7414 3.83294C17.7414 3.78754 17.7233 3.744 17.6912 3.7119L16.6132 2.63294C16.5809 2.60075 16.5372 2.58268 16.4917 2.58268C16.4461 2.58268 16.4024 2.60075 16.3702 2.63294C15.1011 3.90207 12.9267 3.00216 12.9267 1.20663C12.9267 1.16118 12.9086 1.1176 12.8765 1.08547C12.8443 1.05334 12.8007 1.03529 12.7553 1.03529H11.2305C11.1851 1.0353 11.1415 1.05336 11.1093 1.08549C11.0772 1.11762 11.0592 1.16119 11.0591 1.20663C11.0591 3.00216 8.88475 3.90207 7.61562 2.63294C7.58351 2.60084 7.53998 2.58281 7.49458 2.58281C7.44919 2.58281 7.40565 2.60084 7.37355 2.63294L6.29458 3.7119C6.26249 3.744 6.24446 3.78754 6.24446 3.83294C6.24446 3.87833 6.26249 3.92187 6.29458 3.95397C7.56371 5.2231 6.66381 7.3975 4.86828 7.3975C4.82284 7.39751 4.77926 7.41557 4.74713 7.4477C4.715 7.47983 4.69695 7.5234 4.69694 7.56884V9.09369C4.69695 9.13913 4.715 9.1827 4.74713 9.21483C4.77926 9.24696 4.82284 9.26502 4.86828 9.26503C6.66381 9.26503 7.56371 11.4394 6.29458 12.7086C6.2624 12.7408 6.24433 12.7845 6.24433 12.83C6.24433 12.8756 6.2624 12.9193 6.29458 12.9515L7.37355 14.0296C7.40565 14.0617 7.44919 14.0797 7.49458 14.0797C7.53998 14.0797 7.58351 14.0617 7.61562 14.0296C8.88583 12.7594 11.0591 13.6593 11.0591 15.4559C11.0591 15.4784 11.0635 15.5007 11.0722 15.5215C11.0808 15.5423 11.0934 15.5612 11.1093 15.5771C11.1252 15.593 11.1441 15.6056 11.1649 15.6142C11.1857 15.6228 11.208 15.6273 11.2305 15.6272ZM19.3198 16.1623V19.0457H22.9647V16.1623H19.3198ZM13.8154 20.0813H10.1704V22.9647H13.8154V20.0813ZM11.9934 12.8316C9.51444 12.8316 7.4935 10.8095 7.4935 8.33171C7.4935 5.85279 9.51444 3.83185 11.9934 3.83185C14.4711 3.83185 16.4932 5.85279 16.4932 8.33171C16.4932 10.8095 14.4711 12.8316 11.9934 12.8316ZM11.9934 12.1727C14.1084 12.1727 15.8344 10.4467 15.8344 8.33171C15.8344 6.21576 14.1084 4.49068 11.9934 4.49068C9.87741 4.49068 8.15232 6.21576 8.15232 8.33171C8.15232 10.4467 9.87741 12.1727 11.9934 12.1727ZM12.0511 9.38663C12.0285 9.47099 11.9733 9.54291 11.8976 9.58659C11.822 9.63026 11.7321 9.64213 11.6477 9.61957C11.5633 9.59692 11.4914 9.5417 11.4477 9.46604C11.4041 9.39038 11.3922 9.30048 11.4148 9.21609L11.9347 7.2759C11.9817 7.10028 12.1625 6.9959 12.3381 7.04296C12.5137 7.09002 12.6181 7.27082 12.5711 7.44644L12.0511 9.38663ZM13.2425 9.43858C13.1669 9.48223 13.077 9.49404 12.9926 9.47143C12.9082 9.44883 12.8363 9.39365 12.7926 9.31802C12.7489 9.24235 12.7371 9.15245 12.7597 9.06808C12.7823 8.98371 12.8375 8.91176 12.9131 8.86804L13.8429 8.33124L12.9131 7.79449C12.8375 7.75077 12.7823 7.67882 12.7597 7.59445C12.7371 7.51008 12.7489 7.42018 12.7926 7.34451C12.8363 7.26888 12.9082 7.2137 12.9926 7.1911C13.077 7.16849 13.1669 7.18031 13.2425 7.22395L14.6664 8.04597C14.7165 8.07489 14.758 8.11648 14.787 8.16656C14.8159 8.21664 14.8311 8.27344 14.8311 8.33127C14.8311 8.38909 14.8159 8.44589 14.787 8.49597C14.758 8.54605 14.7165 8.58764 14.6664 8.61656L13.2425 9.43858ZM11.0727 8.86804C11.1483 8.91175 11.2035 8.9837 11.2261 9.06807C11.2487 9.15244 11.2369 9.24234 11.1933 9.31802C11.1495 9.39365 11.0776 9.44883 10.9932 9.47144C10.9088 9.49405 10.8189 9.48223 10.7432 9.43858L9.31943 8.61656C9.26936 8.58764 9.22778 8.54605 9.19887 8.49597C9.16996 8.44589 9.15475 8.38909 9.15475 8.33127C9.15475 8.27344 9.16996 8.21664 9.19887 8.16656C9.22778 8.11648 9.26936 8.07489 9.31943 8.04597L10.7432 7.22395C10.8189 7.1803 10.9088 7.16849 10.9932 7.19109C11.0776 7.2137 11.1495 7.26888 11.1933 7.34451C11.2369 7.42019 11.2487 7.51009 11.2261 7.59446C11.2035 7.67883 11.1483 7.75078 11.0727 7.79449L10.143 8.33124L11.0727 8.86804Z" fill="white"/>
</g>
<defs>
<clipPath id="clip0_704_629">
<rect width="24" height="24" fill="white"/>
</clipPath>
</defs>
</svg>
