<svg width="23" height="23" viewBox="0 0 23 23" fill="none" xmlns="http://www.w3.org/2000/svg">
<path d="M17.1112 22.5H5.38875C2.41725 22.5 0 20.0828 0 17.112V5.388C0 2.41725 2.41725 0 5.38875 0H17.112C20.0828 0 22.5 2.41725 22.5 5.388V17.112C22.5 20.0828 20.0828 22.5 17.1112 22.5ZM5.38875 1.5C4.35782 1.50099 3.3694 1.91091 2.64035 2.63982C1.9113 3.36872 1.50119 4.35707 1.5 5.388V17.112C1.50119 18.1429 1.9113 19.1313 2.64035 19.8602C3.3694 20.5891 4.35782 20.999 5.38875 21H17.112C18.1428 20.9988 19.131 20.5888 19.8599 19.8599C20.5888 19.131 20.9988 18.1428 21 17.112V5.388C20.9988 4.35707 20.5887 3.36872 19.8596 2.63982C19.1306 1.91091 18.1422 1.50099 17.1112 1.5H5.38875Z" fill="white"/>
<path d="M10.875 7.50014C10.6761 7.50014 10.4853 7.57916 10.3447 7.71981C10.204 7.86047 10.125 8.05123 10.125 8.25014V11.2501C10.125 12.4906 9.28425 13.5001 8.25 13.5001C7.21575 13.5001 6.375 12.4906 6.375 11.2501V8.25014C6.375 7.83839 6.03675 7.50014 5.625 7.50014C5.21325 7.50014 4.875 7.83839 4.875 8.25014V11.2501C4.875 13.3179 6.38925 15.0001 8.25 15.0001C10.1108 15.0001 11.625 13.3179 11.625 11.2501V8.25014C11.625 8.05123 11.546 7.86047 11.4053 7.71981C11.2647 7.57916 11.0739 7.50014 10.875 7.50014ZM15.8843 11.2501L17.511 8.64764C17.6096 8.47926 17.6387 8.27906 17.5921 8.08957C17.5456 7.90007 17.4269 7.73619 17.2615 7.63272C17.096 7.52925 16.8968 7.49434 16.706 7.53541C16.5152 7.57647 16.348 7.69027 16.2397 7.85264L15 9.83564L13.761 7.85339C13.7103 7.76682 13.6427 7.6913 13.5623 7.63131C13.4819 7.57131 13.3903 7.52806 13.2929 7.50411C13.1954 7.48016 13.0942 7.476 12.9951 7.49187C12.8961 7.50775 12.8012 7.54333 12.7162 7.59653C12.6311 7.64972 12.5576 7.71944 12.4999 7.80156C12.4423 7.88368 12.4017 7.97653 12.3806 8.0746C12.3595 8.17268 12.3583 8.274 12.377 8.37256C12.3958 8.47112 12.4341 8.56491 12.4897 8.64839L14.1157 11.2501L12.489 13.8526C12.3843 14.0214 12.3505 14.2248 12.3951 14.4183C12.4396 14.6119 12.5588 14.7801 12.7267 14.8861C12.8957 14.9906 13.099 15.0241 13.2925 14.9794C13.4861 14.9348 13.6542 14.8155 13.7603 14.6476L15 12.6646L16.239 14.6469C16.4573 14.9956 16.9238 15.1036 17.2725 14.8854C17.6213 14.6671 17.7285 14.2006 17.5103 13.8519L15.8843 11.2501Z" fill="white"/>
</svg>
