<svg width="24" height="24" viewBox="0 0 24 24" fill="none" xmlns="http://www.w3.org/2000/svg">
<g clip-path="url(#clip0_695_225)">
<path fill-rule="evenodd" clip-rule="evenodd" d="M12.7711 16.1998V22.4979H9.88964C9.83039 21.6942 9.15924 21.0602 8.34042 21.0602C7.52161 21.0602 6.85045 21.6942 6.7912 22.4979H6.09881V16.1998C6.09881 16.0079 6.25528 15.8514 6.44709 15.8514H12.4228C12.6146 15.8514 12.7711 16.0079 12.7711 16.1998ZM17.6988 18.4837C17.8272 18.6235 17.8907 18.7868 17.8907 18.9766V20.979H17.5359C17.4928 20.9789 17.4502 20.9874 17.4104 21.0039C17.3706 21.0204 17.3344 21.0446 17.3039 21.0751C17.2734 21.1055 17.2493 21.1417 17.2328 21.1815C17.2163 21.2213 17.2078 21.264 17.2078 21.3071C17.2078 21.3502 17.2163 21.3928 17.2328 21.4326C17.2493 21.4725 17.2734 21.5086 17.3039 21.5391C17.3344 21.5696 17.3706 21.5937 17.4104 21.6102C17.4502 21.6267 17.4928 21.6352 17.5359 21.6352H17.8907V22.4979H16.8638C16.8045 21.6942 16.1334 21.0602 15.3146 21.0602C14.4958 21.0602 13.8247 21.6942 13.7654 22.4979H13.4273V16.9772H15.9959C16.2076 16.9772 16.3899 17.0573 16.533 17.2133L17.6988 18.4837ZM17.2733 18.9691L16.1075 17.6987C16.067 17.6545 16.0221 17.6216 15.9736 17.6003C15.9263 17.5795 15.872 17.5689 15.8114 17.5689H14.5788V18.969H17.2733V18.9691ZM8.64319 3.84061C8.64319 1.99462 10.1488 0.489044 11.9948 0.489044C13.8407 0.489044 15.3463 1.99462 15.3463 3.84061C15.3463 5.68659 13.8407 7.19217 11.9948 7.19217C10.1488 7.19217 8.64319 5.68659 8.64319 3.84061ZM12.6645 4.62089C12.6503 4.72031 12.5857 4.80525 12.4876 4.85404C12.1108 5.04201 11.4345 4.9252 11.2816 4.64643C11.261 4.60859 11.2331 4.5752 11.1995 4.54815C11.1659 4.52111 11.1274 4.50096 11.086 4.48885C11.0446 4.47674 11.0013 4.47291 10.9584 4.47759C10.9156 4.48226 10.8741 4.49534 10.8363 4.51608C10.7601 4.55795 10.7035 4.62834 10.6791 4.7118C10.6547 4.79527 10.6643 4.88502 10.7059 4.96139C10.8862 5.29031 11.2594 5.49211 11.6666 5.56748V5.86218C11.6666 6.04317 11.8133 6.1905 11.9947 6.1905C12.1762 6.1905 12.3228 6.04317 12.3228 5.86218V5.58023C12.4876 5.55558 12.6438 5.50931 12.7799 5.44172C13.07 5.29734 13.2697 5.02509 13.3142 4.71328C13.3569 4.41525 13.2552 4.12833 13.0354 3.92587C12.8702 3.77358 12.6316 3.6525 12.3266 3.56526C12.2398 3.54089 12.1478 3.51942 12.0593 3.49837C11.8413 3.44686 11.5943 3.38812 11.4687 3.29072C11.4158 3.24937 11.3505 3.18183 11.3445 3.09618C11.3397 3.03426 11.3675 2.9692 11.4213 2.91229C11.5516 2.77739 11.8607 2.70848 12.1565 2.74828C12.3921 2.78081 12.5797 2.87592 12.6454 2.99728C12.6658 3.03523 12.6935 3.06879 12.7268 3.09605C12.7602 3.1233 12.7986 3.14371 12.8398 3.15612C12.8811 3.16852 12.9244 3.17267 12.9672 3.16833C13.0101 3.16399 13.0517 3.15125 13.0896 3.13083C13.2491 3.04472 13.3086 2.84592 13.2227 2.68593C13.0647 2.3924 12.7389 2.18531 12.3228 2.11054V1.81875C12.3228 1.63734 12.1762 1.49067 11.9947 1.49067C11.8133 1.49067 11.6666 1.63729 11.6666 1.81875V2.10815C11.3751 2.15962 11.1179 2.28126 10.9479 2.45817C10.7631 2.65045 10.6718 2.8942 10.6901 3.1439C10.7084 3.399 10.8424 3.63534 11.0665 3.80906C11.3047 3.99431 11.6253 4.07025 11.9084 4.1369C11.9938 4.15701 12.0745 4.17623 12.147 4.19681C12.403 4.27003 12.5295 4.35201 12.5905 4.40826C12.6707 4.48214 12.6712 4.57322 12.6646 4.62089H12.6645ZM22.7307 11.2013L22.3974 12.0046L22.8285 12.6474L21.94 13.5359L21.2972 13.1048L20.4939 13.4381L20.3443 14.1968H19.0878L18.9382 13.4381L18.1348 13.1048L17.4921 13.5359L16.6035 12.6474L17.0346 12.0046L16.7014 11.2013L15.9426 11.0517V9.79519L16.7014 9.64556L17.0346 8.84222L16.6035 8.19947L17.4921 7.31095L18.1348 7.74201L18.9382 7.40878L19.0878 6.64997H20.3443L20.4939 7.40878L21.2972 7.74201L21.94 7.31095L22.8285 8.19947L22.3974 8.84222L22.7307 9.64556L23.4895 9.79519V11.0517L22.7307 11.2013ZM21.6435 10.4235C21.6435 9.36187 20.7776 8.496 19.716 8.496C18.6544 8.496 17.7885 9.36183 17.7885 10.4235C17.7885 11.4851 18.6544 12.3509 19.716 12.3509C20.7776 12.3509 21.6435 11.4851 21.6435 10.4235ZM16.4563 2.77837H19.3878V5.19478C19.3878 5.37576 19.5352 5.52286 19.7161 5.52286C19.8971 5.52286 20.0442 5.37576 20.0442 5.19478V2.45029C20.0443 2.4072 20.0358 2.36453 20.0193 2.32471C20.0028 2.28489 19.9787 2.24871 19.9482 2.21824C19.9177 2.18777 19.8816 2.16361 19.8417 2.14714C19.8019 2.13067 19.7592 2.12222 19.7161 2.12226H16.4563C16.2755 2.12226 16.1282 2.26889 16.1282 2.45029C16.1282 2.6317 16.2755 2.77837 16.4563 2.77837ZM2.64802 5.42386C2.69111 5.4239 2.73378 5.41544 2.7736 5.39897C2.81342 5.3825 2.8496 5.35834 2.88007 5.32787C2.91054 5.29741 2.9347 5.26123 2.95117 5.22141C2.96764 5.18159 2.97609 5.13892 2.97605 5.09583V2.77837H7.56849C7.74947 2.77837 7.89656 2.63104 7.89656 2.45029C7.89656 2.26954 7.74947 2.12226 7.56849 2.12226H2.64802C2.60493 2.12226 2.56227 2.13074 2.52247 2.14722C2.48267 2.1637 2.4465 2.18786 2.41603 2.21832C2.38557 2.24879 2.3614 2.28495 2.34491 2.32475C2.32842 2.36455 2.31994 2.40721 2.31994 2.45029V5.09583C2.31994 5.13891 2.32842 5.18157 2.34491 5.22137C2.3614 5.26117 2.38557 5.29733 2.41603 5.3278C2.4465 5.35826 2.48267 5.38242 2.52247 5.3989C2.56227 5.41538 2.60493 5.42386 2.64802 5.42386ZM19.7161 15.2579C19.5352 15.2579 19.3878 15.4045 19.3878 15.5859V19.0207H18.8385C18.6571 19.0207 18.5105 19.1673 18.5105 19.3487C18.5105 19.5302 18.6571 19.6768 18.8385 19.6768H19.7161C19.7592 19.6768 19.8019 19.6684 19.8417 19.6519C19.8815 19.6354 19.9177 19.6113 19.9482 19.5808C19.9786 19.5503 20.0028 19.5141 20.0193 19.4743C20.0357 19.4345 20.0442 19.3918 20.0442 19.3487V15.5859C20.0442 15.5428 20.0358 15.5002 20.0193 15.4603C20.0028 15.4205 19.9787 15.3843 19.9482 15.3539C19.9177 15.3234 19.8815 15.2992 19.8417 15.2827C19.8019 15.2663 19.7592 15.2578 19.7161 15.2579H19.7161ZM4.6837 19.0207H2.97605V15.7748C2.97605 15.5936 2.82942 15.4467 2.64802 15.4467C2.46661 15.4467 2.31994 15.5936 2.31994 15.7748V19.3487C2.31994 19.4357 2.3545 19.5192 2.41603 19.5807C2.47756 19.6422 2.561 19.6768 2.64802 19.6768H4.6837C4.86516 19.6768 5.01202 19.5302 5.01202 19.3487C5.01202 19.1673 4.86516 19.0207 4.6837 19.0207ZM6.7462 14.4839H0.510376V6.3629H5.27166V7.50923C5.27166 7.69003 5.41913 7.8375 5.59992 7.8375H6.7462V14.484V14.4839ZM1.77591 8.66015H3.10828V7.89061H1.77591V8.66015ZM5.80875 12.9562C5.80874 12.9131 5.80025 12.8704 5.78375 12.8306C5.76725 12.7908 5.74306 12.7546 5.71258 12.7241C5.6821 12.6936 5.64591 12.6695 5.60609 12.653C5.56626 12.6365 5.52358 12.6281 5.48049 12.6281H1.77595C1.59455 12.6281 1.44788 12.7749 1.44788 12.9562C1.44788 13.1374 1.5945 13.2844 1.77595 13.2844H5.48044C5.56749 13.2844 5.65096 13.2498 5.71252 13.1882C5.77407 13.1267 5.80871 13.0432 5.80875 12.9562ZM5.80875 11.5529C5.80876 11.5098 5.80028 11.4671 5.78378 11.4272C5.76729 11.3874 5.74311 11.3512 5.71262 11.3208C5.68213 11.2903 5.64594 11.2661 5.60611 11.2497C5.56628 11.2332 5.52359 11.2247 5.48049 11.2248H1.77595C1.59455 11.2248 1.44788 11.3714 1.44788 11.5529C1.44788 11.7343 1.5945 11.8809 1.77595 11.8809H5.48044C5.56747 11.8809 5.65095 11.8464 5.7125 11.7849C5.77406 11.7233 5.80871 11.6399 5.80875 11.5529ZM5.80875 10.1493C5.80877 10.1062 5.80029 10.0635 5.7838 10.0237C5.7673 9.98388 5.74312 9.9477 5.71263 9.91723C5.68215 9.88676 5.64595 9.8626 5.60611 9.84613C5.56628 9.82966 5.52359 9.8212 5.48049 9.82125H1.77595C1.59455 9.82125 1.44788 9.96787 1.44788 10.1493C1.44788 10.3308 1.5945 10.4776 1.77595 10.4776H5.48044C5.56749 10.4776 5.65097 10.443 5.71252 10.3814C5.77407 10.3199 5.80871 10.2364 5.80875 10.1493ZM6.45281 7.18125L5.92786 6.65629V7.18125H6.45281ZM8.34042 21.7164C7.84622 21.7164 7.44314 22.1195 7.44314 22.6137C7.44314 23.1079 7.84622 23.511 8.34042 23.511C8.83463 23.511 9.23771 23.1079 9.23771 22.6137C9.23771 22.1195 8.83463 21.7164 8.34042 21.7164ZM15.3145 21.7164C14.8203 21.7164 14.4173 22.1195 14.4173 22.6137C14.4173 23.1079 14.8203 23.511 15.3145 23.511C15.8087 23.511 16.2118 23.1079 16.2118 22.6137C16.2118 22.1195 15.8087 21.7164 15.3145 21.7164Z" fill="white"/>
</g>
<defs>
<clipPath id="clip0_695_225">
<rect width="24" height="24" fill="white"/>
</clipPath>
</defs>
</svg>
