<svg width="20" height="20" viewBox="0 0 20 20" fill="none" xmlns="http://www.w3.org/2000/svg">
<path d="M0.428571 6C0.542236 6 0.651244 5.95485 0.731617 5.87448C0.81199 5.7941 0.857143 5.68509 0.857143 5.57143V2.23886C0.857597 1.87254 1.00332 1.52136 1.26234 1.26234C1.52136 1.00332 1.87254 0.857597 2.23886 0.857143H5.57143C5.68509 0.857143 5.7941 0.81199 5.87448 0.731617C5.95485 0.651244 6 0.542236 6 0.428571C6 0.314907 5.95485 0.205898 5.87448 0.125526C5.7941 0.045153 5.68509 0 5.57143 0H2.23886C1.64528 0.000680574 1.07622 0.236778 0.656498 0.656498C0.236778 1.07622 0.000680574 1.64528 0 2.23886V5.57143C0 5.68509 0.045153 5.7941 0.125526 5.87448C0.205898 5.95485 0.314907 6 0.428571 6ZM17.4754 0H14.1429C14.0292 0 13.9202 0.045153 13.8398 0.125526C13.7594 0.205898 13.7143 0.314907 13.7143 0.428571C13.7143 0.542236 13.7594 0.651244 13.8398 0.731617C13.9202 0.81199 14.0292 0.857143 14.1429 0.857143H17.4754C17.8417 0.857597 18.1929 1.00332 18.4519 1.26234C18.711 1.52136 18.8567 1.87254 18.8571 2.23886V5.57143C18.8571 5.68509 18.9023 5.7941 18.9827 5.87448C19.063 5.95485 19.1721 6 19.2857 6C19.3994 6 19.5084 5.95485 19.5888 5.87448C19.6691 5.7941 19.7143 5.68509 19.7143 5.57143V2.23886C19.7136 1.64528 19.4775 1.07622 19.0578 0.656498C18.6381 0.236778 18.069 0.000680574 17.4754 0ZM5.57143 18.8571H2.23886C1.87254 18.8567 1.52136 18.711 1.26234 18.4519C1.00332 18.1929 0.857597 17.8417 0.857143 17.4754V14.1429C0.857143 14.0292 0.81199 13.9202 0.731617 13.8398C0.651244 13.7594 0.542236 13.7143 0.428571 13.7143C0.314907 13.7143 0.205898 13.7594 0.125526 13.8398C0.045153 13.9202 0 14.0292 0 14.1429V17.4754C0.000680574 18.069 0.236778 18.6381 0.656498 19.0578C1.07622 19.4775 1.64528 19.7136 2.23886 19.7143H5.57143C5.68509 19.7143 5.7941 19.6691 5.87448 19.5888C5.95485 19.5084 6 19.3994 6 19.2857C6 19.1721 5.95485 19.063 5.87448 18.9827C5.7941 18.9023 5.68509 18.8571 5.57143 18.8571ZM19.2857 13.7143C19.1721 13.7143 19.063 13.7594 18.9827 13.8398C18.9023 13.9202 18.8571 14.0292 18.8571 14.1429V17.4754C18.8567 17.8417 18.711 18.1929 18.4519 18.4519C18.1929 18.711 17.8417 18.8567 17.4754 18.8571H14.1429C14.0292 18.8571 13.9202 18.9023 13.8398 18.9827C13.7594 19.063 13.7143 19.1721 13.7143 19.2857C13.7143 19.3994 13.7594 19.5084 13.8398 19.5888C13.9202 19.6691 14.0292 19.7143 14.1429 19.7143H17.4754C18.069 19.7136 18.6381 19.4775 19.0578 19.0578C19.4775 18.6381 19.7136 18.069 19.7143 17.4754V14.1429C19.7143 14.0292 19.6691 13.9202 19.5888 13.8398C19.5084 13.7594 19.3994 13.7143 19.2857 13.7143ZM15.8571 13.0714V6.64286C15.8571 6.56763 15.8373 6.49373 15.7997 6.42858C15.7621 6.36343 15.708 6.30933 15.6429 6.27172L10.0714 3.05743C10.0063 3.01981 9.93237 3.00001 9.85714 3.00001C9.78191 3.00001 9.70801 3.01981 9.64286 3.05743L4.07571 6.27172C4.01057 6.30933 3.95646 6.36343 3.91885 6.42858C3.88123 6.49373 3.86143 6.56763 3.86143 6.64286V13.0714C3.86143 13.1467 3.88123 13.2206 3.91885 13.2857C3.95646 13.3509 4.01057 13.405 4.07571 13.4426L9.64714 16.6569C9.71229 16.6945 9.7862 16.7143 9.86143 16.7143C9.93666 16.7143 10.0106 16.6945 10.0757 16.6569L15.6471 13.4426C15.7115 13.4044 15.7647 13.3501 15.8016 13.285C15.8384 13.2199 15.8576 13.1462 15.8571 13.0714ZM9.85714 3.92314L14.5714 6.64286L9.85714 9.36257L5.14714 6.64286L9.85714 3.92314ZM4.71857 7.38514L9.42857 10.1049V15.5434L4.71857 12.8237V7.38514ZM10.2857 15.5434V10.1049L15 7.38514V12.8237L10.2857 15.5434Z" fill="white"/>
</svg>
