<svg width="24" height="24" viewBox="0 0 24 24" fill="none" xmlns="http://www.w3.org/2000/svg">
<g clip-path="url(#clip0_695_449)">
<path d="M2.76374 8.79108C2.79632 8.82374 2.83503 8.84964 2.87765 8.8673C2.92027 8.88495 2.96596 8.89402 3.01209 8.89397C3.08156 8.89395 3.14946 8.87334 3.20722 8.83474C3.26498 8.79614 3.31 8.74129 3.33659 8.67711C3.36318 8.61293 3.37015 8.5423 3.35661 8.47417C3.34307 8.40603 3.30963 8.34343 3.26053 8.29429L2.40763 7.4414L3.26057 6.58869C3.32461 6.52244 3.36006 6.43368 3.35928 6.34154C3.35849 6.2494 3.32154 6.16125 3.25639 6.0961C3.19123 6.03094 3.10309 5.99399 3.01094 5.99321C2.9188 5.99242 2.83004 6.02787 2.76379 6.09191L1.6626 7.1931C1.62997 7.22572 1.60409 7.26444 1.58644 7.30706C1.56878 7.34968 1.55969 7.39536 1.55969 7.44149C1.55969 7.48762 1.56878 7.53331 1.58644 7.57592C1.60409 7.61854 1.62997 7.65727 1.6626 7.68988L2.76374 8.79108ZM6.24938 7.4414L5.39649 8.29429C5.36386 8.32692 5.33799 8.36565 5.32034 8.40827C5.30269 8.4509 5.29362 8.49659 5.29364 8.54272C5.29365 8.58886 5.30276 8.63454 5.32044 8.67715C5.33812 8.71977 5.36403 8.75848 5.39667 8.79108C5.46511 8.85951 5.55507 8.89397 5.64497 8.89397C5.73488 8.89397 5.82479 8.85956 5.89327 8.79108L6.99465 7.6897C7.02726 7.65709 7.05313 7.61838 7.07078 7.57578C7.08843 7.53318 7.09752 7.48751 7.09752 7.4414C7.09752 7.39528 7.08843 7.34962 7.07078 7.30702C7.05313 7.26441 7.02726 7.2257 6.99465 7.1931L5.89327 6.09172C5.86067 6.05911 5.82196 6.03324 5.77935 6.01559C5.73675 5.99794 5.69109 5.98885 5.64497 5.98885C5.59886 5.98885 5.55319 5.99794 5.51059 6.01559C5.46799 6.03324 5.42928 6.05911 5.39667 6.09172C5.36402 6.12432 5.33812 6.16304 5.32044 6.20566C5.30277 6.24828 5.29367 6.29397 5.29367 6.34011C5.29367 6.38625 5.30277 6.43194 5.32044 6.47456C5.33812 6.51719 5.36402 6.5559 5.39667 6.58851L6.24938 7.4414ZM3.80493 8.86964C3.84703 8.88609 3.89062 8.89401 3.93328 8.89401C4.00387 8.894 4.07282 8.87273 4.13116 8.83298C4.18949 8.79322 4.2345 8.73682 4.26033 8.67112L5.1255 6.46855C5.14296 6.42552 5.15171 6.37944 5.15124 6.333C5.15077 6.28657 5.1411 6.24068 5.12278 6.198C5.10446 6.15533 5.07786 6.11671 5.04451 6.08439C5.01116 6.05206 4.97174 6.02667 4.92851 6.00968C4.88529 5.9927 4.83913 5.98445 4.79269 5.98543C4.74626 5.9864 4.70049 5.99658 4.65801 6.01536C4.61554 6.03415 4.57722 6.06117 4.54526 6.09487C4.5133 6.12857 4.48834 6.16827 4.47183 6.21168L3.60642 8.41425C3.53559 8.59476 3.62437 8.79876 3.80493 8.86964ZM2.10974 10.9546H4.476C4.56916 10.9546 4.65851 10.9176 4.72439 10.8518C4.79027 10.7859 4.82728 10.6965 4.82728 10.6034C4.82728 10.5102 4.79027 10.4208 4.72439 10.355C4.65851 10.2891 4.56916 10.2521 4.476 10.2521H2.10974C2.06362 10.2521 2.01795 10.2612 1.97534 10.2788C1.93273 10.2964 1.89401 10.3223 1.8614 10.3549C1.82879 10.3875 1.80292 10.4263 1.78527 10.4689C1.76762 10.5115 1.75854 10.5572 1.75855 10.6033C1.75853 10.6494 1.76759 10.6951 1.78523 10.7377C1.80287 10.7804 1.82873 10.8191 1.86135 10.8517C1.89396 10.8844 1.93268 10.9102 1.9753 10.9279C2.01792 10.9456 2.06361 10.9546 2.10974 10.9546ZM9.92599 10.2521H5.76582C5.67265 10.2521 5.5833 10.2891 5.51742 10.355C5.45154 10.4208 5.41453 10.5102 5.41453 10.6034C5.41453 10.6965 5.45154 10.7859 5.51742 10.8518C5.5833 10.9176 5.67265 10.9546 5.76582 10.9546H9.92599C9.9726 10.9554 10.0189 10.9469 10.0622 10.9296C10.1055 10.9123 10.1449 10.8865 10.1781 10.8538C10.2114 10.8211 10.2377 10.7821 10.2558 10.7391C10.2738 10.6961 10.2831 10.65 10.2831 10.6034C10.2831 10.5567 10.2738 10.5106 10.2558 10.4676C10.2377 10.4246 10.2114 10.3856 10.1781 10.3529C10.1449 10.3202 10.1055 10.2945 10.0622 10.2772C10.0189 10.2598 9.9726 10.2513 9.92599 10.2521ZM2.10974 12.4362H3.11774C3.21092 12.4362 3.30027 12.3992 3.36615 12.3333C3.43204 12.2674 3.46905 12.1781 3.46905 12.0849C3.46905 11.9917 3.43204 11.9024 3.36615 11.8365C3.30027 11.7706 3.21092 11.7336 3.11774 11.7336H2.10974C2.06362 11.7336 2.01794 11.7426 1.97533 11.7603C1.93271 11.7779 1.89399 11.8038 1.86138 11.8364C1.82877 11.8691 1.8029 11.9078 1.78526 11.9504C1.76761 11.993 1.75854 12.0387 1.75855 12.0848C1.75853 12.1309 1.76759 12.1766 1.78523 12.2193C1.80287 12.2619 1.82873 12.3006 1.86135 12.3333C1.89396 12.3659 1.93268 12.3918 1.9753 12.4094C2.01792 12.4271 2.06361 12.4362 2.10974 12.4362ZM8.64095 11.7336C8.59483 11.7336 8.54915 11.7426 8.50654 11.7603C8.46393 11.7779 8.42521 11.8038 8.39259 11.8364C8.35998 11.8691 8.33411 11.9078 8.31647 11.9504C8.29883 11.993 8.28975 12.0387 8.28976 12.0848C8.28974 12.1309 8.2988 12.1766 8.31644 12.2193C8.33408 12.2619 8.35995 12.3006 8.39256 12.3333C8.42517 12.3659 8.4639 12.3918 8.50652 12.4094C8.54914 12.4271 8.59482 12.4362 8.64095 12.4362H9.25474C9.30121 12.4367 9.34733 12.428 9.39043 12.4106C9.43352 12.3932 9.47273 12.3674 9.50578 12.3347C9.53884 12.3021 9.56508 12.2632 9.58299 12.2203C9.6009 12.1774 9.61012 12.1314 9.61012 12.0849C9.61012 12.0384 9.6009 11.9924 9.58299 11.9495C9.56508 11.9066 9.53884 11.8677 9.50578 11.835C9.47273 11.8023 9.43352 11.7766 9.39043 11.7591C9.34733 11.7417 9.30121 11.733 9.25474 11.7336H8.64095ZM7.71643 12.0848C7.71642 11.9917 7.67942 11.9023 7.61356 11.8365C7.54771 11.7706 7.45839 11.7336 7.36524 11.7336H4.35023C4.3041 11.7336 4.25843 11.7426 4.21581 11.7603C4.17319 11.7779 4.13446 11.8038 4.10184 11.8364C4.06923 11.869 4.04336 11.9078 4.02571 11.9504C4.00806 11.993 3.99898 12.0387 3.999 12.0848C3.99897 12.1309 4.00804 12.1766 4.02568 12.2193C4.04332 12.2619 4.06919 12.3006 4.10181 12.3333C4.13443 12.3659 4.17316 12.3918 4.21578 12.4094C4.25841 12.4271 4.30409 12.4362 4.35023 12.4362H7.36524C7.41138 12.4362 7.45705 12.4271 7.49967 12.4094C7.54228 12.3917 7.581 12.3659 7.61361 12.3332C7.64622 12.3006 7.67209 12.2619 7.68973 12.2192C7.70737 12.1766 7.71645 12.1309 7.71643 12.0848ZM10.0173 12.0848C10.0173 12.1309 10.0264 12.1766 10.0441 12.2192C10.0617 12.2619 10.0876 12.3006 10.1202 12.3332C10.1528 12.3659 10.1915 12.3917 10.2341 12.4094C10.2767 12.4271 10.3224 12.4362 10.3685 12.4362H11.5183C11.5648 12.4367 11.6109 12.428 11.654 12.4106C11.6971 12.3932 11.7363 12.3674 11.7693 12.3347C11.8024 12.3021 11.8286 12.2632 11.8465 12.2203C11.8645 12.1774 11.8737 12.1314 11.8737 12.0849C11.8737 12.0384 11.8645 11.9924 11.8465 11.9495C11.8286 11.9066 11.8024 11.8677 11.7693 11.835C11.7363 11.8023 11.6971 11.7766 11.654 11.7591C11.6109 11.7417 11.5648 11.733 11.5183 11.7336H10.3685C10.2754 11.7336 10.1861 11.7706 10.1202 11.8365C10.0544 11.9023 10.0174 11.9917 10.0173 12.0848ZM8.10447 7.72321H9.31713C9.3636 7.72375 9.40972 7.71506 9.45282 7.69765C9.49591 7.68023 9.53512 7.65444 9.56817 7.62177C9.60123 7.58909 9.62747 7.55018 9.64538 7.50729C9.66329 7.4644 9.67251 7.41839 9.67251 7.37191C9.67251 7.32543 9.66329 7.27941 9.64538 7.23652C9.62747 7.19363 9.60123 7.15472 9.56817 7.12205C9.53512 7.08937 9.49591 7.06358 9.45282 7.04617C9.40972 7.02875 9.3636 7.02006 9.31713 7.0206H8.10447C8.01129 7.0206 7.92194 7.05761 7.85606 7.1235C7.79017 7.18938 7.75316 7.27873 7.75316 7.37191C7.75316 7.46508 7.79017 7.55443 7.85606 7.62032C7.92194 7.6862 8.01129 7.72321 8.10447 7.72321ZM10.6754 7.72321H18.075C18.1211 7.72321 18.1668 7.71412 18.2094 7.69646C18.252 7.6788 18.2907 7.65292 18.3234 7.62029C18.356 7.58766 18.3818 7.54892 18.3995 7.50629C18.4171 7.46366 18.4262 7.41797 18.4261 7.37184C18.4262 7.32571 18.4171 7.28004 18.3994 7.23742C18.3818 7.1948 18.3559 7.15608 18.3233 7.12346C18.2907 7.09085 18.252 7.06497 18.2094 7.04733C18.1668 7.02968 18.1211 7.02059 18.075 7.0206H10.6754C10.5823 7.0206 10.4929 7.05761 10.427 7.1235C10.3611 7.18938 10.3241 7.27873 10.3241 7.37191C10.3241 7.46508 10.3611 7.55443 10.427 7.62032C10.4929 7.6862 10.5823 7.72321 10.6754 7.72321ZM16.951 8.56603H13.9536C13.8604 8.56603 13.7711 8.60304 13.7052 8.66892C13.6393 8.7348 13.6023 8.82415 13.6023 8.91731C13.6023 9.01048 13.6393 9.09983 13.7052 9.16571C13.7711 9.23158 13.8604 9.26859 13.9536 9.26859H16.951C17.0442 9.26859 17.1335 9.23158 17.1994 9.16571C17.2653 9.09983 17.3023 9.01048 17.3023 8.91731C17.3023 8.82415 17.2653 8.7348 17.1994 8.66892C17.1335 8.60304 17.0442 8.56603 16.951 8.56603ZM12.8297 8.56603H11.7994C11.7532 8.56603 11.7075 8.57512 11.6649 8.59278C11.6223 8.61044 11.5836 8.63633 11.551 8.66896C11.5183 8.70159 11.4925 8.74032 11.4748 8.78295C11.4572 8.82558 11.4481 8.87127 11.4482 8.91741C11.4482 8.96353 11.4572 9.0092 11.4749 9.05181C11.4925 9.09442 11.5184 9.13313 11.551 9.16575C11.5836 9.19836 11.6223 9.22423 11.665 9.24187C11.7076 9.25952 11.7532 9.2686 11.7994 9.26859H12.8297C12.8758 9.2686 12.9215 9.25952 12.9641 9.24187C13.0067 9.22423 13.0454 9.19836 13.078 9.16575C13.1106 9.13313 13.1365 9.09442 13.1541 9.05181C13.1718 9.0092 13.1809 8.96353 13.1809 8.91741C13.1809 8.87127 13.1718 8.82558 13.1542 8.78295C13.1365 8.74032 13.1107 8.70159 13.0781 8.66896C13.0455 8.63633 13.0067 8.61044 12.9641 8.59278C12.9215 8.57512 12.8758 8.56603 12.8297 8.56603H12.8297ZM8.10447 9.26859H10.6286C10.7217 9.26859 10.8111 9.23158 10.8769 9.16571C10.9428 9.09983 10.9798 9.01048 10.9798 8.91731C10.9798 8.82415 10.9428 8.7348 10.8769 8.66892C10.8111 8.60304 10.7217 8.56603 10.6286 8.56603H8.10447C8.05785 8.56527 8.01155 8.57379 7.96827 8.5911C7.92498 8.60841 7.88557 8.63417 7.85234 8.66686C7.8191 8.69956 7.79271 8.73854 7.77469 8.78154C7.75668 8.82454 7.7474 8.87069 7.7474 8.91731C7.7474 8.96393 7.75668 9.01009 7.77469 9.05308C7.79271 9.09608 7.8191 9.13506 7.85234 9.16776C7.88557 9.20045 7.92498 9.22621 7.96827 9.24352C8.01155 9.26083 8.05785 9.26936 8.10447 9.26859ZM7.36965 13.2026H5.00353C4.9574 13.2026 4.91172 13.2117 4.86909 13.2293C4.82647 13.247 4.78774 13.2729 4.75511 13.3055C4.72248 13.3381 4.6966 13.3768 4.67893 13.4194C4.66127 13.462 4.65217 13.5077 4.65216 13.5538C4.65216 13.6 4.66126 13.6456 4.67892 13.6883C4.69658 13.7309 4.72247 13.7696 4.75509 13.8022C4.78772 13.8348 4.82646 13.8607 4.86908 13.8784C4.91171 13.896 4.9574 13.9051 5.00353 13.9051H7.36965C7.46279 13.905 7.55211 13.868 7.61797 13.8022C7.68383 13.7363 7.72083 13.647 7.72084 13.5538C7.72082 13.4607 7.68381 13.3714 7.61795 13.3055C7.5521 13.2397 7.46278 13.2027 7.36965 13.2026ZM3.92765 13.2026H2.10969C2.06357 13.2026 2.0179 13.2117 1.97529 13.2294C1.93268 13.247 1.89396 13.2729 1.86135 13.3055C1.82874 13.3381 1.80287 13.3768 1.78522 13.4194C1.76758 13.462 1.7585 13.5077 1.7585 13.5538C1.75849 13.6 1.76757 13.6456 1.78521 13.6882C1.80285 13.7309 1.82872 13.7696 1.86133 13.8022C1.89395 13.8348 1.93267 13.8607 1.97528 13.8783C2.01789 13.896 2.06357 13.9051 2.10969 13.9051H3.92756C3.97368 13.9051 4.01936 13.896 4.06197 13.8783C4.10459 13.8607 4.1433 13.8348 4.17592 13.8022C4.20853 13.7696 4.2344 13.7309 4.25204 13.6882C4.26969 13.6456 4.27876 13.6 4.27875 13.5538C4.27875 13.5077 4.26968 13.462 4.25203 13.4194C4.23438 13.3768 4.20851 13.3381 4.1759 13.3055C4.14329 13.2729 4.10457 13.247 4.06196 13.2294C4.01935 13.2117 3.97368 13.2026 3.92756 13.2026H3.92765ZM11.6589 13.2026H8.56783C8.52171 13.2026 8.47604 13.2117 8.43343 13.2294C8.39082 13.247 8.3521 13.2729 8.31949 13.3055C8.28687 13.3381 8.26101 13.3768 8.24336 13.4194C8.22571 13.462 8.21663 13.5077 8.21664 13.5538C8.21663 13.6 8.2257 13.6456 8.24335 13.6882C8.26099 13.7309 8.28686 13.7696 8.31947 13.8022C8.35208 13.8348 8.3908 13.8607 8.43342 13.8783C8.47603 13.896 8.5217 13.9051 8.56783 13.9051H11.6589C11.752 13.905 11.8413 13.868 11.9072 13.8022C11.973 13.7363 12.01 13.647 12.0101 13.5538C12.01 13.4607 11.973 13.3714 11.9072 13.3055C11.8413 13.2397 11.752 13.2027 11.6589 13.2026H11.6589ZM15.839 11.3983H14.1488C14.0556 11.3983 13.9663 11.4353 13.9004 11.5012C13.8345 11.5671 13.7975 11.6564 13.7975 11.7496C13.7975 11.8428 13.8345 11.9321 13.9004 11.998C13.9663 12.0639 14.0556 12.1009 14.1488 12.1009H15.839C15.8852 12.1009 15.9308 12.0918 15.9735 12.0741C16.0161 12.0565 16.0548 12.0306 16.0874 11.998C16.1201 11.9653 16.1459 11.9266 16.1636 11.884C16.1812 11.8413 16.1903 11.7956 16.1902 11.7495C16.1903 11.7034 16.1812 11.6577 16.1635 11.6151C16.1459 11.5725 16.12 11.5338 16.0874 11.5012C16.0548 11.4685 16.016 11.4427 15.9734 11.425C15.9308 11.4074 15.8851 11.3983 15.839 11.3983ZM18.772 12.1009H21.1581C21.2047 12.1016 21.251 12.0931 21.2943 12.0758C21.3376 12.0585 21.377 12.0327 21.4102 12.0001C21.4434 11.9674 21.4698 11.9284 21.4879 11.8854C21.5059 11.8424 21.5151 11.7962 21.5151 11.7496C21.5151 11.703 21.5059 11.6568 21.4879 11.6138C21.4698 11.5708 21.4434 11.5319 21.4102 11.4992C21.377 11.4665 21.3376 11.4407 21.2943 11.4234C21.251 11.4061 21.2047 11.3976 21.1581 11.3983H18.7721C18.726 11.3983 18.6803 11.4074 18.6377 11.425C18.5951 11.4427 18.5564 11.4686 18.5237 11.5012C18.4911 11.5338 18.4653 11.5725 18.4476 11.6151C18.43 11.6577 18.4209 11.7034 18.4209 11.7495C18.4209 11.7956 18.43 11.8413 18.4476 11.8839C18.4652 11.9266 18.4911 11.9653 18.5237 11.9979C18.5563 12.0306 18.595 12.0564 18.6377 12.0741C18.6803 12.0918 18.726 12.1009 18.7721 12.1009H18.772ZM17.5789 11.3983H17.0322C16.939 11.3983 16.8497 11.4353 16.7838 11.5012C16.7179 11.5671 16.6809 11.6564 16.6809 11.7496C16.6809 11.8428 16.7179 11.9321 16.7838 11.998C16.8497 12.0639 16.939 12.1009 17.0322 12.1009H17.5789C17.6251 12.1009 17.6707 12.0918 17.7134 12.0741C17.756 12.0565 17.7947 12.0306 17.8273 11.998C17.8599 11.9653 17.8858 11.9266 17.9034 11.884C17.9211 11.8413 17.9301 11.7956 17.9301 11.7495C17.9301 11.7034 17.921 11.6577 17.9034 11.6151C17.8857 11.5725 17.8599 11.5338 17.8273 11.5012C17.7947 11.4686 17.7559 11.4427 17.7133 11.425C17.6707 11.4074 17.625 11.3983 17.5789 11.3983ZM14.1488 15.9286H15.839C15.8851 15.9286 15.9308 15.9195 15.9735 15.9019C16.0161 15.8842 16.0548 15.8584 16.0874 15.8258C16.12 15.7931 16.1459 15.7544 16.1636 15.7118C16.1812 15.6692 16.1903 15.6235 16.1902 15.5773C16.1903 15.5312 16.1812 15.4855 16.1635 15.4429C16.1459 15.4003 16.12 15.3616 16.0874 15.329C16.0548 15.2964 16.016 15.2705 15.9734 15.2529C15.9308 15.2352 15.8851 15.2261 15.839 15.2261H14.1488C14.0557 15.2262 13.9663 15.2632 13.9005 15.329C13.8346 15.3949 13.7976 15.4842 13.7976 15.5773C13.7976 15.6235 13.8067 15.6691 13.8243 15.7118C13.8419 15.7544 13.8678 15.7931 13.9004 15.8257C13.933 15.8583 13.9718 15.8842 14.0144 15.9018C14.057 15.9195 14.1027 15.9286 14.1488 15.9286ZM18.772 15.9286H21.1581C21.2512 15.9286 21.3406 15.8916 21.4064 15.8257C21.4723 15.7598 21.5093 15.6705 21.5093 15.5774C21.5093 15.4842 21.4723 15.3949 21.4064 15.329C21.3406 15.2632 21.2512 15.2261 21.1581 15.2261H18.7721C18.726 15.2261 18.6803 15.2352 18.6377 15.2529C18.5951 15.2705 18.5564 15.2964 18.5237 15.329C18.4911 15.3616 18.4653 15.4003 18.4476 15.4429C18.43 15.4855 18.4209 15.5312 18.4209 15.5773C18.4209 15.6235 18.43 15.6691 18.4476 15.7118C18.4652 15.7544 18.4911 15.7931 18.5237 15.8257C18.5563 15.8583 18.5951 15.8842 18.6377 15.9018C18.6803 15.9195 18.726 15.9286 18.7721 15.9286H18.772ZM17.0322 15.9286H17.5789C17.6721 15.9286 17.7614 15.8916 17.8273 15.8257C17.8931 15.7598 17.9301 15.6705 17.9301 15.5774C17.9301 15.4842 17.8931 15.3949 17.8273 15.329C17.7614 15.2632 17.6721 15.2261 17.5789 15.2261H17.0322C16.986 15.2261 16.9404 15.2352 16.8978 15.2529C16.8551 15.2705 16.8164 15.2964 16.7838 15.329C16.7512 15.3616 16.7253 15.4003 16.7077 15.4429C16.69 15.4855 16.6809 15.5312 16.6809 15.5773C16.6809 15.6235 16.69 15.6692 16.7076 15.7118C16.7253 15.7544 16.7511 15.7931 16.7838 15.8258C16.8164 15.8584 16.8551 15.8842 16.8977 15.9019C16.9404 15.9195 16.986 15.9286 17.0322 15.9286ZM15.839 19.054H14.1488C13.9549 19.054 13.7976 19.2113 13.7976 19.4052C13.7976 19.599 13.9549 19.7564 14.1488 19.7564H15.839C16.0331 19.7564 16.1902 19.5991 16.1902 19.4052C16.1902 19.2112 16.0331 19.054 15.839 19.054ZM21.1581 19.054H18.7721C18.578 19.054 18.4209 19.2113 18.4209 19.4052C18.4209 19.599 18.578 19.7564 18.7721 19.7564H21.1581C21.3522 19.7564 21.5095 19.5991 21.5095 19.4052C21.5095 19.2112 21.3522 19.054 21.1581 19.054H21.1581ZM17.5789 19.054H17.0322C16.8381 19.054 16.6807 19.2113 16.6807 19.4052C16.6807 19.599 16.8381 19.7564 17.0322 19.7564H17.5789C17.773 19.7564 17.9301 19.5991 17.9301 19.4052C17.9301 19.2112 17.773 19.054 17.5789 19.054Z" fill="white"/>
<path d="M22.4543 0.046875H1.54594C0.693612 0.046875 0 0.7403 0 1.59282V18.5882C0 19.4405 0.693612 20.134 1.54594 20.134H2.86782C2.91394 20.134 2.95961 20.1249 3.00223 20.1072C3.04484 20.0896 3.08355 20.0637 3.11617 20.0311C3.14878 19.9985 3.17465 19.9598 3.19229 19.9172C3.20994 19.8746 3.21902 19.8289 3.21901 19.7828C3.21899 19.6896 3.18198 19.6003 3.11612 19.5345C3.05027 19.4686 2.96096 19.4316 2.86782 19.4316H1.54594C1.08089 19.4316 0.702565 19.0533 0.702565 18.5882V17.2557H13.4993V17.861H13.2208C12.8398 17.861 12.53 18.1709 12.53 18.5519V19.4315H5.00336C4.91023 19.4316 4.82092 19.4686 4.75506 19.5344C4.68921 19.6003 4.6522 19.6896 4.65217 19.7827C4.65217 19.8289 4.66125 19.8745 4.67889 19.9171C4.69654 19.9597 4.72241 19.9985 4.75502 20.0311C4.78763 20.0637 4.82635 20.0896 4.86896 20.1072C4.91157 20.1248 4.95724 20.1339 5.00336 20.1339H8.38058V21.3937H7.32003C6.61249 21.3937 6.03705 21.9694 6.03705 22.6768V23.4355C6.03705 23.7584 6.29956 24.0209 6.62239 24.0209H17.3509C17.6738 24.0209 17.9364 23.7584 17.9364 23.4355V22.6768C17.9364 21.9695 17.3608 21.3937 16.6533 21.3937H15.5928V20.9497H22.0863C22.4671 20.9497 22.7769 20.6399 22.7769 20.2588V20.0935C23.4616 19.9346 23.9734 19.3203 23.9734 18.5882L23.9999 1.59268C24.0001 0.7403 23.3067 0.046875 22.4543 0.046875ZM13.2325 16.4195V14.7358H22.0746V16.4195H13.2325ZM14.2017 14.0333V13.2942H21.1052V14.0333H14.2017ZM21.1052 17.1219V17.8611H14.2018V17.1219H21.1052ZM9.083 20.134H12.53V20.2591C12.53 20.6399 12.8398 20.9498 13.2208 20.9498H14.8904V21.3938H9.083V20.134ZM16.6535 22.0964C16.9736 22.0964 17.2339 22.3567 17.2339 22.6769V23.3186H6.73939V22.6769C6.73939 22.3567 6.99996 22.0964 7.32003 22.0964H16.6535ZM22.0746 20.2472H13.2325V18.5637H22.0746V20.2472ZM23.271 18.5883C23.271 18.9285 23.0681 19.2216 22.7771 19.3547V18.5518C22.7771 18.1709 22.4671 17.8611 22.0863 17.8611H21.8077V17.2557H23.271V18.5883ZM23.271 16.5534H22.7656C22.7727 16.5137 22.7771 14.7242 22.7771 14.7242C22.7771 14.3431 22.4671 14.0333 22.0863 14.0333H21.8077V13.2943H22.0863C22.4671 13.2943 22.7771 12.9843 22.7771 12.6034V10.8963C22.7771 10.5155 22.4671 10.2055 22.0863 10.2055H20.1023C20.0562 10.2055 20.0105 10.2146 19.9679 10.2322C19.9253 10.2499 19.8865 10.2758 19.8539 10.3084C19.8213 10.341 19.7954 10.3798 19.7778 10.4224C19.7601 10.465 19.7511 10.5107 19.7511 10.5569C19.7511 10.603 19.7602 10.6487 19.7778 10.6913C19.7955 10.7339 19.8213 10.7726 19.854 10.8052C19.8866 10.8378 19.9253 10.8637 19.9679 10.8813C20.0105 10.899 20.0562 10.9081 20.1023 10.908H22.0746V12.5917H13.2325V10.908H17.9168C17.9629 10.908 18.0086 10.899 18.0512 10.8813C18.0938 10.8637 18.1325 10.8378 18.1651 10.8052C18.1977 10.7726 18.2236 10.7339 18.2412 10.6913C18.2589 10.6486 18.268 10.603 18.268 10.5569C18.268 10.5107 18.2589 10.465 18.2413 10.4224C18.2236 10.3798 18.1978 10.341 18.1652 10.3084C18.1326 10.2758 18.0938 10.2499 18.0512 10.2322C18.0086 10.2146 17.9629 10.2055 17.9168 10.2055H13.2208C12.8398 10.2055 12.53 10.5155 12.53 10.8963V12.6034C12.53 12.9843 12.8398 13.2943 13.2208 13.2943H13.4993V14.0333H13.2208C12.8398 14.0333 12.53 14.3433 12.53 14.7242C12.53 14.7242 12.5343 16.5137 12.5415 16.5534H0.702565V4.82486H23.271V16.5534ZM23.271 4.1223H0.72844V1.59268C0.72844 1.12777 1.10672 0.74944 1.57182 0.74944H22.4276C22.8927 0.74944 23.271 1.12772 23.271 1.59282L23.271 4.1223Z" fill="white"/>
<path d="M2.59043 1.39502C2.02207 1.39502 1.55969 1.85735 1.55969 2.42571C1.55969 2.99407 2.02207 3.45658 2.59043 3.45658C3.15879 3.45658 3.6213 2.99407 3.6213 2.42571C3.6213 1.85735 3.15879 1.39502 2.59043 1.39502ZM2.59043 2.75402C2.40949 2.75402 2.26211 2.60683 2.26211 2.42571C2.26211 2.24477 2.40949 2.09739 2.59043 2.09739C2.7715 2.09739 2.91874 2.24482 2.91874 2.42571C2.91866 2.51276 2.88405 2.59622 2.8225 2.65778C2.76094 2.71933 2.67748 2.75395 2.59043 2.75402ZM5.21486 1.39502C4.64651 1.39502 4.18399 1.85735 4.18399 2.42571C4.18399 2.99407 4.64651 3.45658 5.21486 3.45658C5.78322 3.45658 6.24555 2.99407 6.24555 2.42571C6.24555 1.85735 5.78304 1.39502 5.21486 1.39502ZM5.21486 2.75402C5.12781 2.75395 5.04435 2.71933 4.98279 2.65778C4.92124 2.59622 4.88663 2.51276 4.88655 2.42571C4.88655 2.24477 5.03374 2.09739 5.21486 2.09739C5.3958 2.09739 5.54318 2.24482 5.54318 2.42571C5.54318 2.60679 5.39576 2.75402 5.21486 2.75402ZM7.83911 1.39502C7.27075 1.39502 6.80843 1.85735 6.80843 2.42571C6.80843 2.99407 7.27075 3.45658 7.83911 3.45658C8.40747 3.45658 8.87004 2.99407 8.87004 2.42571C8.87004 1.85735 8.40747 1.39502 7.83911 1.39502ZM7.83911 2.75402C7.65822 2.75402 7.5108 2.60683 7.5108 2.42571C7.5108 2.24477 7.65822 2.09739 7.83911 2.09739C8.02024 2.09739 8.16743 2.24482 8.16743 2.42571C8.16735 2.51276 8.13274 2.59622 8.07118 2.65778C8.00963 2.71933 7.92617 2.75395 7.83911 2.75402Z" fill="white"/>
</g>
<defs>
<clipPath id="clip0_695_449">
<rect width="24" height="24" fill="white"/>
</clipPath>
</defs>
</svg>
