<?xml version="1.0" encoding="utf-8"?>
<!-- Generator: Adobe Illustrator 23.1.0, SVG Export Plug-In . SVG Version: 6.00 Build 0)  -->
<svg version="1.1" id="Layer_1" xmlns="http://www.w3.org/2000/svg" xmlns:xlink="http://www.w3.org/1999/xlink" x="0px" y="0px"
	 viewBox="0 0 500 106" style="enable-background:new 0 0 500 106;" xml:space="preserve">
<style type="text/css">
	.st0{fill:#0A84FF;}
</style>
<g>
	<g>
		<path class="st0" d="M112.3,44.2L97.9,69.1c-0.9,1.6-2.2,3-3.8,3.9c-6.7,3.6-13.5-2.8-13.5-2.8v3.5c0,11.6,11.5,20,22.4,16
			c0.1,0,0.2-0.1,0.3-0.1c4-1.5,7.3-4.4,9.4-8.1l25.6-44.2C129.3,32,117.6,35.1,112.3,44.2z"/>
		<path class="st0" d="M59.6,72.9c-1.6-0.9-2.9-2.3-3.8-3.9L41.3,44.2c-5.3-9.1-17-12.2-26.1-6.9l25.6,44.2c2.1,3.7,5.4,6.5,9.4,8.1
			c0.1,0,0.2,0.1,0.3,0.1c10.9,4,22.4-4.3,22.4-16v-3.5C73,70.2,66.3,76.5,59.6,72.9z"/>
		<path class="st0" d="M96.9,37.3c-9.1-5.3-20.8-2.2-26.1,6.9l-12,20.7l1,1.8c0.6,0.9,1.2,1.7,2,2c3.6,1.9,7.9-2,7.9-2l8-7.4l0,10.9
			L96.9,37.3L96.9,37.3z"/>
	</g>
	<path class="st0" d="M168.7,34.2c-5.4,0-10.4,1.1-14.9,3.4c-4.5,2.3-8.1,5.6-10.9,10c-2.7,4.4-4.1,9.4-4.1,15.1
		c0,5.7,1.4,10.7,4.1,15.1c5.5,8.7,14.9,13.3,25.8,13.3c5.6,0,10.9-1.3,15.6-4c4.8-2.6,8.4-6.2,10.9-10.8l-12.1-5.8
		c-2.7,5.9-7.9,9.4-14.4,9.4c-3.7,0-7-1.2-9.8-3.5c-2.8-2.3-4.7-5.4-5.5-9.3h44.7c0.6-10-2.4-18.5-7.6-24.1
		C185.2,37.4,177.5,34.2,168.7,34.2z M153.4,58.2c0.7-3.9,2.5-7.1,5.3-9.4c2.7-2.3,6.1-3.4,10-3.4c4,0,7.3,1.1,10.1,3.4
		c2.7,2.3,4.5,5.4,5.3,9.4H153.4z"/>
	<path class="st0" d="M239,34.2c-9.2,0-16.5,3.3-19.7,8.9V14.9h-14.1v75.4h13.5l0.6-8.1c3,5.9,9.6,8.9,19.7,8.9
		c7.2,0,13.8-3,18.5-7.9c4.7-4.9,7.6-12.3,7.6-20.5s-2.9-15.6-7.6-20.5C252.9,37.3,246.3,34.2,239,34.2z M246.4,74.4
		c-3,3.1-6.8,4.7-11.1,4.7c-4.4,0-8.1-1.6-11.2-4.7c-3.1-3.1-4.6-7-4.6-11.8c0-4.8,1.5-8.7,4.6-11.8c3-3.1,6.8-4.6,11.2-4.6
		c4.4,0,8.1,1.5,11.2,4.6c3,3.1,4.5,7.1,4.5,11.8C250.9,67.4,249.4,71.3,246.4,74.4z"/>
	<rect x="272.1" y="14.9" class="st0" width="14.1" height="75.4"/>
	<path class="st0" d="M470.6,14.9v28.2c-3.2-5.6-10.4-8.9-19.7-8.9c-7.3,0-13.8,3-18.5,7.9c-4.7,5-7.6,12.3-7.6,20.5
		s2.9,15.6,7.6,20.5c4.7,4.9,11.2,7.9,18.5,7.9c10.1,0,16.7-3,19.7-8.9l0.6,8.1h13.5V14.9H470.6z M466,74.4
		c-3.1,3.1-6.8,4.7-11.2,4.7c-4.4,0-8.1-1.6-11.1-4.7c-3-3.1-4.6-7-4.6-11.8c0-4.8,1.5-8.7,4.6-11.8c3-3.1,6.7-4.6,11.1-4.6
		c4.5,0,8.2,1.5,11.3,4.6c3,3.1,4.6,7.1,4.6,11.8C470.6,67.4,469.1,71.3,466,74.4z"/>
	<path class="st0" d="M403.8,62.7c0,5-1.2,9-3.6,12c-2.4,3-5.8,4.5-10.3,4.5c-8.4,0-11.9-5.6-11.9-16.4v-7.5
		c-4.2,6.5-8.6,12.3-13.3,17.2c0.8,4.6,2.2,8.4,4.2,11.4c3.3,4.9,8.7,7.3,16.2,7.3c9.1,0,15.4-3,18.7-8.9l0.6,8.1h13.5V35h-14.1
		V62.7z"/>
	<path class="st0" d="M378,37.9V35h-5.5h-4.2c-1.1,2.2-2.3,4.2-3.5,6.1c-1.6,2.7-3.7,6-6.3,9.5c-9.9,13.7-26.2,30.6-43.3,24.1
		c-4.8-1.8-8.2-6.5-8.2-11.7c0,0,0-0.1,0-0.1c0-9.3,7.4-16.8,16.7-17c9.2,0.2,16.7,7.7,16.7,17c0,0.3,0,0.7-0.1,1
		c0.3-0.2,0.5-0.4,0.8-0.6c3.1-2.4,6.2-5.3,9.2-8.6c1-1.1,2-2.3,2.9-3.5V35h-13.5l-0.6,8.1c-3.2-5.6-10.4-8.9-19.7-8.9
		c-7.3,0-13.8,3-18.5,7.9c-4.7,5-7.6,12.3-7.6,20.5s2.9,15.6,7.6,20.5c1.2,1.3,2.6,2.4,4,3.4c4.1,2.8,9.1,4.5,14.5,4.5
		c2.4,0,4.7-0.2,6.7-0.5c0.2,0,0.3-0.1,0.5-0.1c4-0.7,8.3-2,12.9-4.1l0.3,3.9h13.5V77.8c8.2-6.6,16.7-16.2,24.8-30V37.9z"/>
</g>
</svg>
